<svg xmlns="http://www.w3.org/2000/svg" xmlns:xlink="http://www.w3.org/1999/xlink" viewBox="0 0 150 100"><defs><style>.cls-1{isolation:isolate;}.cls-2,.cls-3{fill:#480087;}.cls-10,.cls-14,.cls-15,.cls-16,.cls-17,.cls-19,.cls-22,.cls-23,.cls-26,.cls-28,.cls-29,.cls-3,.cls-30,.cls-31,.cls-32,.cls-33,.cls-34,.cls-35,.cls-37,.cls-42,.cls-8{mix-blend-mode:multiply;}.cls-3{opacity:0.53;}.cls-4{fill:url(#linear-gradient);}.cls-5{opacity:0.67;fill:url(#linear-gradient-2);}.cls-6{fill:url(#linear-gradient-3);}.cls-7{fill:url(#linear-gradient-4);}.cls-9{fill:url(#linear-gradient-5);}.cls-10{fill:url(#linear-gradient-6);}.cls-11{fill:url(#linear-gradient-7);}.cls-12{fill:url(#linear-gradient-8);}.cls-13{fill:url(#linear-gradient-9);}.cls-14{fill:url(#linear-gradient-10);}.cls-15{opacity:0.51;fill:url(#linear-gradient-11);}.cls-16,.cls-17,.cls-22,.cls-23{opacity:0.3;}.cls-16{fill:url(#linear-gradient-12);}.cls-17{fill:url(#linear-gradient-13);}.cls-18{fill:url(#linear-gradient-14);}.cls-19{fill:url(#linear-gradient-15);}.cls-20,.cls-21,.cls-27,.cls-40,.cls-44,.cls-45,.cls-46{mix-blend-mode:screen;}.cls-20{fill:url(#linear-gradient-16);}.cls-21{opacity:0.32;fill:url(#linear-gradient-17);}.cls-22{fill:url(#linear-gradient-18);}.cls-23{fill:url(#linear-gradient-19);}.cls-24{fill:url(#linear-gradient-20);}.cls-25{fill:url(#linear-gradient-21);}.cls-26{fill:url(#linear-gradient-22);}.cls-27{fill:url(#linear-gradient-23);}.cls-28{fill:url(#linear-gradient-24);}.cls-29{fill:url(#linear-gradient-25);}.cls-30{fill:url(#linear-gradient-26);}.cls-31{fill:url(#linear-gradient-27);}.cls-32{fill:url(#linear-gradient-28);}.cls-33{fill:url(#linear-gradient-29);}.cls-34{fill:url(#linear-gradient-30);}.cls-35{fill:url(#linear-gradient-31);}.cls-36{fill:url(#linear-gradient-32);}.cls-37{fill:url(#linear-gradient-33);}.cls-38{fill:url(#linear-gradient-34);}.cls-39{fill:url(#linear-gradient-35);}.cls-40{fill:url(#linear-gradient-36);}.cls-41{fill:#fff;}.cls-42{opacity:0.7;}.cls-43{fill:url(#linear-gradient-37);}.cls-44{fill:url(#radial-gradient);}.cls-45{fill:url(#linear-gradient-38);}.cls-46{fill:url(#linear-gradient-39);}</style><linearGradient id="linear-gradient" x1="57.73" y1="147.71" x2="50.83" y2="125.05" gradientTransform="matrix(0.29, -0.96, 0.96, 0.29, -28.82, 62.71)" gradientUnits="userSpaceOnUse"><stop offset="0" stop-color="#ff4b00"/><stop offset="0.22" stop-color="#ff5400"/><stop offset="0.5" stop-color="#f60"/><stop offset="0.67" stop-color="#ff6f00"/><stop offset="0.93" stop-color="#ff8700"/><stop offset="1" stop-color="#ff8e00"/></linearGradient><linearGradient id="linear-gradient-2" x1="53.47" y1="125.74" x2="53.47" y2="144.29" gradientTransform="matrix(0.29, -0.96, 0.96, 0.29, -28.82, 62.71)" gradientUnits="userSpaceOnUse"><stop offset="0" stop-color="#ff8b00"/><stop offset="0.4" stop-color="#ffa300"/><stop offset="1" stop-color="#ffce00"/></linearGradient><linearGradient id="linear-gradient-3" x1="-9.98" y1="97.54" x2="22.72" y2="97.54" gradientTransform="translate(12.67 56.11) rotate(-90)" gradientUnits="userSpaceOnUse"><stop offset="0" stop-color="#9dcbc3"/><stop offset="0.2" stop-color="#9ec7c3"/><stop offset="0.39" stop-color="#a0bbc4"/><stop offset="0.58" stop-color="#a5a8c6"/><stop offset="0.77" stop-color="#aa8dc8"/><stop offset="0.95" stop-color="#b26acb"/><stop offset="1" stop-color="#b460cc"/></linearGradient><linearGradient id="linear-gradient-4" x1="-9.98" y1="97.54" x2="22.72" y2="97.54" gradientTransform="translate(12.67 56.11) rotate(-90)" gradientUnits="userSpaceOnUse"><stop offset="0" stop-color="#a81ba4"/><stop offset="0.21" stop-color="#a219a4"/><stop offset="0.47" stop-color="#9313a4"/><stop offset="0.76" stop-color="#790aa4"/><stop offset="1" stop-color="#5e00a4"/></linearGradient><linearGradient id="linear-gradient-5" x1="-11.17" y1="95.31" x2="23.91" y2="95.31" gradientTransform="translate(12.67 56.11) rotate(-90)" gradientUnits="userSpaceOnUse"><stop offset="0" stop-color="#7c00ff"/><stop offset="0.11" stop-color="#7d06fd"/><stop offset="0.25" stop-color="#7f15f9"/><stop offset="0.41" stop-color="#842ff1"/><stop offset="0.58" stop-color="#8a54e6"/><stop offset="0.76" stop-color="#9182d8"/><stop offset="0.95" stop-color="#9abbc8"/><stop offset="1" stop-color="#9dcbc3"/></linearGradient><linearGradient id="linear-gradient-6" x1="-11.17" y1="95.31" x2="23.91" y2="95.31" xlink:href="#linear-gradient-4"/><linearGradient id="linear-gradient-7" x1="-30.09" y1="50.98" x2="42.83" y2="50.98" gradientTransform="translate(12.67 56.11) rotate(-90)" gradientUnits="userSpaceOnUse"><stop offset="0" stop-color="#f4daa2"/><stop offset="0.2" stop-color="#f2d6a0"/><stop offset="0.4" stop-color="#edca99"/><stop offset="0.59" stop-color="#e5b78f"/><stop offset="0.79" stop-color="#d99c80"/><stop offset="0.98" stop-color="#ca796d"/><stop offset="1" stop-color="#c8746a"/></linearGradient><linearGradient id="linear-gradient-8" x1="4.69" y1="98.99" x2="36.75" y2="98.99" gradientTransform="matrix(0, 1, 1, 0, 12.67, -4.69)" xlink:href="#linear-gradient-4"/><linearGradient id="linear-gradient-9" x1="4.69" y1="105.16" x2="36.75" y2="105.16" gradientTransform="matrix(0, 1, 1, 0, 12.67, -4.69)" xlink:href="#linear-gradient-4"/><linearGradient id="linear-gradient-10" x1="16.88" y1="105.16" x2="46.81" y2="105.16" gradientTransform="matrix(0, 1, 1, 0, 12.67, -4.69)" xlink:href="#linear-gradient-4"/><linearGradient id="linear-gradient-11" x1="5" y1="75.81" x2="25.85" y2="96.66" gradientTransform="matrix(0, 1, 1, 0, 12.67, -4.69)" xlink:href="#linear-gradient-4"/><linearGradient id="linear-gradient-12" x1="-261.21" y1="28.44" x2="97.17" y2="108.46" gradientTransform="translate(12.67 56.11) rotate(-90)" gradientUnits="userSpaceOnUse"><stop offset="0" stop-color="#a822a4"/><stop offset="0.34" stop-color="#c155a3"/><stop offset="1" stop-color="#f4c1a2"/></linearGradient><linearGradient id="linear-gradient-13" x1="-15.98" y1="32.65" x2="28.57" y2="32.65" xlink:href="#linear-gradient-12"/><linearGradient id="linear-gradient-14" x1="-17.09" y1="10.36" x2="29.82" y2="10.36" xlink:href="#linear-gradient-4"/><linearGradient id="linear-gradient-15" x1="5.24" y1="10.4" x2="29.82" y2="10.4" xlink:href="#linear-gradient-4"/><linearGradient id="linear-gradient-16" x1="-7.22" y1="4.07" x2="6.21" y2="17.51" gradientTransform="translate(12.67 56.11) rotate(-90)" gradientUnits="userSpaceOnUse"><stop offset="0" stop-color="#ff81ff"/><stop offset="0.18" stop-color="#b85db8"/><stop offset="0.36" stop-color="#783c78"/><stop offset="0.52" stop-color="#424"/><stop offset="0.67" stop-color="#1f101f"/><stop offset="0.78" stop-color="#080408"/><stop offset="0.86"/></linearGradient><linearGradient id="linear-gradient-17" x1="-26" y1="44.03" x2="-5.19" y2="64.84" gradientTransform="translate(12.67 56.11) rotate(-90)" gradientUnits="userSpaceOnUse"><stop offset="0" stop-color="#fff0d2"/><stop offset="0.4" stop-color="#938b79"/><stop offset="0.82" stop-color="#2a2823"/><stop offset="1"/></linearGradient><linearGradient id="linear-gradient-18" x1="38.26" y1="44.69" x2="22.89" y2="60.06" xlink:href="#linear-gradient-12"/><linearGradient id="linear-gradient-19" x1="27.4" y1="55.75" x2="-2.25" y2="85.4" xlink:href="#linear-gradient-12"/><linearGradient id="linear-gradient-20" x1="-43.89" y1="98.66" x2="-11.83" y2="98.66" xlink:href="#linear-gradient-4"/><linearGradient id="linear-gradient-21" x1="-43.89" y1="104.82" x2="-11.83" y2="104.82" xlink:href="#linear-gradient-4"/><linearGradient id="linear-gradient-22" x1="-31.7" y1="104.82" x2="-1.77" y2="104.82" xlink:href="#linear-gradient-4"/><linearGradient id="linear-gradient-23" x1="-45.88" y1="77.18" x2="-24.71" y2="98.36" xlink:href="#linear-gradient-16"/><linearGradient id="linear-gradient-24" x1="-22.16" y1="57.45" x2="36.22" y2="57.45" gradientTransform="translate(12.67 56.11) rotate(-90)" gradientUnits="userSpaceOnUse"><stop offset="0" stop-color="#a81ba4"/><stop offset="0.13" stop-color="#ab21a4"/><stop offset="0.29" stop-color="#b230a4"/><stop offset="0.47" stop-color="#be4aa3"/><stop offset="0.66" stop-color="#ce6fa3"/><stop offset="0.86" stop-color="#e39da2"/><stop offset="1" stop-color="#f4c1a2"/></linearGradient><linearGradient id="linear-gradient-25" x1="13.24" y1="37.01" x2="30.43" y2="37.01" xlink:href="#linear-gradient-24"/><linearGradient id="linear-gradient-26" x1="5.33" y1="94.07" x2="6.03" y2="94.07" xlink:href="#linear-gradient-24"/><linearGradient id="linear-gradient-27" x1="-21.02" y1="38.95" x2="7.12" y2="38.95" xlink:href="#linear-gradient-24"/><linearGradient id="linear-gradient-28" x1="5.68" y1="94.07" x2="6.03" y2="94.07" xlink:href="#linear-gradient-24"/><linearGradient id="linear-gradient-29" x1="-20.8" y1="38.73" x2="6.87" y2="38.73" xlink:href="#linear-gradient-24"/><linearGradient id="linear-gradient-30" x1="13.24" y1="36.89" x2="30.25" y2="36.89" xlink:href="#linear-gradient-24"/><linearGradient id="linear-gradient-31" x1="-21.91" y1="57.24" x2="36.22" y2="57.24" xlink:href="#linear-gradient-24"/><linearGradient id="linear-gradient-32" x1="-12.77" y1="65.52" x2="25.51" y2="65.52" xlink:href="#linear-gradient-4"/><linearGradient id="linear-gradient-33" x1="-9.09" y1="65.52" x2="21.83" y2="65.52" xlink:href="#linear-gradient-4"/><linearGradient id="linear-gradient-34" x1="-7.18" y1="65.52" x2="19.91" y2="65.52" gradientTransform="translate(12.67 56.11) rotate(-90)" gradientUnits="userSpaceOnUse"><stop offset="0" stop-color="#057300"/><stop offset="0.12" stop-color="#138a00"/><stop offset="0.41" stop-color="#33bc00"/><stop offset="0.66" stop-color="#4ae100"/><stop offset="0.87" stop-color="#58f700"/><stop offset="1" stop-color="#5dff00"/></linearGradient><linearGradient id="linear-gradient-35" x1="-6.02" y1="65.52" x2="18.76" y2="65.52" gradientTransform="translate(12.67 56.11) rotate(-90)" gradientUnits="userSpaceOnUse"><stop offset="0" stop-color="#b0ff00"/><stop offset="1" stop-color="#5dff00"/></linearGradient><linearGradient id="linear-gradient-36" x1="6.37" y1="51.29" x2="6.37" y2="79.75" gradientTransform="translate(12.67 56.11) rotate(-90)" gradientUnits="userSpaceOnUse"><stop offset="0" stop-color="#fff"/><stop offset="0.14" stop-color="#c9c9c9"/><stop offset="0.31" stop-color="#8d8d8d"/><stop offset="0.48" stop-color="#5b5b5b"/><stop offset="0.64" stop-color="#333"/><stop offset="0.78" stop-color="#171717"/><stop offset="0.91" stop-color="#060606"/><stop offset="1"/></linearGradient><linearGradient id="linear-gradient-37" x1="6.37" y1="60.11" x2="6.37" y2="82.55" gradientTransform="translate(12.67 56.11) rotate(-90)" gradientUnits="userSpaceOnUse"><stop offset="0" stop-color="#3dcd00"/><stop offset="0.08" stop-color="#44cf09"/><stop offset="0.22" stop-color="#56d421"/><stop offset="0.4" stop-color="#74db49"/><stop offset="0.6" stop-color="#9ee680"/><stop offset="0.83" stop-color="#d3f4c5"/><stop offset="1" stop-color="#fff"/></linearGradient><radialGradient id="radial-gradient" cx="-24.06" cy="133.15" r="24.26" gradientTransform="matrix(0.75, -0.05, 0.04, 0.87, 90.54, -67.09)" gradientUnits="userSpaceOnUse"><stop offset="0" stop-color="#3dcc00"/><stop offset="0.1" stop-color="#3ac300"/><stop offset="0.26" stop-color="#33ab00"/><stop offset="0.47" stop-color="#278300"/><stop offset="0.71" stop-color="#164b00"/><stop offset="0.98" stop-color="#020500"/><stop offset="1"/></radialGradient><linearGradient id="linear-gradient-38" x1="-7.59" y1="50.55" x2="-0.8" y2="57.34" xlink:href="#linear-gradient-16"/><linearGradient id="linear-gradient-39" x1="110.74" y1="-150.92" x2="115.98" y2="-145.67" gradientTransform="translate(-57.21 -75.27) rotate(90)" xlink:href="#linear-gradient-16"/></defs><g class="cls-1"><g id="Capa_1" data-name="Capa 1"><polygon class="cls-2" points="95.62 57.58 142.63 49.63 80.02 38.59 95.62 57.58"/><polygon class="cls-3" points="95.62 57.58 142.63 49.63 80.02 38.59 95.62 57.58"/><path class="cls-4" d="M110.42,57.86s6.38,2.9,10.07-.68,4.92-3.09,4.92-3.09-4.51-1.41-6.07-.32c0,0,3.57-3.76,9.95-1.51,0,0-2.63-4.56-9.24-4.82,0,0,3.64-.76,5.08.18,0,0-3.53-6.51-13-5.44S110.42,57.86,110.42,57.86Z"/><path class="cls-5" d="M108.71,51.68a8.56,8.56,0,0,0,8.16,1.08c4.55-1.82,4.54-2.75,7.42-2.3,0,0-8.89-5.38-15.24-1.66S108.71,51.68,108.71,51.68Z"/><path class="cls-6" d="M110.21,33.39c3.48,0,6.31,7.32,6.31,16.35s-2.83,16.35-6.31,16.35-6.31-7.32-6.31-16.35S106.72,33.39,110.21,33.39Z"/><path class="cls-7" d="M110.21,33.39c3.48,0,6.31,7.32,6.31,16.35s-2.83,16.35-6.31,16.35-6.31-7.32-6.31-16.35S106.72,33.39,110.21,33.39Z"/><g class="cls-8"><ellipse class="cls-9" cx="107.97" cy="49.74" rx="6.31" ry="17.54"/><ellipse class="cls-10" cx="107.97" cy="49.74" rx="6.31" ry="17.54"/></g><path class="cls-11" d="M61.88,82.34,32.43,68.59c-22.11-10.33-22.11-27.22,0-37.54L62.2,17.15c20.38-9.52,49.39-.36,49.25,15.54L111.13,67C111,82.82,82.14,91.79,61.88,82.34Z"/><path class="cls-12" d="M85.65,19.74A53.32,53.32,0,0,0,80,19.47c-21.88.1,12-47.29,70,5.43C150,24.9,114,.14,85.65,19.74Z"/><path class="cls-13" d="M111.42,32.06s-7.88-10.49-25.77-12.32C114,.14,150,24.9,150,24.9S118.46,16.84,111.42,32.06Z"/><path class="cls-14" d="M111.42,32.06s-7.88-10.49-25.77-12.32C114,.14,150,24.9,150,24.9S118.46,16.84,111.42,32.06Z"/><path class="cls-15" d="M120.61,6.75S96.2-3.66,83.18,6.9C62.62,23.58,87.41,1.62,120.61,6.75Z"/><path class="cls-16" d="M79.68,80.53S112.79,66.22,102.8,43s8.62-10.92,8.62-10.92l-.33,35.88-2.8,8.52L81,82.62Z"/><path class="cls-17" d="M39.94,72.09s24.18-22.34,0-44.55Z"/><path class="cls-18" d="M39.29,73.2s15.21-23.53,0-46.91L0,49.74Z"/><path class="cls-19" d="M46,50.87S42.94,43.44,23.8,46,0,49.74,0,49.74L39.29,26.29S47.22,36.84,46,50.87Z"/><path class="cls-20" d="M4.28,50.87S38.74,72.58,40.36,64,4.28,50.87,4.28,50.87Z"/><path class="cls-21" d="M87.4,74.3s-15.52,8.48-20.92,6.76-26.59-9-19-12.18S61.92,84,87.4,74.3Z"/><path class="cls-22" d="M82.2,21.45S66.63,22,70.48,14.36c0,0-4.35,1-14.47,5.68s-.38,17.31-.38,17.31,4-8.56,19.53-10.53Z"/><path class="cls-23" d="M102.25,49.74s1.64-14.06-16-19.14C68.4,25.47,58.1,39.21,58.1,39.21Z"/><path class="cls-24" d="M85.32,80.26a53.45,53.45,0,0,1-5.64.27c-21.88-.1,12,47.29,70-5.43C149.67,75.1,113.7,99.86,85.32,80.26Z"/><path class="cls-25" d="M111.09,67.94s-7.88,10.49-25.78,12.32c28.39,19.6,64.36-5.16,64.36-5.16S118.13,83.16,111.09,67.94Z"/><path class="cls-26" d="M111.09,67.94s-7.88,10.49-25.78,12.32c28.39,19.6,64.36-5.16,64.36-5.16S118.13,83.16,111.09,67.94Z"/><path class="cls-27" d="M120.28,93.25s-20.34,10.53-35.52,2S87.32,91.26,120.28,93.25Z"/><polygon class="cls-28" points="87.83 20.02 86.05 27.34 82.01 29.9 82.01 68.58 80.48 71.19 59.4 72.43 53.18 78.27 52.41 77.91 58.96 71.75 79.9 70.53 81.13 68.43 81.13 29.56 85.25 26.95 86.97 19.89 87.83 20.02"/><polygon class="cls-29" points="56.19 41.98 55.73 42.87 53.78 39.44 47.74 36.43 43.16 26.04 43.93 25.68 48.47 35.97 54.48 38.96 56.19 41.98"/><rect class="cls-30" x="102.23" y="50.08" width="9.02" height="0.7"/><polygon class="cls-31" points="57.16 70.74 50.74 77.13 49.97 76.78 56.2 70.58 49.41 49.69 46.08 49.69 46.11 48.98 50.09 48.98 57.16 70.74"/><rect class="cls-32" x="102.23" y="50.08" width="9.02" height="0.35"/><polygon class="cls-33" points="56.72 70.52 50.3 76.91 49.97 76.78 56.2 70.58 49.41 49.69 46.08 49.69 46.1 49.31 49.67 49.24 56.72 70.52"/><polygon class="cls-34" points="55.95 42.34 55.73 42.87 53.78 39.44 47.74 36.43 43.16 26.04 43.54 25.86 48.23 36.32 54.24 39.32 55.95 42.34"/><polygon class="cls-35" points="87.4 19.89 85.62 27.21 81.58 29.77 81.58 68.45 80.05 71.06 59.3 72.18 53.08 78.02 52.41 77.91 58.96 71.75 79.9 70.53 81.13 68.43 81.13 29.56 85.25 26.95 86.97 19.89 87.4 19.89"/><path class="cls-36" d="M78.19,30.6c13.28,0,24.06,8.57,24.06,19.14S91.47,68.88,78.19,68.88,54.13,60.31,54.13,49.74,64.9,30.6,78.19,30.6Z"/><ellipse class="cls-37" cx="78.19" cy="49.74" rx="19.43" ry="15.46"/><ellipse class="cls-38" cx="78.19" cy="49.74" rx="17.02" ry="13.54"/><ellipse class="cls-39" cx="78.19" cy="49.74" rx="15.58" ry="12.39"/><ellipse class="cls-40" cx="78.19" cy="49.74" rx="14.23" ry="11.32"/><path class="cls-41" d="M67.56,49c1.59-.62,4.19,1,5.8,3.65s1.63,5.26,0,5.88-4.18-1-5.79-3.65S66,49.64,67.56,49Z"/><g class="cls-42"><path class="cls-43" d="M84.4,49.74c0,6-4.87,11-11.62,12.84a21.16,21.16,0,0,0,5.41.71c9.4,0,17-6.07,17-13.55s-7.62-13.54-17-13.54a20.72,20.72,0,0,0-5.41.71C79.53,38.71,84.4,43.77,84.4,49.74Z"/></g><path class="cls-41" d="M86.8,39.83c.61-.4,2.32.43,3.81,1.86S92.81,44.6,92.2,45s-2.32-.42-3.81-1.85S86.19,40.24,86.8,39.83Z"/><ellipse class="cls-44" cx="78.19" cy="49.74" rx="18.35" ry="21.1" transform="matrix(0.02, -1, 1, 0.02, 26.72, 126.8)"/><path class="cls-45" d="M80,67.94s-22.29.25-24.67-17.41C55.35,50.53,60.17,64.44,80,67.94Z"/><path class="cls-46" d="M80.74,32.2s17.2-.19,19,13.43C99.78,45.63,96.06,34.9,80.74,32.2Z"/></g></g></svg>