<svg xmlns="http://www.w3.org/2000/svg" xmlns:xlink="http://www.w3.org/1999/xlink" viewBox="0 0 150 100"><defs><style>.cls-1{isolation:isolate;}.cls-2,.cls-3{fill:#480087;}.cls-10,.cls-14,.cls-15,.cls-16,.cls-17,.cls-19,.cls-22,.cls-23,.cls-26,.cls-28,.cls-29,.cls-3,.cls-30,.cls-31,.cls-32,.cls-33,.cls-34,.cls-35,.cls-37,.cls-42,.cls-8{mix-blend-mode:multiply;}.cls-3{opacity:0.53;}.cls-4{fill:url(#linear-gradient);}.cls-5{opacity:0.67;fill:url(#linear-gradient-2);}.cls-6{fill:url(#linear-gradient-3);}.cls-7{fill:url(#linear-gradient-4);}.cls-9{fill:url(#linear-gradient-5);}.cls-10{fill:url(#linear-gradient-6);}.cls-11{fill:url(#linear-gradient-7);}.cls-12{fill:url(#linear-gradient-8);}.cls-13{fill:url(#linear-gradient-9);}.cls-14{fill:url(#linear-gradient-10);}.cls-15{opacity:0.51;fill:url(#linear-gradient-11);}.cls-16,.cls-17,.cls-22,.cls-23{opacity:0.3;}.cls-16{fill:url(#linear-gradient-12);}.cls-17{fill:url(#linear-gradient-13);}.cls-18{fill:url(#linear-gradient-14);}.cls-19{fill:url(#linear-gradient-15);}.cls-20,.cls-21,.cls-27,.cls-40,.cls-44,.cls-45,.cls-46{mix-blend-mode:screen;}.cls-20{fill:url(#linear-gradient-16);}.cls-21{opacity:0.32;fill:url(#linear-gradient-17);}.cls-22{fill:url(#linear-gradient-18);}.cls-23{fill:url(#linear-gradient-19);}.cls-24{fill:url(#linear-gradient-20);}.cls-25{fill:url(#linear-gradient-21);}.cls-26{fill:url(#linear-gradient-22);}.cls-27{fill:url(#linear-gradient-23);}.cls-28{fill:url(#linear-gradient-24);}.cls-29{fill:url(#linear-gradient-25);}.cls-30{fill:url(#linear-gradient-26);}.cls-31{fill:url(#linear-gradient-27);}.cls-32{fill:url(#linear-gradient-28);}.cls-33{fill:url(#linear-gradient-29);}.cls-34{fill:url(#linear-gradient-30);}.cls-35{fill:url(#linear-gradient-31);}.cls-36{fill:url(#linear-gradient-32);}.cls-37{fill:url(#linear-gradient-33);}.cls-38{fill:url(#linear-gradient-34);}.cls-39{fill:url(#linear-gradient-35);}.cls-40{fill:url(#linear-gradient-36);}.cls-41{fill:#fff;}.cls-42{opacity:0.7;}.cls-43{fill:url(#linear-gradient-37);}.cls-44{fill:url(#radial-gradient);}.cls-45{fill:url(#linear-gradient-38);}.cls-46{fill:url(#linear-gradient-39);}</style><linearGradient id="linear-gradient" x1="57.73" y1="147.71" x2="50.83" y2="125.05" gradientTransform="matrix(-0.29, 0.96, -0.96, -0.29, 178.82, 37.29)" gradientUnits="userSpaceOnUse"><stop offset="0" stop-color="#ff4b00"/><stop offset="0.22" stop-color="#ff5400"/><stop offset="0.5" stop-color="#f60"/><stop offset="0.67" stop-color="#ff6f00"/><stop offset="0.93" stop-color="#ff8700"/><stop offset="1" stop-color="#ff8e00"/></linearGradient><linearGradient id="linear-gradient-2" x1="53.47" y1="125.74" x2="53.47" y2="144.29" gradientTransform="matrix(-0.29, 0.96, -0.96, -0.29, 178.82, 37.29)" gradientUnits="userSpaceOnUse"><stop offset="0" stop-color="#ff8b00"/><stop offset="0.4" stop-color="#ffa300"/><stop offset="1" stop-color="#ffce00"/></linearGradient><linearGradient id="linear-gradient-3" x1="-9.98" y1="97.54" x2="22.72" y2="97.54" gradientTransform="translate(137.33 43.89) rotate(90)" gradientUnits="userSpaceOnUse"><stop offset="0" stop-color="#9dcbc3"/><stop offset="0.2" stop-color="#9ec7c3"/><stop offset="0.39" stop-color="#a0bbc4"/><stop offset="0.58" stop-color="#a5a8c6"/><stop offset="0.77" stop-color="#aa8dc8"/><stop offset="0.95" stop-color="#b26acb"/><stop offset="1" stop-color="#b460cc"/></linearGradient><linearGradient id="linear-gradient-4" x1="-9.98" y1="97.54" x2="22.72" y2="97.54" gradientTransform="translate(137.33 43.89) rotate(90)" gradientUnits="userSpaceOnUse"><stop offset="0" stop-color="#a81ba4"/><stop offset="0.21" stop-color="#a219a4"/><stop offset="0.47" stop-color="#9313a4"/><stop offset="0.76" stop-color="#790aa4"/><stop offset="1" stop-color="#5e00a4"/></linearGradient><linearGradient id="linear-gradient-5" x1="-11.17" y1="95.31" x2="23.91" y2="95.31" gradientTransform="translate(137.33 43.89) rotate(90)" gradientUnits="userSpaceOnUse"><stop offset="0" stop-color="#7c00ff"/><stop offset="0.11" stop-color="#7d06fd"/><stop offset="0.25" stop-color="#7f15f9"/><stop offset="0.41" stop-color="#842ff1"/><stop offset="0.58" stop-color="#8a54e6"/><stop offset="0.76" stop-color="#9182d8"/><stop offset="0.95" stop-color="#9abbc8"/><stop offset="1" stop-color="#9dcbc3"/></linearGradient><linearGradient id="linear-gradient-6" x1="-11.17" y1="95.31" x2="23.91" y2="95.31" xlink:href="#linear-gradient-4"/><linearGradient id="linear-gradient-7" x1="-30.09" y1="50.98" x2="42.83" y2="50.98" gradientTransform="translate(137.33 43.89) rotate(90)" gradientUnits="userSpaceOnUse"><stop offset="0" stop-color="#f4daa2"/><stop offset="0.2" stop-color="#f2d6a0"/><stop offset="0.4" stop-color="#edca99"/><stop offset="0.59" stop-color="#e5b78f"/><stop offset="0.79" stop-color="#d99c80"/><stop offset="0.98" stop-color="#ca796d"/><stop offset="1" stop-color="#c8746a"/></linearGradient><linearGradient id="linear-gradient-8" x1="4.69" y1="98.99" x2="36.75" y2="98.99" gradientTransform="matrix(0, -1, -1, 0, 137.33, 104.69)" xlink:href="#linear-gradient-4"/><linearGradient id="linear-gradient-9" x1="4.69" y1="105.16" x2="36.75" y2="105.16" gradientTransform="matrix(0, -1, -1, 0, 137.33, 104.69)" xlink:href="#linear-gradient-4"/><linearGradient id="linear-gradient-10" x1="16.88" y1="105.16" x2="46.81" y2="105.16" gradientTransform="matrix(0, -1, -1, 0, 137.33, 104.69)" xlink:href="#linear-gradient-4"/><linearGradient id="linear-gradient-11" x1="5" y1="75.81" x2="25.85" y2="96.66" gradientTransform="matrix(0, -1, -1, 0, 137.33, 104.69)" xlink:href="#linear-gradient-4"/><linearGradient id="linear-gradient-12" x1="-261.21" y1="28.44" x2="97.17" y2="108.46" gradientTransform="translate(137.33 43.89) rotate(90)" gradientUnits="userSpaceOnUse"><stop offset="0" stop-color="#a822a4"/><stop offset="0.34" stop-color="#c155a3"/><stop offset="1" stop-color="#f4c1a2"/></linearGradient><linearGradient id="linear-gradient-13" x1="-15.98" y1="32.65" x2="28.57" y2="32.65" xlink:href="#linear-gradient-12"/><linearGradient id="linear-gradient-14" x1="-17.09" y1="10.36" x2="29.82" y2="10.36" xlink:href="#linear-gradient-4"/><linearGradient id="linear-gradient-15" x1="5.24" y1="10.4" x2="29.82" y2="10.4" xlink:href="#linear-gradient-4"/><linearGradient id="linear-gradient-16" x1="-7.22" y1="4.07" x2="6.21" y2="17.51" gradientTransform="translate(137.33 43.89) rotate(90)" gradientUnits="userSpaceOnUse"><stop offset="0" stop-color="#ff81ff"/><stop offset="0.18" stop-color="#b85db8"/><stop offset="0.36" stop-color="#783c78"/><stop offset="0.52" stop-color="#424"/><stop offset="0.67" stop-color="#1f101f"/><stop offset="0.78" stop-color="#080408"/><stop offset="0.86"/></linearGradient><linearGradient id="linear-gradient-17" x1="-26" y1="44.03" x2="-5.19" y2="64.84" gradientTransform="translate(137.33 43.89) rotate(90)" gradientUnits="userSpaceOnUse"><stop offset="0" stop-color="#fff0d2"/><stop offset="0.4" stop-color="#938b79"/><stop offset="0.82" stop-color="#2a2823"/><stop offset="1"/></linearGradient><linearGradient id="linear-gradient-18" x1="38.26" y1="44.69" x2="22.89" y2="60.06" xlink:href="#linear-gradient-12"/><linearGradient id="linear-gradient-19" x1="27.4" y1="55.75" x2="-2.25" y2="85.4" xlink:href="#linear-gradient-12"/><linearGradient id="linear-gradient-20" x1="-43.89" y1="98.66" x2="-11.83" y2="98.66" xlink:href="#linear-gradient-4"/><linearGradient id="linear-gradient-21" x1="-43.89" y1="104.82" x2="-11.83" y2="104.82" xlink:href="#linear-gradient-4"/><linearGradient id="linear-gradient-22" x1="-31.7" y1="104.82" x2="-1.77" y2="104.82" xlink:href="#linear-gradient-4"/><linearGradient id="linear-gradient-23" x1="-45.88" y1="77.18" x2="-24.71" y2="98.36" xlink:href="#linear-gradient-16"/><linearGradient id="linear-gradient-24" x1="-22.16" y1="57.45" x2="36.22" y2="57.45" gradientTransform="translate(137.33 43.89) rotate(90)" gradientUnits="userSpaceOnUse"><stop offset="0" stop-color="#a81ba4"/><stop offset="0.13" stop-color="#ab21a4"/><stop offset="0.29" stop-color="#b230a4"/><stop offset="0.47" stop-color="#be4aa3"/><stop offset="0.66" stop-color="#ce6fa3"/><stop offset="0.86" stop-color="#e39da2"/><stop offset="1" stop-color="#f4c1a2"/></linearGradient><linearGradient id="linear-gradient-25" x1="13.24" y1="37.01" x2="30.43" y2="37.01" xlink:href="#linear-gradient-24"/><linearGradient id="linear-gradient-26" x1="5.33" y1="94.07" x2="6.03" y2="94.07" xlink:href="#linear-gradient-24"/><linearGradient id="linear-gradient-27" x1="-21.02" y1="38.95" x2="7.12" y2="38.95" xlink:href="#linear-gradient-24"/><linearGradient id="linear-gradient-28" x1="5.68" y1="94.07" x2="6.03" y2="94.07" xlink:href="#linear-gradient-24"/><linearGradient id="linear-gradient-29" x1="-20.8" y1="38.73" x2="6.87" y2="38.73" xlink:href="#linear-gradient-24"/><linearGradient id="linear-gradient-30" x1="13.24" y1="36.89" x2="30.25" y2="36.89" xlink:href="#linear-gradient-24"/><linearGradient id="linear-gradient-31" x1="-21.91" y1="57.24" x2="36.22" y2="57.24" xlink:href="#linear-gradient-24"/><linearGradient id="linear-gradient-32" x1="-12.77" y1="65.52" x2="25.51" y2="65.52" xlink:href="#linear-gradient-4"/><linearGradient id="linear-gradient-33" x1="-9.09" y1="65.52" x2="21.83" y2="65.52" xlink:href="#linear-gradient-4"/><linearGradient id="linear-gradient-34" x1="-7.18" y1="65.52" x2="19.91" y2="65.52" gradientTransform="translate(137.33 43.89) rotate(90)" gradientUnits="userSpaceOnUse"><stop offset="0" stop-color="#057300"/><stop offset="0.12" stop-color="#138a00"/><stop offset="0.41" stop-color="#33bc00"/><stop offset="0.66" stop-color="#4ae100"/><stop offset="0.87" stop-color="#58f700"/><stop offset="1" stop-color="#5dff00"/></linearGradient><linearGradient id="linear-gradient-35" x1="-6.02" y1="65.52" x2="18.76" y2="65.52" gradientTransform="translate(137.33 43.89) rotate(90)" gradientUnits="userSpaceOnUse"><stop offset="0" stop-color="#b0ff00"/><stop offset="1" stop-color="#5dff00"/></linearGradient><linearGradient id="linear-gradient-36" x1="6.37" y1="51.29" x2="6.37" y2="79.75" gradientTransform="translate(137.33 43.89) rotate(90)" gradientUnits="userSpaceOnUse"><stop offset="0" stop-color="#fff"/><stop offset="0.14" stop-color="#c9c9c9"/><stop offset="0.31" stop-color="#8d8d8d"/><stop offset="0.48" stop-color="#5b5b5b"/><stop offset="0.64" stop-color="#333"/><stop offset="0.78" stop-color="#171717"/><stop offset="0.91" stop-color="#060606"/><stop offset="1"/></linearGradient><linearGradient id="linear-gradient-37" x1="6.37" y1="60.11" x2="6.37" y2="82.55" gradientTransform="translate(137.33 43.89) rotate(90)" gradientUnits="userSpaceOnUse"><stop offset="0" stop-color="#3dcd00"/><stop offset="0.08" stop-color="#44cf09"/><stop offset="0.22" stop-color="#56d421"/><stop offset="0.4" stop-color="#74db49"/><stop offset="0.6" stop-color="#9ee680"/><stop offset="0.83" stop-color="#d3f4c5"/><stop offset="1" stop-color="#fff"/></linearGradient><radialGradient id="radial-gradient" cx="-24.06" cy="133.15" r="24.26" gradientTransform="matrix(-0.75, 0.05, -0.04, -0.87, 59.46, 167.09)" gradientUnits="userSpaceOnUse"><stop offset="0" stop-color="#3dcc00"/><stop offset="0.1" stop-color="#3ac300"/><stop offset="0.26" stop-color="#33ab00"/><stop offset="0.47" stop-color="#278300"/><stop offset="0.71" stop-color="#164b00"/><stop offset="0.98" stop-color="#020500"/><stop offset="1"/></radialGradient><linearGradient id="linear-gradient-38" x1="-7.59" y1="50.55" x2="-0.8" y2="57.34" xlink:href="#linear-gradient-16"/><linearGradient id="linear-gradient-39" x1="110.74" y1="-150.92" x2="115.98" y2="-145.67" gradientTransform="translate(207.21 175.27) rotate(-90)" xlink:href="#linear-gradient-16"/></defs><g class="cls-1"><g id="Capa_1" data-name="Capa 1"><polygon class="cls-2" points="54.38 42.42 7.37 50.37 69.98 61.41 54.38 42.42"/><polygon class="cls-3" points="54.38 42.42 7.37 50.37 69.98 61.41 54.38 42.42"/><path class="cls-4" d="M39.58,42.14s-6.38-2.9-10.07.68-4.92,3.09-4.92,3.09,4.51,1.41,6.07.32c0,0-3.57,3.76-9.95,1.51,0,0,2.63,4.56,9.24,4.82,0,0-3.64.76-5.08-.18,0,0,3.53,6.51,13,5.44S39.58,42.14,39.58,42.14Z"/><path class="cls-5" d="M41.29,48.32a8.56,8.56,0,0,0-8.16-1.08c-4.55,1.82-4.54,2.75-7.42,2.3,0,0,8.89,5.38,15.24,1.66S41.29,48.32,41.29,48.32Z"/><path class="cls-6" d="M39.79,66.61c-3.48,0-6.31-7.32-6.31-16.35s2.83-16.35,6.31-16.35,6.31,7.32,6.31,16.35S43.28,66.61,39.79,66.61Z"/><path class="cls-7" d="M39.79,66.61c-3.48,0-6.31-7.32-6.31-16.35s2.83-16.35,6.31-16.35,6.31,7.32,6.31,16.35S43.28,66.61,39.79,66.61Z"/><g class="cls-8"><ellipse class="cls-9" cx="42.03" cy="50.26" rx="6.31" ry="17.54"/><ellipse class="cls-10" cx="42.03" cy="50.26" rx="6.31" ry="17.54"/></g><path class="cls-11" d="M88.12,17.66l29.45,13.75c22.11,10.33,22.11,27.22,0,37.54L87.8,82.85c-20.38,9.52-49.39.36-49.25-15.54L38.87,33C39,17.18,67.86,8.21,88.12,17.66Z"/><path class="cls-12" d="M64.35,80.26a53.32,53.32,0,0,0,5.64.27c21.88-.1-12,47.29-70-5.43C0,75.1,36,99.86,64.35,80.26Z"/><path class="cls-13" d="M38.58,67.94s7.88,10.49,25.77,12.32C36,99.86,0,75.1,0,75.1S31.54,83.16,38.58,67.94Z"/><path class="cls-14" d="M38.58,67.94s7.88,10.49,25.77,12.32C36,99.86,0,75.1,0,75.1S31.54,83.16,38.58,67.94Z"/><path class="cls-15" d="M29.39,93.25s24.41,10.41,37.43-.15C87.38,76.42,62.59,98.38,29.39,93.25Z"/><path class="cls-16" d="M70.32,19.47S37.21,33.78,47.2,57s-8.62,10.92-8.62,10.92l.33-35.88,2.8-8.52,27.34-6.16Z"/><path class="cls-17" d="M110.06,27.91s-24.18,22.34,0,44.55Z"/><path class="cls-18" d="M110.71,26.8s-15.21,23.53,0,46.91L150,50.26Z"/><path class="cls-19" d="M104,49.13s3.06,7.43,22.2,4.91S150,50.26,150,50.26L110.71,73.71S102.78,63.16,104,49.13Z"/><path class="cls-20" d="M145.72,49.13S111.26,27.42,109.64,36,145.72,49.13,145.72,49.13Z"/><path class="cls-21" d="M62.6,25.7s15.52-8.48,20.92-6.76,26.59,9,19,12.18S88.08,16,62.6,25.7Z"/><path class="cls-22" d="M67.8,78.55S83.37,78,79.52,85.64c0,0,4.35-1,14.47-5.68s.38-17.31.38-17.31-4.05,8.56-19.53,10.53Z"/><path class="cls-23" d="M47.75,50.26s-1.64,14.06,16,19.14C81.6,74.53,91.9,60.79,91.9,60.79Z"/><path class="cls-24" d="M64.68,19.74a53.45,53.45,0,0,1,5.64-.27c21.88.1-12-47.29-70,5.43C.33,24.9,36.3.14,64.68,19.74Z"/><path class="cls-25" d="M38.91,32.06s7.88-10.49,25.78-12.32C36.3.14.33,24.9.33,24.9S31.87,16.84,38.91,32.06Z"/><path class="cls-26" d="M38.91,32.06s7.88-10.49,25.78-12.32C36.3.14.33,24.9.33,24.9S31.87,16.84,38.91,32.06Z"/><path class="cls-27" d="M29.72,6.75s20.34-10.53,35.52-2S62.68,8.74,29.72,6.75Z"/><polygon class="cls-28" points="62.17 79.98 63.95 72.66 67.99 70.1 67.99 31.42 69.52 28.81 90.61 27.57 96.82 21.73 97.59 22.09 91.04 28.25 70.1 29.48 68.87 31.57 68.87 70.44 64.75 73.05 63.03 80.11 62.17 79.98"/><polygon class="cls-29" points="93.81 58.02 94.27 57.13 96.22 60.56 102.26 63.57 106.84 73.96 106.07 74.32 101.53 64.03 95.52 61.04 93.81 58.02"/><rect class="cls-30" x="38.75" y="49.22" width="9.02" height="0.7"/><polygon class="cls-31" points="92.84 29.26 99.26 22.87 100.03 23.23 93.8 29.42 100.59 50.31 103.92 50.31 103.89 51.02 99.91 51.02 92.84 29.26"/><rect class="cls-32" x="38.75" y="49.57" width="9.02" height="0.35"/><polygon class="cls-33" points="93.28 29.48 99.7 23.09 100.03 23.23 93.8 29.42 100.59 50.31 103.92 50.31 103.9 50.69 100.33 50.76 93.28 29.48"/><polygon class="cls-34" points="94.05 57.66 94.27 57.13 96.22 60.56 102.26 63.57 106.84 73.96 106.46 74.14 101.77 63.68 95.76 60.68 94.05 57.66"/><polygon class="cls-35" points="62.6 80.11 64.38 72.79 68.42 70.23 68.42 31.55 69.95 28.94 90.7 27.82 96.92 21.98 97.59 22.09 91.04 28.25 70.1 29.48 68.87 31.57 68.87 70.44 64.75 73.05 63.03 80.11 62.6 80.11"/><ellipse class="cls-36" cx="71.81" cy="50.26" rx="24.06" ry="19.14"/><path class="cls-37" d="M71.81,65.72c-10.73,0-19.43-6.93-19.43-15.46S61.08,34.8,71.81,34.8s19.43,6.92,19.43,15.46S82.54,65.72,71.81,65.72Z"/><ellipse class="cls-38" cx="71.81" cy="50.26" rx="17.02" ry="13.54"/><ellipse class="cls-39" cx="71.81" cy="50.26" rx="15.58" ry="12.39"/><ellipse class="cls-40" cx="71.81" cy="50.26" rx="14.23" ry="11.32"/><path class="cls-41" d="M82.44,51c-1.59.62-4.19-1-5.8-3.65s-1.63-5.26,0-5.88,4.18,1,5.79,3.65S84,50.36,82.44,51Z"/><g class="cls-42"><path class="cls-43" d="M65.6,50.26c0-6,4.87-11,11.62-12.84a21.16,21.16,0,0,0-5.41-.71c-9.4,0-17,6.07-17,13.55s7.62,13.54,17,13.54a20.72,20.72,0,0,0,5.41-.71C70.47,61.29,65.6,56.23,65.6,50.26Z"/></g><path class="cls-41" d="M63.2,60.17c-.61.4-2.32-.43-3.81-1.86S57.19,55.4,57.8,55s2.32.42,3.81,1.85S63.81,59.76,63.2,60.17Z"/><ellipse class="cls-44" cx="71.81" cy="50.26" rx="18.35" ry="21.1" transform="translate(19.97 120.93) rotate(-88.72)"/><path class="cls-45" d="M70,32.06s22.29-.25,24.67,17.41C94.65,49.47,89.83,35.56,70,32.06Z"/><path class="cls-46" d="M69.26,67.8s-17.2.19-19-13.43C50.22,54.37,53.94,65.1,69.26,67.8Z"/></g></g></svg>