<?xml version="1.0" encoding="utf-8"?>
<!-- Generator: Adobe Illustrator 26.3.0, SVG Export Plug-In . SVG Version: 6.00 Build 0)  -->
<svg version="1.1" id="Capa_1" xmlns="http://www.w3.org/2000/svg" xmlns:xlink="http://www.w3.org/1999/xlink" x="0px" y="0px"
	 viewBox="0 0 498 841.9" style="enable-background:new 0 0 498 841.9;" xml:space="preserve">
<style type="text/css">
	.st0{fill:#263239;}
	.st1{fill:#4B316D;}
	.st2{opacity:0.3;enable-background:new    ;}
	.st3{fill:#E0E0E0;}
	.st4{fill:#455A64;}
	.st5{opacity:0.3;}
	.st6{fill:#FFFFFF;}
	.st7{fill:#2B154C;}
</style>
<path class="st0" d="M386.9,137c1.7-0.2,3.4,0,4.9,0.8c0.1,0.1,1.2,0.6,0.5,0.2c0.4,0.2,0.8,0.5,1.2,0.8c0.4,0.3,0.8,0.6,1.2,0.9
	c0.9,0.7-0.3-0.5,0.4,0.4c1.1,1.1,1.9,2.5,2.5,3.9c0.5,1.5,0.7,3,0.5,4.6c0,0.4-0.1,0.8-0.1,1.3c0.1-0.8-0.2,0.8-0.2,0.9
	c-0.1,0.4-0.2,0.8-0.4,1.2c-0.1,0.2-0.5,1.2-0.2,0.5c-0.4,0.9-0.9,1.7-1.5,2.4c0.5-0.6-0.3,0.2-0.4,0.4c-0.4,0.4-0.8,0.7-1.2,1.1
	c-0.6,0.6,0.3-0.1-0.4,0.3c-0.3,0.2-0.7,0.4-1,0.6c-0.5,0.3-0.9,0.5-1.4,0.7c0.7-0.3-0.5,0.1-0.5,0.1c-0.4,0.1-0.9,0.2-1.3,0.3
	c-0.2,0-1.4,0.1-0.7,0.1c-0.9,0-1.8,0-2.7-0.1c-2.2-0.3-4.1,1.9-4.2,4.1c-0.1,2.3,1.6,4.2,3.9,4.4c7.9,1.1,15.7-3.8,18.9-11.4
	c3.2-7.9,1.2-16.9-5.1-22.6c-3.4-3-7.8-4.6-12.4-4.4c-2.3,0-4.1,1.8-4.2,4.1C383,134.7,384.7,137.1,386.9,137L386.9,137z"/>
<path class="st1" d="M368.2,390.8L185,393.2c-10.8,0.1-19.6-9-19.8-20.4l-3.1-269.1c-0.1-11.4,8.5-20.8,19.3-20.9l183.2-2.4
	c10.8-0.1,19.6,9,19.8,20.4l3.1,269.1C387.7,381.3,379,390.6,368.2,390.8z"/>
<path class="st0" d="M182.5,208c0,0,0-0.3-0.1-1s0-1.6,0-2.8c0-2.5-0.1-6.1-0.1-10.8c0-9.4-0.1-23-0.1-39.8c0-8.4,0-17.6,0-27.4
	c-0.1-2.6,0.4-5.1,1.6-7.4c1.2-2.3,3.1-4.2,5.4-5.5c1.1-0.6,2.4-1.1,3.6-1.3c1.3-0.2,2.6-0.3,3.9-0.2h7.8h68.2h68.2h7.8
	c1.3-0.1,2.6,0,3.9,0.2c1.3,0.2,2.5,0.7,3.6,1.3c2.3,1.3,4.1,3.2,5.4,5.5c1.2,2.3,1.7,4.9,1.6,7.4c0,9.9,0,19-0.1,27.5
	c-0.1,16.8-0.1,30.3-0.1,39.7c0,4.7-0.1,8.3-0.1,10.8c0,1.2,0,2.1,0,2.8s0,1,0,1s0-0.3,0-1s0-1.6,0-2.8c0-2.5,0-6.1-0.1-10.8
	c0-9.4-0.1-23-0.1-39.7c0-8.4,0-17.6,0-27.4c0.1-2.4-0.4-4.8-1.5-7c-1.1-2.2-2.9-4-5-5.2c-1.1-0.6-2.2-1-3.4-1.2
	c-1.2-0.2-2.5-0.3-3.7-0.2H341h-68.2h-68.2h-7.8c-1.2-0.1-2.5,0-3.7,0.2c-1.2,0.2-2.4,0.6-3.4,1.2c-2.1,1.2-3.9,3-5,5.2
	c-1.1,2.2-1.6,4.6-1.6,7c0,9.9,0,19.1-0.1,27.4c-0.1,16.8-0.1,30.3-0.1,39.8c0,4.7-0.1,8.3-0.1,10.8c0,1.2,0,2.1-0.1,2.8
	S182.5,208,182.5,208z"/>
<path class="st2" d="M377.9,382.3c0.5-0.6-8.9-113.4-8.9-113.4l-22.7-6.3l7.4,107.6l12.5,19.2C366.1,389.5,373.3,387.6,377.9,382.3z
	"/>
<ellipse class="st0" cx="343.8" cy="132.8" rx="4.1" ry="4.3"/>
<ellipse class="st0" cx="343.8" cy="147.7" rx="4.1" ry="4.3"/>
<path class="st3" d="M208,160.1c0,0-22.9,6.9-28.1,10.2s-54,54.2-55.7,55.6c-1.2,1-19-19.8-29.3-33.6l-13.3-7.9l-30.6,25l0.7,16.6
	c11.3,19,34.1,55.7,44.7,64.8c14.2,12,33.1,12.8,48.1,6.2c8.9-4,46.1-35,46.1-35l19.7-7.7L208,160.1z"/>
<path class="st0" d="M164.6,228.2c0.9,1.8,1.6,3.7,2.2,5.6l4.9,13.7l5,13.6c1.3,3.5,2.1,5.6,2,5.7c-1-1.7-1.9-3.5-2.6-5.4
	c-1.5-3.4-3.3-8.2-5.2-13.6s-3.5-10.2-4.6-13.8C165.5,232.2,165,230.2,164.6,228.2z"/>
<path class="st0" d="M172.2,277c-0.7-0.6-1.4-1.3-2-2c-1.2-1.3-3-3.4-5-6c-5.3-6.9-9.8-14.2-13.6-22c-3.8-7.8-6.9-16-9.2-24.4
	c-0.9-3.2-1.4-5.9-1.8-7.7c-0.2-0.9-0.4-1.9-0.4-2.9c0.3,0.9,0.6,1.8,0.8,2.8c0.4,1.8,1.1,4.4,2.1,7.6c2.4,8.3,5.6,16.4,9.4,24.2
	c3.8,7.7,8.3,15.1,13.4,22c1.9,2.6,3.6,4.7,4.7,6.1C171.1,275.4,171.7,276.2,172.2,277z"/>
<path class="st0" d="M122.4,241.7c-0.3,0-0.2-3.6,0.2-8s0.9-8,1.1-8s0.2,3.6-0.2,8S122.6,241.7,122.4,241.7z"/>
<path class="st1" d="M126.7,223.5c-1.2,1.1,4.2,38.8,30.8,64.8l6.3-4.8c0,0-30.1-29.9-31.6-65.5L126.7,223.5z"/>
<path class="st0" d="M94.8,192.3c0.2,0.2-9.4,7.9-21.4,17.2S51.7,226.2,51.6,226s9.4-7.9,21.4-17.2S94.7,192.1,94.8,192.3z"/>
<path class="st0" d="M61.9,242.5c0.3-0.5,0.7-1,1.2-1.5l3.5-3.9c3-3.3,7.3-7.8,12.1-12.8v0.6l-1.9-2.4l-2.7-3.5l0.6,0.1
	c-5.3,3.9-10,7.3-13.4,9.8l-4,2.8c-0.5,0.4-1,0.7-1.5,0.9c0.4-0.5,0.8-0.9,1.3-1.2l3.8-3c3.3-2.6,7.9-6.1,13.2-10l0.3-0.3l0.3,0.4
	l2.7,3.4l1.9,2.4l0.3,0.4l-0.3,0.3c-4.8,5-9.2,9.4-12.3,12.6l-3.7,3.7C62.9,241.7,62.4,242.1,61.9,242.5z"/>
<polygon class="st1" points="51.4,222.4 91.6,190.4 81.5,184.4 50.9,209.4 "/>
<path class="st0" d="M79,146.3c-0.8-1.1-1.6-2.1-2.5-3.1c-1.1,1.2-2.1,2.6-2.9,4c-4.7,8.5-5.9,13.4-5.9,13.4S57,142.9,55,138.8
	c-2-4.2-4.3-8.3-6.9-12.2c-5.1-0.6-10.2,0-15,1.8c4.6,7.9,13.3,21.5,11.5,23.4c-1.5,1.5-10-11.7-17.6-20.2c-0.3,0.2-0.6,0.4-0.9,0.7
	c-2.9,2.3-5.4,5-7.4,8.1c5.3,6.3,11.4,13.6,11.3,15.1c-0.2,1.3-7.1-5-14-10.4c-1.2,2.5-2.3,5.1-3.1,7.8c-0.5,1.6-0.9,3.3-1.3,5
	c6.8,6,16.9,11.4,12,11.2c-3-0.1-8.4-2.9-13.2-5c-0.6,3.5-1,7.1-1.3,10.6c5.9,3.9,12.7,5.9,15,9.4c2.5,3.8,8.6,16,16.3,20.5
	s10.7,4.7,10.7,4.7l30.2-22.1c0,0,2.2-14,2.8-21.4c0.4-4.7,1.8-8.8,3-12.4C83.6,152.6,81.2,149.2,79,146.3z"/>
<path class="st4" d="M15.8,145.1c-6.2-4.8-12.5-8.9-13.8-6c-2.8,6.1,0,7.5,5.5,14.8c1.1,1.5,2.4,2.8,3.8,4c0.4-1.7,0.8-3.4,1.3-5
	C13.5,150.2,14.6,147.6,15.8,145.1z"/>
<path class="st4" d="M48.1,126.6c-4.9-7.4-11.6-14.5-17.3-10.4c0,0-3,2.6,0.8,9.6c0.4,0.7,0.9,1.6,1.4,2.5
	C37.9,126.6,43,126,48.1,126.6z"/>
<path class="st4" d="M0.5,163.1C-1,168.2,1,169,7.2,173.6c0.5,0.4,1.1,0.8,1.6,1.1c0.4-3.6,0.8-7.1,1.3-10.6
	C5.4,162,1.2,160.6,0.5,163.1z"/>
<path class="st4" d="M86.9,153.5c1.3-4.1,2.3-7.6,0.9-10.4c-2.2-4.3-7-4.5-11.3,0.1c0.9,1,1.7,2,2.5,3.1
	C81.2,149.2,83.6,152.6,86.9,153.5z"/>
<path class="st4" d="M26,132.3c0.3-0.2,0.6-0.4,0.9-0.7c-2.8-3.1-5.4-5.5-7.6-6.4c-8.1-3.3-10.2,2.4-8,6.1c2.2,3.1,4.7,6.1,7.2,9
	C20.6,137.2,23.1,134.5,26,132.3z"/>
<path class="st4" d="M56.6,189.8c-0.3-0.4-0.6-0.8-0.7-1.2c-0.5-1.2-0.8-2.5-1-3.8c-0.3-1.9-0.3-3.9,0.1-5.9c0.5-2.3,1.5-4.5,3-6.4
	c2.2-2.8,5.2-4.7,8.7-5.4l-0.3,0.4c0.4-4.5,0.8-7.4,1-7.4s0,2.9-0.2,7.5v0.3l-0.3,0.1c-3.2,0.8-6.1,2.7-8.1,5.3
	c-2.5,3.3-3.7,7.4-3.3,11.6C55.7,186.5,56.1,188.2,56.6,189.8z"/>
<path class="st4" d="M50.4,154.1c0,0.2-1.8,0.6-4.7,1.9c-3.7,1.7-7.1,4-10,6.9c-3,2.9-5.4,6.4-7.2,10.1c-1.4,2.9-2,4.9-2.1,4.8
	c0-0.5,0.1-1,0.3-1.4c0.3-1.3,0.7-2.5,1.3-3.7c1.7-3.9,4.1-7.5,7.2-10.5c3-3,6.5-5.3,10.4-6.8c1.2-0.5,2.4-0.8,3.6-1.1
	C49.5,154.1,50,154.1,50.4,154.1z"/>
<path class="st0" d="M330.3,101.5c-0.3,0-0.5-9-0.5-20s0.2-20,0.5-20s0.5,9,0.5,20S330.5,101.5,330.3,101.5z"/>
<path class="st3" d="M199.6,83.1c0,0-4.7-83.1,66.4-83.1c74,0,70.4,86.7,70.4,93.4c0,0,5.4,63.3-66,64.7
	C195.5,159.6,199.6,83.1,199.6,83.1z"/>
<path class="st0" d="M204.6,80.5c0,0-6.3-62,62-62c71,0,64.7,64.8,64.7,70c0,0,2.7,48-63.4,49.4S204.6,80.5,204.6,80.5z"/>
<polygon class="st3" points="331.4,154.1 321.7,137.2 217.9,138 211.5,158.1 200,165.5 271.7,177.7 344.6,165.8 "/>
<path class="st3" d="M339.7,42.2h9.9c3.3,0,6,2.7,6,6v51.4c0,3.3-2.7,6-6,6h-9.9c-3.3,0-6-2.7-6-6V48.2
	C333.7,44.9,336.4,42.2,339.7,42.2z"/>
<path class="st0" d="M331.2,76.4c0-0.2-0.1-0.4-0.1-0.6c0-0.4-0.1-1-0.1-1.7c-0.1-1.5-0.1-3.6-0.5-6.4c-0.2-1.4-0.4-2.9-0.6-4.6
	s-0.6-3.5-1-5.4s-1-4-1.5-6.2c-0.3-1.1-0.7-2.2-1-3.3l-0.5-1.7l-0.7-1.7c-3.9-10.8-10.9-20.2-20-27.1c-10.1-7.6-23.7-12.2-38-12.6
	c-0.8,0-1.6,0-2.3,0h-0.1c-3.5-0.1-6.9,0.3-10.3,1.1c-3.3,0.7-6.6,1.7-9.7,2.9c-6,2.3-11.7,5.5-16.8,9.4c-4.6,3.7-8.7,8.1-12,13
	c-2.9,4.4-5.3,9.1-7,14c-2.4,7.3-3.9,14.8-4.3,22.5c-0.2,2.7-0.2,4.8-0.2,6.3c0,0.7,0,1.2,0,1.6c0,0.2,0,0.4,0,0.6
	c0-0.2,0-0.4,0-0.6c0-0.4,0-0.9,0-1.6c0-1.4-0.1-3.6,0-6.3c0.3-7.7,1.6-15.4,4-22.7c1.7-5,4.1-9.8,7-14.2c3.3-5,7.4-9.5,12.1-13.2
	c5.1-4.1,10.9-7.3,17-9.6c3.2-1.2,6.5-2.2,9.9-2.9c3.5-0.8,7-1.2,10.5-1.1H265c0.8,0,1.6,0,2.4,0c14.5,0.4,28.2,5.1,38.5,12.9
	c4.9,3.7,9.2,8.1,12.7,13.2c3.1,4.5,5.6,9.3,7.4,14.4l0.7,1.7l0.5,1.7l1,3.3c0.5,2.2,1,4.3,1.4,6.2s0.6,3.8,0.9,5.5
	c0.3,1.7,0.3,3.2,0.5,4.6c0.3,2.8,0.3,5,0.4,6.4c0,0.7,0,1.2,0,1.7C331.4,76,331.3,76.2,331.2,76.4z"/>
<path class="st4" d="M216.7,47.5c-7.8,13.8-9,31-5.7,46.6c15.9,1.8,32-6.4,42.2-19.4c10.2-13,14.8-33.6,14.6-50.5
	C240.6,24.1,224.5,33.7,216.7,47.5z"/>
<path class="st4" d="M281.1,25.5c13.2,20,8.2,57.3,8.2,57.3h12.4c5.3-31.8-4.8-54.2-4.8-54.2l0,0L281.1,25.5z"/>
<path class="st4" d="M306.4,73.9c1,0,1,13.4-2,21.9h8.1c1.1,0,4.1-13,2.8-21.9H306.4z"/>
<path class="st0" d="M355,60.4c0,0.3-4.8,0.5-10.6,0.5s-10.6-0.2-10.6-0.5s4.8-0.5,10.6-0.5S355,60.1,355,60.4z"/>
<path class="st0" d="M348.8,73.9c-0.1,2.3-2.1,4.1-4.4,3.9c-2.3-0.1-4.1-2.1-3.9-4.4c0.1-2.2,2-4,4.2-3.9
	C347,69.6,348.9,71.5,348.8,73.9C348.8,73.9,348.8,73.9,348.8,73.9z"/>
<path class="st0" d="M348.8,89.6c-0.1,2.3-2.1,4.1-4.4,4c-2.3-0.1-4.1-2.1-4-4.4c0.1-2.2,2-4,4.2-4C347,85.3,348.9,87.3,348.8,89.6z
	"/>
<path class="st3" d="M186.4,42.2h9.9c3.3,0,6,2.7,6,6v51.4c0,3.3-2.7,6-6,6h-9.9c-3.3,0-6-2.7-6-6V48.2
	C180.3,44.9,183,42.2,186.4,42.2z"/>
<path class="st0" d="M201.6,60.4c0,0.3-4.8,0.5-10.6,0.5s-10.6-0.2-10.6-0.5s4.8-0.5,10.6-0.5S201.6,60.1,201.6,60.4z"/>
<path class="st0" d="M195.5,73.9c-0.1,2.3-2.1,4.1-4.4,3.9c-2.3-0.1-4.1-2.1-3.9-4.4c0.1-2.2,2-4,4.2-3.9
	C193.7,69.6,195.6,71.5,195.5,73.9C195.5,73.9,195.5,73.9,195.5,73.9z"/>
<path class="st0" d="M195.5,89.6c-0.1,2.3-2.1,4.1-4.4,4c-2.3-0.1-4.1-2.1-4-4.4c0.1-2.2,2-4,4.2-4
	C193.7,85.3,195.6,87.3,195.5,89.6z"/>
<path class="st0" d="M322.2,138c-0.3,0.3-0.6,0.5-0.9,0.7c-0.6,0.4-1.5,1.1-2.8,1.8c-3.4,2.1-6.9,4.1-10.5,5.9
	c-5.3,2.7-10.9,4.8-16.6,6.5c-7,2-14.2,3.1-21.5,3c-13.2-0.2-26.3-3.3-38.2-8.9c-3.7-1.7-7.2-3.6-10.6-5.8c-1.2-0.8-2.1-1.4-2.7-1.8
	c-0.3-0.2-0.6-0.4-0.9-0.7c0.4,0.1,0.7,0.3,1,0.5c0.6,0.4,1.6,1,2.8,1.7c3.5,2,7,3.9,10.7,5.5c12,5.3,24.9,8.2,38,8.5
	c7.2,0.1,14.3-0.9,21.2-2.8c5.7-1.6,11.2-3.7,16.5-6.2c4.6-2.2,8.2-4.2,10.6-5.6l2.8-1.6C321.5,138.3,321.8,138.1,322.2,138z"/>
<path class="st0" d="M331.5,154.3c-0.3,0.4-0.6,0.7-1,1c-0.6,0.6-1.6,1.5-2.9,2.6c-3.6,3.1-7.4,6-11.3,8.6
	c-5.8,3.9-12.3,6.7-19.1,8.4c-8.2,2-16.7,3-25.2,2.9c-4.4,0-8.8-0.3-13.1-0.9c-4.1-0.6-8.1-1.5-12-2.6c-6.7-2-13.1-4.7-19.2-8.1
	c-4.1-2.3-8.2-4.8-12-7.6c-1.4-1-2.4-1.8-3.1-2.3c-0.4-0.3-0.7-0.6-1-0.9c0.4,0.2,0.8,0.4,1.1,0.7c0.7,0.5,1.8,1.2,3.2,2.2
	c3.9,2.6,7.9,5.1,12.1,7.3c6.1,3.3,12.5,5.9,19.2,7.9c3.9,1.1,7.9,2,11.9,2.6c4.3,0.6,8.7,0.8,13,0.8c8.4,0.1,16.9-0.8,25.1-2.8
	c6.7-1.6,13.2-4.4,19-8.1c4-2.6,7.8-5.4,11.5-8.3l3-2.4C330.8,154.8,331.1,154.5,331.5,154.3z"/>
<g class="st5">
	<path d="M219,140.6c12.1,15.6,31,25.1,50.1,24.9s37.9-9.8,49.8-25.5c-29.8,19.7-68.3,20.2-98.5,1.2"/>
</g>
<path class="st4" d="M478,417.7c-3.5-1.1-6.8-2.4-10.1-4c-2.4-1.1-4.8-2.1-7.2-3c-1.7,4.8-3.9,10.7,0.6,13.2
	c6.2,3.4,10.2,4.7,18.7-0.4c2.6-1.5,4.9-3.4,7-5.5C484,418.7,480.9,418.6,478,417.7z"/>
<path class="st4" d="M453.8,408.2c-4.8-1.6-9.6-3-14.5-4.1c0.3,2.7,0.5,4.7,0.6,5.4c0.6,4,2.6,10,7.5,10.2S454.1,415.8,453.8,408.2z
	"/>
<polygon class="st3" points="193.4,372.4 178.3,261.6 196.5,166.5 209.3,166.5 327.9,155.1 366.3,171.2 364.2,268.6 366.1,353.5 
	281.6,385.7 "/>
<path class="st0" d="M190,347c-0.1-0.1-0.1-0.3-0.1-0.4l-0.2-1.3c-0.2-1.2-0.5-2.8-0.8-4.9c-0.6-4.4-1.6-10.5-2.7-18.1
	c-2.2-15.4-5.3-36.4-8.6-59.7c-1.8-11.6-3.6-22.7-4.6-32.9c-1-9-1.5-18.1-1.4-27.1c0.1-6.1,0.6-12.2,1.5-18.2
	c0.3-2.1,0.7-3.8,0.9-4.9c0.1-0.5,0.2-0.9,0.3-1.3c0-0.1,0.1-0.3,0.1-0.4c0,0.1,0,0.3,0,0.4c-0.1,0.4-0.1,0.8-0.2,1.3
	c-0.1,1.1-0.5,2.8-0.7,4.9c-0.8,6-1.2,12.1-1.2,18.2c0,9,0.5,18,1.6,27c1.1,10.1,2.9,21.2,4.7,32.9c3.4,23.3,6.3,44.5,8.4,59.8
	c1,7.6,1.8,13.8,2.4,18.1c0.3,2.1,0.5,3.7,0.6,4.9c0.1,0.5,0.1,0.9,0.1,1.3C190,346.7,190,346.9,190,347z"/>
<g class="st5">
	<path d="M342.6,340.4c-2.6,5.9-7,10.8-12.7,13.8c-5.6,2.9-12,3.7-18.1,2.3c-8-1.9-14.7-7.3-21.1-12.6l6.4-6.8l25.4,4.3l14.5-6.9
		L342.6,340.4z"/>
</g>
<path class="st0" d="M366.9,362.8c-0.1,0.1-0.3,0.1-0.4,0.1l-1.3,0.2l-4.9,0.9c-4.2,0.7-10.3,1.7-17.9,2.8
	c-15.1,2.2-36.1,4.7-59.4,6.5s-44.4,2.5-59.7,2.7c-7.6,0.1-13.8,0.1-18.1,0l-4.9-0.1l-1.3,0c-0.1,0-0.3,0-0.4,0c0.1,0,0.3,0,0.4,0
	l1.3,0l4.9-0.1c4.3,0,10.4-0.1,18.1-0.3c15.3-0.3,36.4-1.2,59.6-3s44.2-4.2,59.4-6.2c7.6-1,13.7-1.9,17.9-2.5l4.9-0.7l1.3-0.1
	C366.6,362.7,366.7,362.7,366.9,362.8z"/>
<path class="st1" d="M364.6,285.9c-58.4-1.6-128.7,0.2-181.8,2.4l2.4,15.3l179.7-5.1L364.6,285.9z"/>
<path class="st0" d="M322.6,279.1c1.2-0.1,2.4-0.4,3.4-1c1.3-0.7,2.3-1.8,3-3.1c0.4-0.8,0.7-1.7,0.9-2.7c0.1-1.1,0.1-2.2,0.1-3.3
	c0-9.5-0.1-23.1-0.1-39.9c0-4.2,0-8.6,0-13.2c0-2.2-1-4.4-2.7-5.8c-0.8-0.7-1.8-1.2-2.9-1.5c-1.1-0.2-2.2-0.3-3.4-0.2l-29.9,0.1
	h-68.4c-3,0-5.6,2-6.6,4.8c-0.4,1.5-0.6,3-0.5,4.5v4.7c0,6.3,0,12.4,0,18.5s0,12,0,17.8v8.6c0,1.4,0,2.9,0,4.2
	c0.1,1.3,0.5,2.6,1.2,3.7c1.4,2.2,3.8,3.4,6.4,3.3h7.6h14.5l26,0.1l37.7,0.1L319,279h2.7C322.3,279,322.6,279,322.6,279.1
	c0,0-0.3,0-0.9,0l-2.7,0l-10.2,0.1l-37.7,0.1l-26,0.1h-14.5H223c-2.8,0.1-5.5-1.3-7.1-3.6c-0.8-1.2-1.3-2.7-1.4-4.1
	c-0.1-1.5,0-2.9,0-4.3c0-2.8,0-5.7,0-8.6c0-5.8,0-11.8,0-17.8s0-12.2,0-18.5v-4.6c-0.1-1.6,0.1-3.3,0.6-4.9c1.1-3.2,4.1-5.3,7.4-5.4
	H291h29.9c1.2-0.1,2.4,0,3.5,0.2c1.2,0.3,2.3,0.9,3.2,1.6c1.9,1.6,2.9,4,2.9,6.4c0,4.6,0,9,0,13.2c-0.1,16.8-0.1,30.4-0.1,39.9
	c0,1.1,0,2.2-0.1,3.4c-0.2,1-0.5,1.9-1,2.8c-0.7,1.3-1.8,2.4-3.2,3.1c-0.8,0.4-1.7,0.7-2.6,0.8C323.2,279,322.9,279.1,322.6,279.1z"
	/>
<path class="st0" d="M216.4,208c0.8-13.1-13.1-21.2-21.3-28.1c-4.8-4-8.9-7.9-11.1-13.6c-1.5-3.8-2.8-8.6-1.2-12.6
	c1.3-3,3.9-5.3,7-6.2c3.3-1.1,6.8-0.6,10.1,0.1c3.8,0.8,7.5,2.1,10.9,4.1c4.9,3,9.3-5,4.4-8.1c-3.5-2-7.2-3.6-11.1-4.6
	c-3.8-1.2-7.8-1.7-11.8-1.5c-9.5,0.8-17.9,7.7-18.9,18.1c-0.9,8.8,3.2,18.2,8.8,24.5c4.6,5.2,10.4,9.3,15.6,13.6
	c2.8,2.2,5.4,4.7,7.6,7.5c-0.5-0.6,0.4,0.6,0.4,0.6c0.2,0.4,0.5,0.8,0.7,1.1s0.9,2,0.6,1.2c0.2,0.7,0.4,1.3,0.5,2
	c-0.2-0.9,0,0,0,0.2c0,0.5,0,1,0,1.5C207.2,214,216,214,216.4,208L216.4,208z"/>
<polygon class="st4" points="201,202.5 222.9,202.5 222.7,223.7 202,223.7 "/>
<ellipse class="st0" cx="248.2" cy="330.2" rx="13.1" ry="13.9"/>
<ellipse class="st0" cx="291.9" cy="330.2" rx="13.1" ry="13.9"/>
<ellipse class="st0" cx="338.2" cy="330.2" rx="13.1" ry="13.9"/>
<path class="st3" d="M285,335.3c14.4,20.9,43.4,24,59.2,2.7c6.9-9.2-5.4-22.4-12.4-13.1c-8.1,11-23.4,13.2-31.8,1
	C293.5,316.4,278.4,325.6,285,335.3L285,335.3z"/>
<path class="st0" d="M285,335.3c-0.1-0.1-0.2-0.2-0.2-0.4l-0.6-1.1c-0.3-0.6-0.6-1.3-0.7-2c-0.2-1-0.2-1.9,0-2.9
	c0.5-2.6,2.2-4.8,4.6-6c1.4-0.8,2.9-1.2,4.5-1.3c1.8,0,3.6,0.4,5.1,1.4c1.6,1,2.8,2.8,4,4.3c0.7,0.8,1.4,1.5,2.1,2.2
	c0.8,0.7,1.7,1.3,2.5,1.8c3.9,2.3,8.5,2.9,12.9,1.8c4.9-1.3,9.2-4.2,12.2-8.3c0.4-0.5,0.9-1,1.4-1.6c0.5-0.5,1.1-0.9,1.7-1.3
	c1.3-0.7,2.7-0.9,4.2-0.6c2.9,0.4,5.2,2.6,6.7,5.2c1.5,2.7,1.8,5.8,0.8,8.7c-1,2.9-3.1,4.8-4.8,6.9c-3.6,3.7-7.9,6.6-12.8,8.5
	c-4.3,1.7-8.9,2.4-13.5,2.2c-4-0.2-8-1-11.7-2.5c-5.5-2.1-10.4-5.5-14.3-9.9c-1.1-1.2-2.1-2.4-3-3.8c-0.3-0.4-0.5-0.8-0.7-1
	C285.1,335.5,285.1,335.4,285,335.3c0,0,0.1,0.1,0.3,0.3s0.5,0.6,0.8,1c1,1.3,2,2.5,3.1,3.6c4,4.2,8.9,7.5,14.3,9.5
	c3.7,1.4,7.5,2.2,11.5,2.4c4.5,0.2,9-0.6,13.2-2.2c4.7-1.8,9-4.7,12.4-8.3c1.7-2,3.8-4,4.6-6.5c0.9-2.6,0.6-5.5-0.8-7.9
	c-1.3-2.4-3.5-4.4-6-4.8c-1.2-0.2-2.5,0-3.6,0.5c-0.5,0.3-1,0.7-1.5,1.1c-0.4,0.5-0.9,0.9-1.3,1.5c-3.1,4.2-7.6,7.2-12.7,8.5
	c-4.5,1.2-9.4,0.5-13.4-1.9c-0.9-0.6-1.8-1.2-2.6-1.9c-0.8-0.7-1.5-1.5-2.2-2.3c-1.3-1.6-2.4-3.2-3.9-4.2c-1.4-0.9-3.1-1.4-4.8-1.4
	c-1.5,0.1-3,0.5-4.3,1.2c-2.3,1.1-3.9,3.2-4.5,5.6c-0.2,0.9-0.2,1.8-0.1,2.8c0.2,0.7,0.4,1.3,0.6,2c0.2,0.5,0.4,0.8,0.6,1.1
	S285.1,335.3,285,335.3z"/>
<path class="st0" d="M236.1,258.2c-0.1,1.8-1.6,3.2-3.4,3.1s-3.2-1.6-3.1-3.4c0.1-1.7,1.5-3.1,3.2-3.1
	C234.7,254.8,236.1,256.4,236.1,258.2z"/>
<path class="st0" d="M247.2,258.2c-0.1,1.8-1.6,3.2-3.4,3.1s-3.2-1.6-3.1-3.4c0.1-1.7,1.5-3.1,3.2-3.1
	C245.8,254.8,247.2,256.4,247.2,258.2z"/>
<path class="st0" d="M257.9,258.2c-0.1,1.8-1.6,3.2-3.4,3.1s-3.2-1.6-3.1-3.4c0.1-1.7,1.5-3.1,3.2-3.1
	C256.5,254.8,257.9,256.4,257.9,258.2z"/>
<path class="st0" d="M268.6,258.2c-0.1,1.8-1.6,3.2-3.4,3.1c-1.8-0.1-3.2-1.6-3.1-3.4c0.1-1.7,1.5-3.1,3.2-3.1
	C267.2,254.8,268.6,256.4,268.6,258.2z"/>
<path class="st6" d="M263.8,236.5h-29.4c-2.2-0.1-3.9-1.9-3.9-4.1l0,0c-0.1-2.2,1.7-4.1,3.9-4.1c0,0,0,0,0,0h29.4
	c2.2,0.1,3.9,1.9,3.9,4.1c0,0,0,0,0,0l0,0C267.8,234.6,266,236.4,263.8,236.5z"/>
<path class="st7" d="M236.7,245.1c-0.1,1.8-1.6,3.2-3.4,3.1c-1.8-0.1-3.2-1.6-3.1-3.4c0.1-1.7,1.5-3.1,3.3-3.1
	C235.3,241.8,236.7,243.3,236.7,245.1C236.7,245.1,236.7,245.1,236.7,245.1z"/>
<path class="st6" d="M247.7,245.1c-0.1,1.8-1.6,3.1-3.4,3c-1.8-0.1-3.1-1.6-3-3.4c0.1-1.7,1.5-3,3.2-3.1
	C246.3,241.8,247.8,243.3,247.7,245.1C247.7,245.1,247.7,245.1,247.7,245.1z"/>
<path class="st7" d="M258.4,245.1c-0.1,1.8-1.6,3.1-3.4,3c-1.8-0.1-3.1-1.6-3-3.4c0.1-1.7,1.5-3.1,3.2-3.1
	C257,241.8,258.5,243.3,258.4,245.1C258.4,245.1,258.4,245.1,258.4,245.1z"/>
<path class="st6" d="M269.1,245.1c-0.1,1.8-1.6,3.1-3.4,3c-1.8-0.1-3.1-1.6-3-3.4c0.1-1.7,1.5-3.1,3.2-3.1
	C267.7,241.8,269.2,243.3,269.1,245.1C269.1,245.1,269.1,245.1,269.1,245.1z"/>
<path class="st4" d="M291.7,225.6h20.4c0.9,0,1.7,0.7,1.7,1.7v21.8c0,0.9-0.7,1.7-1.7,1.7h-20.4c-0.9,0-1.7-0.7-1.7-1.7v-21.8
	C290.1,226.3,290.8,225.6,291.7,225.6z"/>
<path class="st0" d="M312.5,262.6h-21.1c-1.9-0.1-3.4-1.6-3.3-3.5l0,0c-0.1-1.9,1.4-3.5,3.3-3.5c0,0,0,0,0,0h21.1
	c1.9,0.1,3.4,1.6,3.3,3.5c0,0,0,0,0,0l0,0C315.9,261,314.4,262.6,312.5,262.6z"/>
<path class="st2" d="M220.8,279c0,0,0.6,2.2,7.1,3.3s86.5,0.9,91.2,0c2.8-0.5,5.3-1.9,7.3-3.9L220.8,279z"/>
<path class="st3" d="M471.4,323.9c-4.2-10.5-29.3-54.9-37-67.9s-30-38.1-30-38.1l-21.3-29.7c-4.7-6.5-10.3-12.3-16.8-17.1l0,0
	l-15,51.8l5.5,44l25.8,14.6l15.9,26.6l31.3,51.5c1.8,1.3,3.8,2.4,5.9,3.3l38.1-25C473.8,337.9,475.4,334,471.4,323.9z"/>
<path class="st0" d="M412.8,244.9c-0.1,0.7-0.2,1.3-0.4,1.9c-0.2,0.7-0.4,1.5-0.7,2.2c-0.3,1-0.7,1.9-1.1,2.8
	c-1.1,2.4-2.3,4.7-3.8,6.9c-1.8,2.6-3.7,5.2-5.8,7.5c-3.8,4.3-8,8.1-12.5,11.6c-1.7,1.3-3.2,2.3-4.2,2.9c-0.5,0.4-1.1,0.7-1.6,0.9
	c-0.1-0.1,2.1-1.7,5.5-4.4c4.4-3.5,8.5-7.5,12.2-11.7c2.1-2.4,4-4.8,5.8-7.4c1.4-2.1,2.7-4.3,3.9-6.6
	C411.9,247.5,412.6,244.8,412.8,244.9z"/>
<path class="st0" d="M376.9,233.6c0.1,0.1-0.7,2.1-1.8,5.4s-2.3,8-3.6,13.2s-2.7,9.9-3.9,13.2c-0.5,1.3-1,2.6-1.6,3.9
	c-0.2,0.5-0.4,0.9-0.8,1.3c-0.1-0.1,0.7-2.1,1.7-5.4s2.3-8,3.6-13.2s2.7-9.9,3.9-13.2c0.5-1.3,1-2.6,1.6-3.9
	C376.5,234,376.8,233.6,376.9,233.6z"/>
<path class="st0" d="M368,180.4c0,0.1,0,0.3,0,0.4c0,0.4,0,0.8-0.1,1.3c-0.1,1.2-0.2,2.9-0.4,5s-0.3,4.9-0.5,8s-0.3,6.7-0.5,10.6
	c-0.5,15.7-0.9,37.3-0.9,61.2s0.1,45.6,0.3,61.3c0.1,7.8,0.1,14.1,0.2,18.6c0,2.1,0,3.8,0,5c0,0.5,0,1,0,1.3c0,0.1,0,0.3,0,0.5
	c0-0.1-0.1-0.3-0.1-0.5c0-0.4,0-0.8-0.1-1.3c0-1.2-0.1-2.9-0.2-5c-0.1-4.5-0.3-10.8-0.5-18.6c-0.3-15.7-0.6-37.3-0.6-61.3
	s0.4-45.6,1.1-61.2c0.2-3.9,0.4-7.4,0.6-10.6s0.5-5.8,0.6-8l0.6-5c0.1-0.5,0.1-0.9,0.2-1.3C367.9,180.7,368,180.5,368,180.4z"/>
<path class="st1" d="M452.2,332c-1.1,0.4-19.7,8.6-22.5,27.6c2.1,1.5,4.4,2.7,6.8,3.7l37.3-25.3c0.5-2.2,0.4-4.5-0.2-6.7
	C473.6,331.3,471.1,325.6,452.2,332z"/>
<path class="st0" d="M435.9,365.4c0,0,3.4,40.1,4,44.1s2.6,10,7.5,10.2c5.5,0.3,7.1-4.8,6.3-14.1s-0.9-15.2,0.8-14s8.2,9.7,7.6,14.4
	s-6.9,14.5-0.8,17.8s10.2,4.7,18.7-0.4c5-2.9,9.1-7,12-12c0,0,7.1-15.5,5.8-21.8c-0.5-2.4-14.7-32.5-14.7-32.5l-9.9-17.8
	c0,0-4.4-9.1-21.5,0.7C433.7,350.4,435.5,360.5,435.9,365.4z"/>
<path class="st1" d="M372.7,275.9c12.6-17.7,23.9-36.3,33.7-55.7l5.5,6.4c-9.5,19.6-20.6,37.2-33.7,52.4L372.7,275.9z"/>
<path class="st0" d="M465,311c-0.6,0.1-1.2,0.1-1.8,0.1c-1.7,0.2-3.3,0.5-4.9,1c-5.4,1.6-10.7,3.7-15.7,6.2l-0.4,0.2l-0.2-0.3
	l-2.1-3l-1.6-2.4l-0.2-0.3l0.3-0.3c2.4-2.4,5.2-4.2,8.4-5.3c2.5-0.9,5-1.6,7.6-2.1c1.7-0.3,3.4-0.5,5.2-0.6c0.6-0.1,1.3-0.1,1.9,0
	c-0.6,0.2-1.2,0.3-1.9,0.3c-1.2,0.2-3,0.5-5.1,0.9c-2.5,0.5-5,1.3-7.4,2.2c-3,1.2-5.7,2.9-8,5.2v-0.6l1.6,2.4l2.1,3l-0.6-0.1
	c5.1-2.5,10.5-4.5,16-6c1.6-0.4,3.3-0.6,5-0.7c0.5,0,0.9,0,1.4,0.1C464.9,310.9,465,311,465,311z"/>
<path class="st0" d="M472.4,326.7c0,0.2-3.3-0.7-8.6-0.7c-3.1,0-6.2,0.5-9.2,1.4c-3.7,1.1-7.2,2.8-10.4,5c-6,4-10.8,9.5-14.1,15.9
	c-2.6,5-3.4,8.4-3.5,8.4c0.1-0.8,0.3-1.6,0.5-2.4c0.6-2.2,1.5-4.3,2.4-6.3c3.2-6.6,8.1-12.3,14.2-16.4c3.3-2.2,6.9-3.9,10.6-5
	c5.2-1.5,10.6-1.7,15.8-0.5C470.9,326.2,471.7,326.4,472.4,326.7z"/>
<path class="st4" d="M474.4,387.4c0.4,0.4,0.7,0.9,0.9,1.4c0.7,1.3,1.3,2.7,1.9,4.1c0.8,2.1,1.3,4.4,1.6,6.6
	c0.3,2.8,0.1,5.6-0.6,8.4c-0.8,2.6-2,5.2-3.6,7.4c-1.2,1.8-2.6,3.6-4,5.3c-1.2,1.4-2.3,2.5-3,3.3s-1.2,1.1-1.2,1s1.5-1.8,3.8-4.7
	c1.1-1.5,2.5-3.3,3.8-5.4c1.5-2.2,2.6-4.7,3.4-7.2c1.6-5.5,0.4-10.9-0.7-14.4S474.3,387.5,474.4,387.4z"/>
<path class="st4" d="M490,389.4c0.3,0.4,0.5,0.8,0.6,1.3c0.4,1.2,0.8,2.5,1,3.7c0.4,1.9,0.5,3.8,0.5,5.7c0,2.4-0.3,4.7-0.8,7
	c-0.5,2.3-1.3,4.5-2.3,6.6c-0.8,1.7-1.8,3.3-2.9,4.9c-0.7,1-1.6,2-2.5,2.8c-0.6,0.6-1,0.9-1.1,0.9s1.3-1.5,3-4.1
	c1-1.5,1.9-3.1,2.7-4.8c1.9-4.2,2.9-8.7,3-13.2c0-1.9-0.1-3.7-0.3-5.6C490.5,391.3,489.8,389.4,490,389.4z"/>
<path class="st4" d="M475.4,379.7c0.2-0.1,0.9,1,0.7,2.6s-1.2,2.4-1.4,2.2s0.3-1.1,0.5-2.4S475.2,379.9,475.4,379.7z"/>
<path class="st4" d="M489.8,381.9c0.2-0.2,0.9,0.5,1.1,1.8s-0.2,2.2-0.5,2.1s-0.2-0.9-0.4-1.9S489.6,382.1,489.8,381.9z"/>
<path class="st3" d="M215.7,695.2l27.9,69.5l-13.1,52.9c-1.7,11.1,5.5,21.5,16.4,23.9c0.9,0.2,1.7,0.3,2.6,0.3l0,0
	c2.6-0.2,9.5-5.1,10.9-7.3c15.8-24.5,37.9-56.6,34.7-67.8c-1.8-6.4-16.1-82.5-16.1-82.5L215.7,695.2z"/>
<path class="st0" d="M264,732.6c0.2,0.3,0.4,0.6,0.6,1c0.3,0.7,0.8,1.7,1.4,3c1.1,2.6,2.8,6.4,4.4,11.3c2,5.7,3.1,11.7,3.2,17.7
	c0,3.6-0.5,7.1-1.5,10.6c-1.1,3.6-2.5,7.2-4.1,10.6c-3.3,7-5.2,14.2-8.1,20.4s-7.2,11.1-12,13.4c-3.8,1.9-8.2,2.1-12.1,0.7
	c-1.1-0.4-2-0.9-2.9-1.6c-0.6-0.5-0.9-0.8-0.8-0.8c1.2,0.8,2.5,1.5,3.9,2c3.9,1.2,8,0.8,11.6-1.1c4.5-2.2,8.6-7,11.4-13.1
	s4.7-13.3,8-20.4c1.6-3.4,2.9-6.9,4.1-10.5c1-3.3,1.5-6.8,1.5-10.2c-0.1-5.9-1.1-11.8-2.9-17.4c-1.5-4.8-3-8.7-4-11.3
	C264.9,735.4,264.4,734,264,732.6z"/>
<path class="st0" d="M265.3,766.6c-0.1,0.3-4.9-1.1-11-1.7s-11.1-0.1-11.1-0.5s5-1.3,11.2-0.7S265.5,766.3,265.3,766.6z"/>
<path class="st0" d="M257.7,782.5c-0.2,0.3-4-1.6-9.1-2.9s-9.4-1.3-9.4-1.7s4.4-0.8,9.7,0.5S257.9,782.2,257.7,782.5z"/>
<path class="st0" d="M255.4,799.9c-0.2,0.3-3.7-2.3-8.5-4.4s-9.1-2.9-9.1-3.2s4.5-0.1,9.5,2.1S255.6,799.7,255.4,799.9z"/>
<path class="st0" d="M233.3,831c1.1,0.6,2.3,1.2,3.5,1.6c3.4,0.9,7,0.7,10.3-0.6c4.2-1.5,8.2-5.1,11.9-9.7
	c3.6-4.6,7.4-9.9,11.2-15.6c6.3-9.8,11.9-20,16.7-30.6c1.9-4.1,3.2-7.4,4.2-9.7c0.4-1.2,0.9-2.4,1.6-3.6c-0.3,1.3-0.6,2.5-1.1,3.7
	c-0.8,2.4-2.1,5.8-3.8,9.9c-4.6,10.8-10.1,21.1-16.5,30.9c-3.8,5.7-7.6,11-11.3,15.7s-8,8.3-12.5,9.8c-3.4,1.3-7.2,1.4-10.7,0.2
	c-0.9-0.3-1.8-0.8-2.6-1.3C233.5,831.2,233.2,831,233.3,831z"/>
<path class="st0" d="M288.9,769.5c-0.2,0-0.5-2.2-1.2-5.7s-1.6-8.4-2.9-13.7s-2.8-10.1-3.9-13.5s-1.8-5.5-1.6-5.6s1.1,2,2.5,5.3
	c3.4,8.8,5.7,18,6.8,27.3C289,767.3,289.1,769.5,288.9,769.5z"/>
<path class="st3" d="M422,660.5l-15,73.7l22.6,50c3.7,10.6-1.5,22.2-11.9,26.5c-0.8,0.4-1.7,0.6-2.5,0.7l0,0
	c-2.6,0.2-10.4-3.3-12.1-5.2c-20.1-21.5-47.7-49.2-46.6-60.9c0.6-6.6,0.9-84.4,0.9-84.4L422,660.5z"/>
<path class="st0" d="M381,705.9c0,0.4,0,0.8-0.1,1.2c-0.2,0.9-0.4,2-0.6,3.2c-0.5,2.8-1.3,6.9-1.9,11.9c-0.8,5.9-0.7,11.9,0.3,17.7
	c0.7,3.4,1.8,6.8,3.4,9.9c1.8,3.3,3.7,6.6,5.9,9.7c4.6,6.4,7.8,13.3,11.6,18.8s8.7,9.5,13.6,10.9c3.9,1.2,8,0.8,11.7-1
	c1.3-0.7,2.5-1.6,3.5-2.7c-0.2,0.3-0.4,0.7-0.7,0.9c-0.8,0.8-1.6,1.5-2.6,2.1c-3.7,2.1-8.1,2.6-12.1,1.4
	c-5.2-1.4-10.3-5.5-14.3-11.1s-7.2-12.4-11.7-18.7c-2.2-3.1-4.2-6.4-6-9.8c-1.6-3.2-2.7-6.7-3.4-10.2c-1-6-1-12,0-18
	c0.7-5.1,1.7-9.1,2.3-11.9c0.3-1.4,0.6-2.5,0.8-3.2C380.7,706.7,380.8,706.3,381,705.9z"/>
<path class="st0" d="M385.9,739.8c-0.2-0.3,4.2-3.1,10.2-4.7s11.2-1.6,11.2-1.3s-5,0.8-10.9,2.4S386,740.1,385.9,739.8z"/>
<path class="st0" d="M396.3,754.2c-0.2-0.2,3-3.3,8-5.5s9.5-2.5,9.5-2.2s-4.2,1.2-9,3.3S396.5,754.5,396.3,754.2z"/>
<path class="st0" d="M401.8,771c-0.2-0.2,2.4-3.8,7-6.8s9-4.1,9-3.8s-4,1.8-8.4,4.8S402,771.2,401.8,771z"/>
<path class="st0" d="M429.3,797.8c-0.2,0.3-0.4,0.6-0.6,0.8c-0.7,0.7-1.5,1.3-2.3,1.8c-3.3,1.8-7,2.3-10.6,1.7
	c-4.6-0.7-9.5-3.6-14.1-7.5s-9.3-8.5-14-13.5c-8.1-8.6-15.4-17.8-21.9-27.6c-2.5-3.8-4.3-6.9-5.6-9.1c-0.7-1.1-1.3-2.3-1.8-3.5
	c0.8,1,1.5,2.1,2.2,3.2c1.4,2.1,3.3,5.2,5.9,8.8c6.7,9.6,14,18.7,22,27.3c4.7,5,9.4,9.5,13.9,13.5s9.1,6.7,13.5,7.5
	c3.5,0.7,7,0.3,10.2-1.2C427.2,799.4,428.3,798.6,429.3,797.8z"/>
<path class="st0" d="M363.1,746.9c-0.1,0-0.5-2.2-0.7-5.8c-0.3-4.7-0.3-9.5,0-14.2c0.3-4.7,0.9-9.4,1.8-14.1
	c0.7-3.6,1.3-5.7,1.5-5.7s-0.1,2.2-0.6,5.8s-1,8.5-1.4,14s-0.4,10.5-0.4,14.1S363.3,746.9,363.1,746.9z"/>
<path class="st4" d="M387,411.2c0,0,13.4-1.3,18.3,4.8s23.7,37.2,20.9,40.1s-8.1,9.9-8.1,9.9L387,411.2z"/>
<path class="st3" d="M282.7,652c0.1-1.2-11-45.2-11-45.2l-1-53.5l2.8-35.2c0,0,9-4.1,1.8-14.5l3.9-18.3L190.8,370
	c0,0-4.5,31-6.8,66.8c-0.5,8.4-9.9,50.9-7.2,78.3s15,77.6,15.5,86.4s15.2,62.7,22.7,80.9c8.8,21.6,22.6,65.9,22.6,65.9l55.8-13.9
	C293.4,734.4,282.6,653.2,282.7,652z"/>
<path class="st3" d="M389.9,414c2.3,1.1,45.8,73.7,50.7,93c4.9,19.3-0.7,67.7-2.3,76.7s-23.8,121.9-24.6,125s-34.7,16.6-58.2,1
	l-3-42.9c0,0-4-46.5-3.2-59.5l0.8-13.1l0.4-45.4l-9.9-26.8c-3-3-4.1-6.2-3.5-9.6l-6.2-17L309,478.8c0,0-3-21.1,15.4-49.2
	s53.4-39.2,53.4-39.2L389.9,414z"/>
<path class="st0" d="M184.3,561.2c0.9-0.7,2-1.3,3.1-1.6c2.9-1.2,6-2.2,9.1-2.9c7.9-1.9,19.1-3.1,31.4-2.6c3.1,0.2,6.1,0.3,9,0.6
	c2.8,0.3,5.5,0.8,8.3,1.4c4.6,1.1,9.1,2.5,13.6,4.2c3,1.1,5.9,2.4,8.7,3.9c1.1,0.5,2.1,1.1,3,1.8c-1.1-0.4-2.2-0.8-3.2-1.4
	c-2-0.9-5-2.2-8.8-3.5c-4.4-1.6-8.9-2.9-13.5-3.9c-5.6-1.1-11.3-1.8-17.1-1.9c-10.4-0.5-20.9,0.2-31.1,2.3c-3.1,0.6-6.1,1.5-9.1,2.5
	C185.5,560.8,184.4,561.3,184.3,561.2z"/>
<path class="st1" d="M186.7,572.4c0,0,21.1-8.5,44.6-6.6s39.8,8,39.8,8l0.1,7c0,0-27.1-5.9-39-6.5c-14.8-0.8-44.1,5.5-44.1,5.5
	L186.7,572.4z"/>
<path class="st0" d="M336.5,512.4c0.6-1.2,1.2-2.3,2-3.4c0.8-1.3,1.7-2.6,2.6-3.8c1.1-1.4,2.2-3.1,3.8-4.8c1.6-1.9,3.2-3.7,5-5.5
	c1.8-2,4-3.8,6.3-5.8c10.1-8.4,21.8-14.7,34.4-18.5c2.9-0.8,5.7-1.6,8.3-2.1c2.4-0.5,4.9-0.9,7.4-1.2c2.3-0.4,4.3-0.4,6.2-0.5
	c1.5-0.1,3.1-0.2,4.6-0.1c1.3,0,2.7,0,4,0.2c-1.3,0.2-2.7,0.3-4,0.3c-1.3,0-2.8,0.1-4.6,0.3s-3.9,0.3-6.1,0.7s-4.7,0.7-7.3,1.4
	s-5.3,1.4-8.2,2.2c-6.2,2-12.2,4.5-17.9,7.6c-5.7,3.1-11,6.7-16.1,10.8c-2.3,1.9-4.5,3.7-6.3,5.6s-3.6,3.6-5.1,5.3s-2.8,3.3-3.9,4.7
	c-1,1.2-1.9,2.4-2.8,3.7C338.2,510.4,337.4,511.4,336.5,512.4z"/>
<path class="st0" d="M341.2,522.4c0.6-1.2,1.2-2.3,2-3.4c0.8-1.3,1.7-2.6,2.6-3.8c1.1-1.4,2.2-3.1,3.8-4.8c1.6-1.9,3.2-3.7,5-5.5
	c1.8-2,4-3.8,6.3-5.8c5.1-4.2,10.5-7.8,16.2-11c5.8-3.1,11.9-5.6,18.2-7.5c2.9-0.8,5.7-1.6,8.3-2.1c2.4-0.5,4.9-0.9,7.4-1.2
	c2.3-0.4,4.3-0.4,6.1-0.5c1.5-0.1,3.1-0.2,4.7-0.1c1.3,0,2.7,0,4,0.2c-1.3,0.2-2.7,0.3-4,0.3c-1.5,0-3.1,0.1-4.6,0.3
	c-1.8,0.2-3.9,0.3-6.1,0.7s-4.7,0.7-7.3,1.4s-5.3,1.4-8.2,2.2c-12.4,3.9-23.9,10.1-34,18.3c-2.2,2-4.5,3.8-6.3,5.6s-3.6,3.6-5.1,5.3
	c-1.5,1.7-2.8,3.3-3.9,4.7c-1,1.2-1.9,2.4-2.8,3.7C342.9,520.4,342.1,521.5,341.2,522.4z"/>
<polygon class="st3" points="370.3,366.6 302.8,357.6 190.8,370 192.1,416.7 189.5,419.2 279.8,487.7 289.2,479.4 309,478.8 
	379.1,394 "/>
<path class="st0" d="M382.2,400.9c-1.4,0.4-2.8,0.7-4.2,1c-3.8,0.9-7.5,2.1-11.2,3.5c-12,4.5-22.9,11.7-31.8,21
	c-8.8,9.3-15.3,20.6-19.1,32.8c-1.2,3.7-2.1,7.4-2.7,11.2c-0.2,1.4-0.4,2.8-0.8,4.2c-0.1-0.4-0.1-0.7,0-1.1c0.1-0.7,0.1-1.8,0.3-3.1
	c0.5-3.9,1.3-7.7,2.4-11.4c3.6-12.4,10.1-23.9,19-33.3c9-9.4,20.1-16.6,32.4-21c3.7-1.3,7.5-2.4,11.4-3.1c1.4-0.3,2.4-0.4,3.2-0.5
	C381.4,400.9,381.8,400.8,382.2,400.9z"/>
<path class="st0" d="M285,483c-0.3-0.3-0.5-0.6-0.7-0.9c-0.5-0.7-1.1-1.6-1.8-2.7s-1.7-2.6-2.9-4.2s-2.4-3.5-4-5.4s-3.3-4.1-5.3-6.2
	s-4.2-4.4-6.5-6.7c-10.5-9.8-22.6-17.7-35.8-23.3c-3.1-1.2-6-2.4-8.8-3.3c-2.8-1-5.4-1.7-7.8-2.4s-4.6-1.1-6.6-1.5s-3.6-0.7-5-0.9
	l-3.2-0.5c-0.4,0-0.8-0.1-1.1-0.3c0.4-0.1,0.8-0.1,1.1,0l3.2,0.3c1.7,0.1,3.4,0.4,5.1,0.7c2,0.4,4.2,0.7,6.7,1.4s5.1,1.3,8,2.2
	s5.8,2,8.9,3.2c13.4,5.5,25.7,13.5,36.1,23.5c2.4,2.4,4.6,4.5,6.5,6.8s3.7,4.3,5.2,6.3s2.8,3.9,3.9,5.5c1,1.4,1.8,2.9,2.6,4.4
	c0.6,1.1,1.1,2,1.6,2.8C284.8,482.3,284.9,482.6,285,483z"/>
<path class="st0" d="M177.3,493.3c1.2-0.7,2.4-1.3,3.6-1.9c1.4-0.7,2.9-1.4,4.4-1.9c2-0.8,4-1.5,6-2.1l3.6-1.1
	c1.2-0.4,2.6-0.6,3.9-0.9c2.7-0.7,5.6-1,8.7-1.5c13.5-1.6,27.2-0.4,40.2,3.6c3,1,5.8,1.9,8.3,3c1.3,0.5,2.5,1,3.7,1.6l3.3,1.7
	c1.9,0.9,3.7,2,5.5,3.1c1.4,0.8,2.7,1.7,4,2.6c1.1,0.7,2.2,1.6,3.2,2.5c-1.2-0.6-2.4-1.3-3.5-2.1c-1.3-0.9-2.7-1.7-4.1-2.5
	c-1.6-0.9-3.4-2-5.6-3l-3.3-1.6c-1.1-0.5-2.4-1-3.7-1.5c-2.5-1.1-5.3-1.9-8.3-2.9c-12.9-3.8-26.4-5-39.8-3.5c-3.1,0.4-6,0.7-8.7,1.4
	c-1.4,0.3-2.7,0.5-3.9,0.8l-3.5,1c-2.3,0.5-4.2,1.3-6,1.9c-1.5,0.5-3,1-4.4,1.7C179.9,492.5,178.6,492.9,177.3,493.3z"/>
<path class="st0" d="M176.3,511c1.1-0.7,2.3-1.2,3.6-1.7l2-0.9l2.4-0.8c1.9-0.7,3.9-1.3,5.9-1.9l3.5-0.9c1.2-0.3,2.5-0.5,3.8-0.8
	c2.6-0.6,5.5-0.8,8.5-1.2c6.6-0.6,13.2-0.6,19.7-0.1c6.6,0.6,13.1,1.7,19.4,3.4c2.9,0.8,5.7,1.6,8.2,2.5s4.9,1.8,7,2.7
	c2.1,0.9,4,1.8,5.6,2.6c1.4,0.6,2.8,1.4,4.1,2.2c1.2,0.6,2.3,1.3,3.4,2.1c-1.2-0.5-2.4-1-3.6-1.7c-1.1-0.6-2.5-1.3-4.2-2
	s-3.5-1.6-5.6-2.4s-4.4-1.7-7-2.5s-5.3-1.6-8.2-2.4c-6.3-1.5-12.8-2.6-19.3-3.1c-6.5-0.5-13-0.5-19.5,0c-3,0.4-5.8,0.6-8.4,1.1
	c-1.3,0.2-2.6,0.4-3.8,0.7l-3.5,0.8c-2.2,0.5-4.2,1.1-5.9,1.7L182,509l-2,0.8C178.8,510.3,177.6,510.7,176.3,511z"/>
<path class="st0" d="M182,536.7c-0.1-0.1,2.2-1.9,6.1-4.5s9.2-6.3,15.1-10.3l12-7.8l-0.2,0.4c-0.1-3.5-0.2-6.3-0.2-8.3
	c-0.1-1.1,0-2.1,0.1-3.2c0.3,1,0.4,2.1,0.5,3.1c0.2,2,0.4,4.9,0.7,8.3v0.3l-0.2,0.2l-11.9,8c-5.9,4-11.4,7.5-15.4,10
	S182.1,536.8,182,536.7z"/>
<path class="st0" d="M203.5,650.1c0.6-0.9,1.3-1.7,2.1-2.4c0.8-0.9,1.7-1.8,2.6-2.6c1.1-1,2.3-2.1,3.8-3.2c1.6-1.3,3.2-2.4,4.9-3.5
	c1.8-1.2,3.8-2.3,5.9-3.5c4.7-2.4,9.6-4.4,14.7-5.8c5.1-1.4,10.3-2.2,15.6-2.6c2.4-0.1,4.7-0.2,6.9-0.1c2,0,4,0.2,6,0.5
	c1.8,0.2,3.5,0.5,4.9,0.8c1.2,0.2,2.4,0.5,3.6,0.9c1,0.2,2,0.6,3,1c-0.1,0.2-4.4-1.1-11.7-1.8c-2-0.2-3.9-0.3-5.9-0.3
	c-2.1-0.1-4.4,0.1-6.8,0.2c-10.4,0.7-20.5,3.6-29.9,8.3c-2.1,1.1-4.1,2.2-5.9,3.3c-1.7,1-3.3,2.1-4.9,3.3
	C206.7,646.9,203.7,650.3,203.5,650.1z"/>
<path class="st0" d="M208.1,662.8c0.6-0.8,1.3-1.6,2-2.2c0.8-0.9,1.7-1.7,2.6-2.4c1.1-0.9,2.2-2,3.6-3c3.2-2.5,6.7-4.7,10.3-6.7
	c8.9-4.8,18.5-7.9,28.5-9.2c4.1-0.5,8.2-0.7,12.3-0.6c1.8,0,3.3,0.2,4.7,0.3c1.2,0.1,2.4,0.2,3.5,0.4c1,0.1,2,0.3,3,0.6
	c0,0.2-4.3-0.5-11.2-0.5c-4.1,0-8.1,0.3-12.1,0.8c-9.8,1.4-19.4,4.5-28.2,9.1c-3.6,1.9-7,4-10.3,6.4
	C211.3,660,208.3,663,208.1,662.8z"/>
<path class="st0" d="M436.4,590.1c-1.1-0.2-2.2-0.6-3.3-1c-1-0.3-2.3-0.8-3.8-1.2s-3.2-1-5.1-1.4c-4.4-1.1-9-2-13.5-2.6
	c-11.1-1.5-22.4-1.3-33.5,0.5c-4.5,0.7-9,1.7-13.4,3c-1.9,0.5-3.6,1.1-5,1.5s-2.8,0.9-3.8,1.3c-1,0.5-2.1,0.8-3.2,1.1
	c1-0.6,2-1.1,3.1-1.5c1.2-0.6,2.5-1.1,3.7-1.5c1.5-0.5,3.1-1.2,5-1.7c4.4-1.4,8.9-2.5,13.5-3.3c11.2-1.9,22.6-2.1,33.9-0.5
	c4.6,0.7,9.1,1.6,13.6,2.8c1.9,0.5,3.6,1.1,5.1,1.6s2.8,1,3.8,1.4C434.3,589.1,435.3,589.5,436.4,590.1z"/>
<path class="st0" d="M434,602.4c-1.1-0.1-2.3-0.4-3.3-0.7c-2.1-0.5-5.2-1.2-9.1-1.9s-8.4-1.4-13.6-1.8c-11.2-0.9-22.4-0.5-33.5,1.3
	c-5.1,0.9-9.6,1.8-13.4,2.9s-6.8,1.9-8.9,2.6c-1.1,0.4-2.2,0.8-3.3,1c1-0.6,2-1,3.1-1.4c2.9-1.1,5.8-2.1,8.8-3
	c4.4-1.3,8.9-2.4,13.5-3.2c11.1-2,22.5-2.4,33.8-1.3c4.6,0.4,9.2,1.1,13.7,2c3.9,0.8,6.9,1.6,9,2.3C431.9,601.6,433,602,434,602.4z"
	/>
<path class="st1" d="M442.3,521.5c-14-11.1-34.6-13.2-51.5-7.1c-16.9,6.1-30.7,18.8-41,33.3l-3.2-9.5c10.3-14.5,25.7-28.1,42.6-34.1
	s38.2-4.1,52.2,7C442,514.5,442.3,518,442.3,521.5z"/>
<g class="st5">
	<path d="M180.1,509.5c1.2,2.8,6.6,4.4,10.2,3.6c4.6-1,10.8-5.1,14.4-5.8c21.1-3.6,35,9.2,60.4,9.8c0.5,0,1,0.3,1.5,0
		c0.6-0.4,0.7-1.2,0.3-1.8c-0.4-0.6-0.9-1-1.6-1.3C239.7,500.3,208.2,499.8,180.1,509.5"/>
</g>
<g class="st5">
	<path d="M342.9,521.7c12.8-9.5,21.2-24.6,35.6-31.6c12.4-6,27.6-5.1,39.1-12.7c-30,1.2-59.1,17.6-75.3,42.5"/>
</g>
<path class="st7" d="M352.3,716.1c20.7,11.1,46.7,9.9,66.6-2.1c2.7-1.6,3-5.7,1.3-8.1c-2-2.7-5.5-2.9-8.2-1.3c-16.6,10-38,10-55,0.9
	c-2.8-1.5-6.6,0.3-7.8,3C347.9,711.5,349.5,714.6,352.3,716.1L352.3,716.1z"/>
<path class="st7" d="M238.5,754.9c18.4-5.3,37-9.9,55.8-13.6c3.1-0.6,5.5-3.2,5.2-6.5c-0.4-2.9-3.4-5.7-6.5-5.1
	c-19.8,3.9-39.4,8.7-58.8,14.3c-3.1,0.9-4.4,4.8-3.3,7.5C232.1,754.7,235.5,755.8,238.5,754.9L238.5,754.9z"/>
<path class="st3" d="M429.9,614c0,0,12.2,15.3,11,22.1s-15.8,55.3-15.8,55.3l-9.2,5.8L429.9,614z"/>
<path class="st0" d="M415.9,696.3c-0.3-0.1,3.3-19.9,8.2-44.2s9-44.1,9.4-44s-3.3,19.9-8.2,44.2S416.3,696.4,415.9,696.3z"/>
<path class="st3" d="M207.1,686.9c-1-2.9-0.1-6.2,2.3-8.1c6.7-5.4,19.9-14.8,23.4-11.5c3.7,3.5,11.6,36.9,14.7,50.4
	c0.8,3.3-0.9,6.7-4,8.1l-13.1,6.1c-3.1,1.4-6.7,0.1-8.1-2.9c-0.1-0.2-0.1-0.3-0.2-0.5L207.1,686.9z"/>
<path class="st0" d="M207.1,686.9c0.3,0.5,0.5,1,0.7,1.6l1.8,4.5c1.5,4.1,3.6,9.8,6.2,16.8c1.3,3.6,2.7,7.4,4.2,11.6l2.4,6.5
	c0.6,2.2,2.5,3.9,4.8,4.1c1.2,0.1,2.4-0.1,3.4-0.7l3.6-1.7l7.3-3.4c1.3-0.5,2.4-1.1,3.5-1.9c1-0.9,1.7-2,2-3.2
	c0.3-1.3,0.3-2.6-0.1-3.9c-0.3-1.4-0.6-2.8-1-4.2c-2.6-11.2-5.2-21.8-8-31.4c-1.4-4.7-2.8-9.4-4.8-13.1c-0.9-1.9-3.5-1.2-5.3-0.6
	c-1.8,0.7-3.6,1.5-5.3,2.5c-3,1.7-5.8,3.6-8.6,5.6l-3.4,2.5c-1,0.6-1.8,1.4-2.4,2.4c-0.9,1.3-1.3,2.9-1.2,4.5
	C207,686.3,207.2,686.9,207.1,686.9c-0.2-0.5-0.4-1.1-0.5-1.6c-0.2-1.7,0.1-3.4,1-4.8c0.7-1,1.5-1.9,2.5-2.6c1-0.8,2.1-1.7,3.3-2.6
	c2.7-2.1,5.6-4,8.6-5.8c1.7-1,3.6-1.9,5.4-2.7c1-0.4,2.1-0.6,3.3-0.7c0.6,0,1.2,0.1,1.8,0.3c0.6,0.3,1,0.8,1.4,1.3
	c2.3,4,3.6,8.6,5,13.4c2.9,9.6,5.5,20.2,8.1,31.5c0.3,1.4,0.6,2.8,1,4.2c0.4,1.5,0.5,3,0.1,4.5c-0.4,1.5-1.2,2.8-2.4,3.8
	c-0.6,0.5-1.2,0.9-1.9,1.2l-1.9,0.9l-7.3,3.4l-3.6,1.7c-1.2,0.6-2.6,0.9-4,0.8c-2.7-0.3-5-2.2-5.7-4.9l-2.3-6.5
	c-1.5-4.2-2.9-8.1-4.1-11.7l-5.9-16.9l-1.5-4.6C207.4,688,207.3,687.5,207.1,686.9z"/>
<path class="st0" d="M438.8,522.2c-1.3-0.2-2.5-0.4-3.8-0.8c-3.4-0.7-6.8-1.3-10.3-1.7c-11.4-1.2-23-0.1-34,3.2
	c-10.9,3.4-21.1,8.9-29.9,16.3c-2.6,2.2-5.2,4.6-7.5,7.1c-0.8,1-1.7,1.9-2.7,2.7c0.1-0.3,0.3-0.6,0.5-0.8c0.4-0.5,1-1.3,1.8-2.2
	c2.3-2.7,4.7-5.2,7.3-7.5c8.7-7.7,19-13.4,30-16.8c11.2-3.4,22.9-4.4,34.5-2.9c3.5,0.4,6.9,1.1,10.3,2c1.2,0.3,2.1,0.7,2.7,0.8
	C438.2,521.9,438.5,522.1,438.8,522.2z"/>
<path class="st0" d="M441.6,535.4c-1.2-0.1-2.5-0.2-3.7-0.5c-1.2-0.2-2.6-0.4-4.3-0.6s-3.5-0.5-5.7-0.6c-4.9-0.5-9.9-0.7-14.8-0.6
	c-6.1,0.1-12.1,0.6-18.1,1.5c-6,0.9-11.9,2.2-17.7,3.9c-4.8,1.4-9.4,3-14,4.9c-2,0.8-3.7,1.6-5.2,2.3s-2.8,1.3-3.9,1.8
	c-1.1,0.6-2.2,1.1-3.4,1.5c1-0.7,2-1.4,3.1-1.9c1-0.6,2.3-1.3,3.8-2s3.2-1.7,5.2-2.5c4.6-2,9.2-3.8,14-5.2
	c11.7-3.6,23.9-5.4,36.1-5.4c5,0,10,0.3,14.9,0.8c2.1,0.2,4,0.5,5.7,0.8s3.1,0.5,4.2,0.8C439.2,534.7,440.4,535,441.6,535.4z"/>
<path class="st0" d="M189.7,589.5c0.9-0.7,1.8-1.2,2.8-1.7c1.1-0.7,2.3-1.2,3.5-1.8c1.4-0.6,2.9-1.4,4.8-2.1c4.2-1.6,8.5-3,12.9-3.9
	c10.8-2.4,22-2.7,33-1c4.5,0.7,8.9,1.7,13.1,3.1c1.9,0.5,3.5,1.2,4.9,1.8c1.2,0.4,2.4,1,3.6,1.5c1,0.4,2,0.9,3,1.5
	c-0.1,0.2-4.4-1.9-11.7-4c-4.3-1.3-8.6-2.2-13-2.8c-10.8-1.6-21.9-1.2-32.6,1c-4.4,0.9-8.7,2.1-12.8,3.7
	C193.9,587.3,189.8,589.7,189.7,589.5z"/>
<path class="st0" d="M271.9,590.2c-1.1,0.1-2.1,0.2-3.2,0.1h-8.6c-7.3,0-17.3,0.4-28.4,1.4s-21,2.5-28.2,3.7l-8.5,1.6
	c-1,0.3-2.1,0.4-3.1,0.4c1-0.4,2-0.7,3-0.9c2-0.5,4.9-1.2,8.4-1.9c18.7-3.7,37.7-5.4,56.7-5.1c3.6,0.1,6.6,0.2,8.6,0.4
	C269.8,589.9,270.8,590,271.9,590.2z"/>
<path class="st1" d="M191,353.6c0,0,48.8,13.5,102.3,11.1s74.5-13.3,74.5-13.3l3.2,19c0,0-65,26.7-182.2,1.5
	C188.8,372,187.8,357.8,191,353.6z"/>
<polygon class="st3" points="211.6,357.8 210.3,378.1 222.7,379.9 224.7,357.5 "/>
<polygon class="st3" points="336.3,358.8 341.1,378.6 353.5,376.7 348.7,354.7 "/>
<polygon class="st0" points="257.6,383.5 240.9,381.6 243.1,362.8 259.8,364.7 "/>
<g class="st5">
	<path d="M249.8,334.6c-17.2,10-41,20.6-58.2,30.6l-1.8,12c14.5-5.1,32.2-11.9,44.7-21c3.5-2.6,10.3-7.5,12.9-11.2
		S251.1,338.9,249.8,334.6z"/>
</g>
<path class="st3" d="M155.6,312.8c-12.7,6.5-26.6,16.9-24.9,33.9c1.5,15.5,15.9,21.9,28.8,23.1c33.1,3.1,65.8-14.4,93.1-32.2
	c8.8-5.7,0.7-20.5-8.1-14.7c-20.3,13.2-42,25.3-65.9,29c-8.2,1.3-22,3.4-29.2-2.6c-10.4-8.6,9.8-18.7,15.4-21.6l-0.2-18.2
	C161.5,310.4,158.5,311.5,155.6,312.8L155.6,312.8z"/>
<path class="st0" d="M155.6,312.8c0.7-0.4,1.4-0.8,2.2-1.1c2.2-0.9,4.5-1.7,6.8-2.4l0.2,0v0.2c0.1,4.6,0.2,10.7,0.3,18.3v0.2
	l-0.1,0.1c-3.9,1.9-7.7,4.2-11.3,6.8c-2,1.4-3.8,3.2-5.3,5.2c-0.8,1.1-1.3,2.3-1.5,3.6c-0.1,1.3,0.3,2.7,1.1,3.7
	c1.8,2.2,4.3,3.8,7,4.5c2.8,0.8,5.8,1.2,8.8,1.2c6.4-0.1,12.8-0.9,19.1-2.2c13.2-2.6,26.9-8.1,40.5-15.6c6.8-3.7,13.6-7.9,20.5-12.4
	c0.4-0.3,0.9-0.6,1.4-0.8c0.5-0.3,1-0.5,1.5-0.6c1-0.3,2.1-0.4,3.2-0.2c2.2,0.4,4.1,1.8,5.3,3.6c1.3,1.9,1.9,4.2,1.8,6.5
	c-0.1,2.3-1.2,4.5-3,6c-10.4,7.1-21.2,13.4-32.4,18.9c-5.3,2.6-10.8,5-16.3,7c-2.7,1.1-5.4,1.9-8.1,2.7c-2.7,0.7-5.4,1.5-8.1,2.1
	c-10.2,2.4-20.7,3-31.1,1.9c-4.7-0.6-9.4-2-13.6-4.1c-4.1-2-7.5-5-10.1-8.8c-2.2-3.6-3.5-7.7-3.6-12c-0.2-3.8,0.5-7.5,1.9-11
	c2.7-6.5,7.2-10.6,10.9-13.6c2.8-2.3,5.9-4.3,9.1-6c1.1-0.6,1.9-1,2.5-1.3S155.7,312.9,155.6,312.8c0.1,0.1-0.2,0.3-0.8,0.6
	s-1.4,0.8-2.4,1.4c-3.2,1.8-6.2,3.8-9,6.1c-3.6,3-8,7.1-10.6,13.5c-1.4,3.4-2,7.1-1.8,10.8c0.1,4.1,1.3,8.1,3.5,11.6
	c2.5,3.6,5.9,6.6,9.8,8.5c4.2,2.1,8.8,3.4,13.4,4c10.3,1.1,20.7,0.4,30.8-2c21.4-4.9,43.4-16.4,64.6-30.6c1.6-1.3,2.6-3.2,2.7-5.3
	c0.1-2.1-0.4-4.1-1.6-5.8c-1.1-1.7-2.8-2.8-4.7-3.2c-0.9-0.2-1.9-0.1-2.8,0.2c-0.5,0.1-0.9,0.3-1.3,0.6c-0.4,0.2-0.9,0.5-1.3,0.7
	c-6.9,4.5-13.7,8.7-20.5,12.4c-13.6,7.5-27.5,13-40.8,15.6c-6.3,1.3-12.8,2-19.2,2.1c-3,0-6.1-0.4-9-1.3c-2.9-0.8-5.4-2.4-7.3-4.8
	c-0.9-1.2-1.3-2.7-1.2-4.2c0.2-1.4,0.7-2.8,1.6-3.9c1.5-2.1,3.4-3.9,5.5-5.3c3.6-2.6,7.4-4.8,11.4-6.7l-0.1,0.2
	c-0.1-7.5-0.1-13.7-0.1-18.2l0.2,0.1c-2.3,0.6-4.6,1.4-6.8,2.2c-0.7,0.3-1.3,0.5-1.7,0.7C156,312.7,155.8,312.8,155.6,312.8z"/>
</svg>
