<svg xmlns="http://www.w3.org/2000/svg" xmlns:xlink="http://www.w3.org/1999/xlink" viewBox="0 0 1000 1000"><defs><style>.cls-1{isolation:isolate;}.cls-10,.cls-11,.cls-12,.cls-13,.cls-14,.cls-15,.cls-16,.cls-17,.cls-18,.cls-19,.cls-2,.cls-20,.cls-21,.cls-22,.cls-23,.cls-24,.cls-25,.cls-26,.cls-27,.cls-28,.cls-29,.cls-3,.cls-30,.cls-31,.cls-32,.cls-33,.cls-34,.cls-35,.cls-4,.cls-5,.cls-6,.cls-7,.cls-8,.cls-9{fill-rule:evenodd;}.cls-2{fill:url(#radial-gradient);}.cls-12,.cls-16,.cls-17,.cls-19,.cls-23,.cls-25,.cls-27,.cls-29,.cls-3,.cls-31,.cls-33,.cls-35,.cls-7{mix-blend-mode:multiply;}.cls-3{fill:url(#New_Gradient_Swatch_76);}.cls-4{fill:url(#radial-gradient-2);}.cls-20,.cls-21,.cls-5,.cls-6,.cls-9{mix-blend-mode:screen;}.cls-5{fill:url(#radial-gradient-3);}.cls-6{fill:url(#radial-gradient-4);}.cls-7{fill:url(#radial-gradient-5);}.cls-8{fill:url(#New_Gradient_Swatch_22);}.cls-9{fill:url(#radial-gradient-6);}.cls-10{fill:url(#radial-gradient-7);}.cls-11{fill:url(#radial-gradient-8);}.cls-12{opacity:0.5;fill:url(#radial-gradient-9);}.cls-13{fill:url(#radial-gradient-10);}.cls-14{fill:url(#New_Gradient_Swatch_3);}.cls-15{fill:url(#radial-gradient-11);}.cls-16{fill:url(#radial-gradient-12);}.cls-17{fill:url(#radial-gradient-13);}.cls-18{fill:url(#radial-gradient-14);}.cls-19{fill:url(#radial-gradient-15);}.cls-20{fill:url(#radial-gradient-16);}.cls-21{fill:url(#radial-gradient-17);}.cls-22{fill:url(#radial-gradient-18);}.cls-23{fill:url(#New_Gradient_Swatch_76-2);}.cls-24{fill:url(#radial-gradient-19);}.cls-25{fill:url(#New_Gradient_Swatch_76-3);}.cls-26{fill:url(#radial-gradient-20);}.cls-27{fill:url(#New_Gradient_Swatch_76-4);}.cls-28{fill:url(#radial-gradient-21);}.cls-29{fill:url(#New_Gradient_Swatch_76-5);}.cls-30{fill:url(#radial-gradient-22);}.cls-31{fill:url(#New_Gradient_Swatch_76-6);}.cls-32{fill:url(#radial-gradient-23);}.cls-33{fill:url(#New_Gradient_Swatch_76-7);}.cls-34{fill:url(#radial-gradient-24);}.cls-35{fill:url(#New_Gradient_Swatch_76-8);}</style><radialGradient id="radial-gradient" cx="241.43" cy="319.23" r="276.57" gradientTransform="matrix(1.03, -0.09, 0.08, 1.09, -68.42, -1.44)" gradientUnits="userSpaceOnUse"><stop offset="0" stop-color="#9ecfff"/><stop offset="0.17" stop-color="#bcdeff"/><stop offset="0.39" stop-color="#d9ecff"/><stop offset="0.6" stop-color="#eef7ff"/><stop offset="0.8" stop-color="#fbfdff"/><stop offset="1" stop-color="#fff"/></radialGradient><radialGradient id="New_Gradient_Swatch_76" cx="236.87" cy="391.29" r="297.75" gradientTransform="matrix(1.03, -0.09, 0.08, 1.09, -68.42, -1.44)" gradientUnits="userSpaceOnUse"><stop offset="0" stop-color="#aac2e6"/><stop offset="1" stop-color="#fff"/></radialGradient><radialGradient id="radial-gradient-2" cx="393.25" cy="321.63" r="707.53" gradientTransform="translate(-34.17 -40.32) scale(1.03 1.09)" gradientUnits="userSpaceOnUse"><stop offset="0" stop-color="#009ced"/><stop offset="0.92" stop-color="#4e3bf5"/></radialGradient><radialGradient id="radial-gradient-3" cx="538.4" cy="554.55" r="490.56" gradientTransform="translate(-34.17 -40.32) scale(1.03 1.09)" gradientUnits="userSpaceOnUse"><stop offset="0.04"/><stop offset="0.84"/><stop offset="0.85" stop-color="#0d1516"/><stop offset="0.9" stop-color="#3e6268"/><stop offset="0.93" stop-color="#659fa9"/><stop offset="0.96" stop-color="#81cbd7"/><stop offset="0.99" stop-color="#93e6f4"/><stop offset="1" stop-color="#99f0ff"/></radialGradient><radialGradient id="radial-gradient-4" cx="310.89" cy="204.12" r="716.2" gradientTransform="translate(-34.17 -40.32) scale(1.03 1.09)" gradientUnits="userSpaceOnUse"><stop offset="0" stop-color="#1fceff"/><stop offset="1"/></radialGradient><radialGradient id="radial-gradient-5" cx="396.62" cy="353.81" r="672.78" gradientTransform="translate(-34.17 -40.32) scale(1.03 1.09)" gradientUnits="userSpaceOnUse"><stop offset="0.56" stop-color="#f5f5ff"/><stop offset="0.64" stop-color="#f0eafa"/><stop offset="0.79" stop-color="#e1cced"/><stop offset="0.99" stop-color="#ca9dd9"/><stop offset="1" stop-color="#c899d7"/></radialGradient><radialGradient id="New_Gradient_Swatch_22" cx="388.67" cy="395.46" r="468.07" gradientTransform="translate(-34.17 -40.32) scale(1.03 1.09)" gradientUnits="userSpaceOnUse"><stop offset="0" stop-color="#91eb00"/><stop offset="1" stop-color="#05a100"/></radialGradient><radialGradient id="radial-gradient-6" cx="461.79" cy="298.99" r="496.33" gradientTransform="translate(-34.17 -40.32) scale(1.03 1.09)" gradientUnits="userSpaceOnUse"><stop offset="0" stop-color="#8fe561"/><stop offset="1"/></radialGradient><radialGradient id="radial-gradient-7" cx="437.71" cy="251" r="585.85" gradientTransform="translate(-34.17 -40.32) scale(1.03 1.09)" gradientUnits="userSpaceOnUse"><stop offset="0" stop-color="#94ffe1"/><stop offset="0.18" stop-color="#88f9dd"/><stop offset="0.51" stop-color="#67e9d1"/><stop offset="0.95" stop-color="#33cebd"/><stop offset="1" stop-color="#2dcbbb"/></radialGradient><radialGradient id="radial-gradient-8" cx="253.04" cy="453.2" r="394.48" gradientTransform="translate(-34.17 -40.32) scale(1.03 1.09)" gradientUnits="userSpaceOnUse"><stop offset="0" stop-color="#dede00"/><stop offset="0.15" stop-color="#d2d200"/><stop offset="0.42" stop-color="#b2b200"/><stop offset="0.47" stop-color="#abab00"/><stop offset="0.51" stop-color="#a5a500"/><stop offset="0.77" stop-color="#7d7d00"/><stop offset="0.91" stop-color="#6e6e00"/></radialGradient><radialGradient id="radial-gradient-9" cx="348.98" cy="534.96" r="177.92" gradientTransform="translate(-34.17 -40.32) scale(1.03 1.09)" gradientUnits="userSpaceOnUse"><stop offset="0" stop-color="#fff"/><stop offset="1" stop-color="#093"/></radialGradient><radialGradient id="radial-gradient-10" cx="671.08" cy="393.01" r="366.44" gradientTransform="translate(-34.17 -40.32) scale(1.03 1.09)" gradientUnits="userSpaceOnUse"><stop offset="0" stop-color="#f0ab54"/><stop offset="1" stop-color="#b87126"/></radialGradient><radialGradient id="New_Gradient_Swatch_3" cx="550.3" cy="523.7" r="383.3" gradientTransform="translate(-34.17 -40.32) scale(1.03 1.09)" gradientUnits="userSpaceOnUse"><stop offset="0" stop-color="#78e05b"/><stop offset="1" stop-color="#0d9c00"/></radialGradient><radialGradient id="radial-gradient-11" cx="260.35" cy="139.27" r="432.38" gradientTransform="translate(-34.17 -40.32) scale(1.03 1.09)" gradientUnits="userSpaceOnUse"><stop offset="0" stop-color="#fff"/><stop offset="0.17" stop-color="#f9fcff"/><stop offset="0.4" stop-color="#e9f4ff"/><stop offset="0.66" stop-color="#cde6ff"/><stop offset="0.94" stop-color="#a8d4ff"/><stop offset="1" stop-color="#9ecfff"/></radialGradient><radialGradient id="radial-gradient-12" cx="764.58" cy="291.36" r="222.99" gradientTransform="translate(-34.17 -40.32) scale(1.03 1.09)" gradientUnits="userSpaceOnUse"><stop offset="0" stop-color="#fff"/><stop offset="1" stop-color="#848431"/></radialGradient><radialGradient id="radial-gradient-13" cx="158.97" cy="527.48" r="378.41" xlink:href="#radial-gradient-9"/><radialGradient id="radial-gradient-14" cx="262.12" cy="700.48" r="239.27" xlink:href="#radial-gradient-10"/><radialGradient id="radial-gradient-15" cx="258.74" cy="704.26" r="231.62" xlink:href="#radial-gradient-12"/><radialGradient id="radial-gradient-16" cx="424.81" cy="264.17" r="286.53" gradientTransform="translate(-34.17 -40.32) scale(1.03 1.09)" gradientUnits="userSpaceOnUse"><stop offset="0" stop-color="#f2f6ff"/><stop offset="1"/></radialGradient><radialGradient id="radial-gradient-17" cx="251.75" cy="420.66" r="248.25" gradientTransform="translate(-34.17 -40.32) scale(1.03 1.09)" gradientUnits="userSpaceOnUse"><stop offset="0" stop-color="#c5c55c"/><stop offset="1" stop-color="#000a00"/></radialGradient><radialGradient id="radial-gradient-18" cx="478.19" cy="96.57" r="123.45" gradientTransform="matrix(0.99, -0.3, 0.28, 1.05, -136.5, 110.81)" xlink:href="#radial-gradient"/><radialGradient id="New_Gradient_Swatch_76-2" cx="491.53" cy="172.82" r="175.74" gradientTransform="matrix(0.99, -0.3, 0.28, 1.05, -136.5, 110.81)" xlink:href="#New_Gradient_Swatch_76"/><radialGradient id="radial-gradient-19" cx="497.14" cy="702.91" r="440.29" gradientTransform="matrix(0.97, 0.39, -0.37, 1.02, 172.83, -178.02)" xlink:href="#radial-gradient"/><radialGradient id="New_Gradient_Swatch_76-3" cx="527.1" cy="833.28" r="384.49" gradientTransform="matrix(0.97, 0.39, -0.37, 1.02, 172.83, -178.02)" xlink:href="#New_Gradient_Swatch_76"/><radialGradient id="radial-gradient-20" cx="166.47" cy="576.81" r="224.13" gradientTransform="matrix(1.03, -0.09, 0.08, 1.09, -71.03, -0.99)" xlink:href="#radial-gradient"/><radialGradient id="New_Gradient_Swatch_76-4" cx="153.79" cy="613.92" r="250.34" gradientTransform="matrix(1.03, -0.09, 0.08, 1.09, -71.03, -0.99)" xlink:href="#New_Gradient_Swatch_76"/><radialGradient id="radial-gradient-21" cx="447.28" cy="355.77" r="311.77" gradientTransform="matrix(1.02, 0.17, -0.16, 1.08, 41.16, -111.02)" xlink:href="#radial-gradient"/><radialGradient id="New_Gradient_Swatch_76-5" cx="480.29" cy="403.87" r="320.49" gradientTransform="matrix(1.02, 0.17, -0.16, 1.08, 41.16, -111.02)" xlink:href="#New_Gradient_Swatch_76"/><radialGradient id="radial-gradient-22" cx="695.37" cy="479.27" r="342.37" gradientTransform="translate(-34.17 -40.32) scale(1.03 1.09)" xlink:href="#radial-gradient"/><radialGradient id="New_Gradient_Swatch_76-6" cx="797.48" cy="533.24" r="472.08" gradientTransform="translate(-34.17 -40.32) scale(1.03 1.09)" xlink:href="#New_Gradient_Swatch_76"/><radialGradient id="radial-gradient-23" cx="911.14" cy="418" r="132.29" gradientTransform="matrix(1.03, 0.06, -0.06, 1.09, 8.02, -71.13)" xlink:href="#radial-gradient"/><radialGradient id="New_Gradient_Swatch_76-7" cx="893.17" cy="456.41" r="136.02" gradientTransform="matrix(1.03, 0.06, -0.06, 1.09, 8.02, -71.13)" xlink:href="#New_Gradient_Swatch_76"/><radialGradient id="radial-gradient-24" cx="651.1" cy="818.06" r="445.66" gradientTransform="translate(-34.17 -40.32) scale(1.03 1.09)" xlink:href="#radial-gradient"/><radialGradient id="New_Gradient_Swatch_76-8" cx="694.01" cy="849.42" r="309.6" gradientTransform="translate(-34.17 -40.32) scale(1.03 1.09)" xlink:href="#New_Gradient_Swatch_76"/></defs><g class="cls-1"><g id="Capa_1" data-name="Capa 1"><path class="cls-2" d="M230.66,102.64a60.24,60.24,0,0,0-20.95,19.07c2.45-9.74,1-23.93-16.08-26-48-5.76-75.51,59.11-86,94.31-19.72-11.67-52-7.57-71.36,20-28.65,40.78-21.7,98.57-6.45,144.7-11.63-1.1-19.86,5.52-24.5,16.87-17,41.52,10.2,109,35.57,119,41.75,16.48,236-310,239.4-365,2-32.39-28.52-34.13-49.6-22.9Z"/><path class="cls-3" d="M33.62,363.43C-3.33,353.14,5.4,446.77,27.75,480.65c4.26,4.75,8.71,8.21,13.11,9.94C76,504.47,219.44,274.88,265.79,169.32c13.31-57-20.29-89-65.16-26.93,2.84-12.38-1.9-28-7.44-31.11-33.27-18.47-72.59,57.52-95.1,119.24,2-10.88,3.78-18.73,6.12-27.93-87-5.75-76.26,114.27-64.75,175.57l-5.84-14.73Z"/><path class="cls-4" d="M484.23,45.15c249,0,450.83,213.57,450.83,477s-201.84,477-450.83,477S33.39,785.62,33.39,522.17s201.85-477,450.84-477Z"/><path class="cls-5" d="M484.23,45.15c249,0,450.83,213.57,450.83,477s-201.84,477-450.83,477S33.39,785.62,33.39,522.17s201.85-477,450.84-477Z"/><path class="cls-6" d="M474.89,824.66c-6.84,1.57-12.17-.74-15.84,4-5.07,6.58-4.7,15.5,11.14,14.77,7.48-.35,1.25,13,7.61,15.42,16.48,6.18,32.12,3.41,43.31-10.12,3.9-4.72,6-6.49,16-9.11,7.78-2-8.29-7.87,15-12.9,25.54-5.52,7-8.8,24.19-24.32,5.05-4.56-12.26-17,10.61-24.15,18.09-5.68,17.23-4.16,19.87-23,1.4-10-2.56-9.09-11.79-10.41-12.85-1.84-12.76,19.42-28.9,23.86-9.79,2.7-26.77,11.27-25,23.78,2.05,14.79-14.2,26.73-14.59,1.16-.29-19.51-11.65-19-15.81-9-2.05,4.91-3,11.89-4.93,16.3-4.16,9.63-11.43,10.93-15.8,15.62-4.06,4.37-5.83,6-15,8.07ZM377.39,88.54a32.16,32.16,0,0,0,5.26-1.17c3.62-1,7.1-2.68,10.81-3.19C406.9,82.32,420.4,80.35,434,80.3c3,0,5.45,3,8.43,3.68a49.52,49.52,0,0,0,12.45,1c5.41-.18,10.74-2.5,16.13-1.94A159.23,159.23,0,0,1,505,90.18c9.69,3.26,18.16,9.77,27.67,13.57,6.24,2.5,13.28,2.44,19.41,5.24,6.65,3,13.34,6.65,18.51,12,5,5.19,7.4,12.57,11.17,18.81a3,3,0,0,0,.55.58c4.63,4.21,9,8.79,13.93,12.6s11,6.38,15.93,10.47a74.49,74.49,0,0,1,12.28,13,94.24,94.24,0,0,1,11.18,18.81c4.93,11.63,8.13,24,12.09,36.05,5.93,18.07,14.49,35.44,17.59,54.28s3.69,38.51.73,57.38c-6.15,39.2-12.74,79.14-27.85,115.53-4.41,10.63-20.47,10-27.85,18.61-7.56,8.81-8.72,22.2-15.38,31.79-3.14,4.5-10.38,4.57-13.2,9.3-11.65,19.56-18.39,42-29.31,62-4.78,8.78-10.12,17.7-17.58,24-12.65,10.73-28.54,16.46-41.77,26.36-6.92,5.17-10.84,14.43-18.32,18.61C456,659.74,435.07,665.34,415.45,674c-2.28,1-4,3.09-6.23,4.27C398.59,684,387.88,689.53,377,694.59c-8,3.73-15.81,9.15-24.54,10.08-6.55.7-12.53-4.55-19.06-5.43-5.09-.69-10.3,0-15.39.78-6,.91-12.1,1.66-17.58,4.26-7.77,3.69-13.48,11.75-21.62,14.35-4.12,1.31-9.08-.69-12.46-3.49-4-3.3-4-10.35-8.06-13.57-3.06-2.45-7.61-1.08-11.36-1.94-8.6-2-18.25-1.56-25.65-6.59-5.53-3.76-7.26-11.64-10.26-17.83-2-4.19-1-10.69-4.76-13.19-3.94-2.61-9.29,1.09-13.92.78-3.26-.22-8.23.83-9.53-2.33-2-4.79,3.87-10.59,2.2-15.51-1.08-3.16-5.63-4.16-8.8-3.87-4.52.41-7.92,6.1-12.45,5.81s-8.28-4.22-11.73-7.36a94.89,94.89,0,0,1-14.47-16.48,15.19,15.19,0,0,1-2.38-8.14c-.07-3.12,2.91-6.14,2-9.11-.83-2.76-5.23-2.81-6.41-5.43-1.08-2.39,1.31-5.49.37-8-.44-1.14-2.36.11-3.49-.19-6-1.64-12.56-2.28-17.95-5.62-2.26-1.4-3.47-4.79-3.3-7.56.23-3.58,5-6.16,4.4-9.69-.51-3.3-4.31-5-7-6.79-2.08-1.42-4.73-1.59-7-2.71-.22-.11,0-.52,0-.78.44-2.27.45-4.72,1.46-6.78,1.31-2.65,4-4.34,5.31-7A21,21,0,0,0,106,537c.06-1.5-.49-3.59-1.84-4.07-4.24-1.51-9-.23-13.37-1.35a10.41,10.41,0,0,1-5.5-3.49c-1.7-2.19-3.29-4.92-3.29-7.76,0-11,3.21-21.9,3.3-33,0-5-1.39-10-2.94-14.73C80.49,466.85,76.26,462,75.06,456c-1-4.69,0-9.7,1.09-14.35,1.22-4.92,4-9.24,5.87-13.95,1.72-4.47,3.91-8.83,4.76-13.57.89-5,.41-10.08.37-15.12-.08-7.89-1.67-15.83-.74-23.65a71.25,71.25,0,0,1,6.23-22.49c3.22-6.62,8.94-11.51,13.19-17.44a54.12,54.12,0,0,0,5.13-8.14,115.37,115.37,0,0,0,5.13-13.57c2-6.26,3.06-12.9,5.5-19,3.57-8.94,6.83-18.3,12.46-26,3.9-5.33,10.78-7.35,15.39-12,4-4.08,7-9.2,10.25-14,3.93-5.71,6.53-12.57,11.36-17.45,3.36-3.39,9.15-3.15,12.46-6.59,3.47-3.6,3.55-9.91,7-13.57,6.56-7,15.72-10.89,22.35-17.83,4.39-4.59,7-10.76,10.26-16.28,3.56-6,5.65-13.11,10.26-18.22,3.25-3.6,8-5.34,12.46-7,7.49-2.78,15.61-3.39,23.08-6.21,3.26-1.22,5.88-3.86,8.8-5.81,7.7-5.15,15.61-10,23.08-15.51,5.13-3.79,9.3-9,14.66-12.4a80.32,80.32,0,0,1,17-7.76c2.74-.95,5.84-.26,8.61-1.16,3.05-1,5.55-3.46,8.61-4.46A93.5,93.5,0,0,1,365.43,89c3.95-.57,8-.1,12-.48Zm246.38,35c-3.88,0-3.14-.2-6.49,1.2-.49,6.54-2.25,4.4,1.17,10.53,6.15,11-7,11.49,2,24.33,2.45,3.5,13.75-2.12,14,5.09.21,5.33,12-2.32,16.92,13.81.49,1.62,3.24,4,4.56,9.84,3.79,16.87-9.86,4.83-6.47,18.15,1.19,4.68,7.63,2,8.07,9.9,0,.71,8.76,7.33,9.91,12.8,2.31,11,13.39,9.55,13.19-5.25-.07-5.29,2.14-10.48-.12-17.82-2.63-8.53-3.15-24.13-10.52-30.79-2.3-2.07-10.43-4.41-10.43-7.75,0-20.73-11.4-9.69-12.62-25.23-.41-5.24-11.81-4.94-12.31-11.05-.29-3.56-5.62-7.76-9.75-7.76Zm-15.6,409.33c-19.2-2.92-7.09,19-19.67,29.13-4,3.27-5.92,16.73-9.91,19.42-4.65,3.14-4.11,22.35,15.84,8.52,12.19-8.45-.26-10.2,28-8.85,13.7.65,21-10.91,14.41-23.27-6.75-12.72,12.17-8.72,4-25-6.18-12.41,9.81-6.65,16.84-31.25,5.29-18.54-8.31-1.85-6.43-23.46.54-6.14-8.58-3.21-13.26,2.08-15.3,17.26-10.94,5.46-11.31,32.16-.09,6.44-8,7.73-14,13.07-5.1,4.53-2,7.85-4.48,7.48ZM524,655c-22-4.74-23.89,12.32-29.77,17.06-1.3,1.05-.59,8.22-9.8,10.53-4.95,1.25-15.63,9.94-27.67,9.63-4.17-.11-32.39,23.79-1.8,22.91,15-.44,31.61-17,53.77-16.32,8.75.26,26.34-7.15,30-17.48,4-11.12,21.66-3.28,19.12-25.17-.86-7.42,7.26-5.4,7-17.31-.08-3.55.87-11.77-.29-17.75-2.17-11.19-10.86-10-13.61,4.63-1,5.21-3,11.3-9.45,15.7-9.08,6.18-10.5-1.49-14.82,12.51-.45,1.48-1.37,1.34-2.68,1.06Zm57-208.26c-11.38,2.93-2.65,21.46-12.93,29.08-4,2.95,5.77,11.27-9.65,22-6.57,4.57-6.76,23.64-26.47,34.62-7.33,4.09-12.24,9.51-21.46,10.28-9.63.8-6.77,7-18.36,8.53-1.61.21-24.43,15.34-25,9.79-1.54-.33-.68-11.63,9.09-13.6.06,0,8.06-5.43,11.88-6.88,22.36-8.5,19.15-27.51,22.63-28.4,7.21-1.86,14.64-20,21-21.32,3.47-.75,8.82-12.32,5.65-19.61-2.68-6.16,7.79-19.48,15.54-19.55,18.17-.16.39-16.77,19.94-21,5.37-1.16,5.35-8.29,8.76-9.37,17.05-5.41,15-58.12,26-50.62.18.11,14.06,38.63,4.43,43.25-18.41,8.84,5.77,20.22-13.19,31.3-6,3.52-11.89,0-17.85,1.5Z"/><path class="cls-7" d="M625.11,829.91c-23.72.57-20.17-13.32-40.59,9.89-6.37,7.24-13.47,15.73-16.57,18.8-4.33,4.27-8.79,8.52-13.93,11.63s-11.87,3.37-16.85,7c-4.57,3.31-5.92,10.85-11,13.19-14.6,6.73-31.53-8.63-45.44-10.08-28.82-3-50.13,20.66-67.42,25.58-4.86,1.39-9.89-5.6-14.65-3.87-5.89,2.13-7.21,12.17-13.2,14-5.2,1.56-11.47-1.48-15.38-5.42-10.42-10.49-13.08-31.43-30-40.32-22.5-11.79-82.94-28.23-97.46-41.1-10.39-9.2-12.88-25.81-22.72-35.67-4.82-4.83-13.82-1.86-19.05-6.2-7.92-6.57,4-19.87-25.29-18.63s-48.37,24.83-39.2-50.38c.89-7.34,4.91-25.58-8.06-16.28-9,6.47-20.09,26.06-36.64,20.94-5.35-1.66-7.88-9.62-8.06-15.51-.34-11.1,3.84-21.85,6.59-32.57,4.1-15.93,10.38-31.22,13.93-47.3,3.39-15.4-5.93-17.41-13.19-9.3C83,627,77.48,638.36,68.17,645.37c-10.41,7.83-16.12-15-14.66-24,1.65-10.14,7.34-19.17,12.46-27.91,2.43-4.15,3-7.64-2.29-5.62-4.71,1.77-11.16,4.79-16.76,6.39-2.37.68-5.22-.59-3.67-4.65,5.76-15,13-30.29,13.93-46.52.38-6.51-8.45-10-10.26-16.29-1.3-4.47,2.21-9.34,1.46-14-.54-3.32-5.13-5.16-5.13-8.53,0-9.23,3.77-18,5.13-27.14,1-6.41,2.29-12.91,1.83-19.38-.67-9.55-8.35-6.88-9.82-19.73a506.75,506.75,0,0,0-7,84.17c0,263.45,201.85,477,450.84,477s450.83-213.57,450.83-477c0-201.32-117.86-373.51-284.57-443.53q2.16,1.2,4.3,2.45c22.46,13.08,13.32,18.53,16.48,22.87,2.47,3.38,6.46,5.14,9.9,7.37,9.15,5.92,19.23,10.29,27.84,17,3,2.33,4.23,6.42,6.23,9.7,3.37,5.51,5.73,11.8,9.9,16.67,3,3.45,9.07,3.56,11,7.75,2.23,4.89,1,9.32,4.39,13.38,4.81,5.71,17.15,1.47,24.92,20,2.39,5.69-2.27,23.49,2.2,34.12,3.63,8.65,9.5,16.14,15.39,23.26,7.85,9.49,19.58,15.51,25.65,26.36,4.68,8.38,9.38,18.59,9.89,28.31a26.88,26.88,0,0,1-2.93,13.18c-2.28,4.53-9,6.53-9.53,11.63-2.46,24.51,39.5,80.8,48.73,112a281.74,281.74,0,0,1,11.73,81.41c-.05,7-8,21.46-12.46,16.29-10.23-12-1.76-47.6-14.66-66.3-13.19-19.14-16.75,17.33-16.12,23.65,3.55,35.64,23.24,42.11,6.6,78.31-1.53,3.33-10.89,11.14-13.93,9.31-4.17-2.53-2.35-10.48-5.86-14-1.52-1.51-4.6.57-5.86,2.33-4.36,6.08-9.69,12.55-10.26,20.16-1,12.79,5.34,25.17,5.86,38,.23,5.64-2.12,11.08-3.66,16.48a100.93,100.93,0,0,1-5.5,15.51c-2,4.16-5.61,7.33-7.33,11.63-2,5-2.09,10.7-3.66,15.89-1.37,4.53-2.55,9.3-5.13,13.18-3,4.56-8.79,6.77-11.36,11.63-2.89,5.48-1.18,13-4.39,18.23-2.32,3.79-8.72,3.15-11,7-3.14,5.28-.39,13.32-4,18.22-2.2,3-8.36-1.37-10.62,1.56-3.69,4.75-.89,12.94-4.4,17.83-2.22,3.09-7.08,4.11-10.63,3.1-2.65-.75-2.31-5.48-4.39-7.37-11.95-10.77-12-1.32-15.76,3.11-3.32,3.93-7.4,3.18-10.62,1.55C680.61,778,679.1,763,676.77,757c-1.9-4.91-10.31-1.66-13.19,5-2.63,6.12-1.46,13.48-3.66,19.77-.73,2.07-4.13,2.17-4.77,4.27C650.81,800.4,657,814.82,639,826a27.81,27.81,0,0,1-13.92,3.88Z"/><path class="cls-8" d="M34.83,436.21c-4.73,13.61-15.18,37.17-15.39,40.32S25,495.44,25.3,505.22c.22,7.4-5.16,19.2-4.4,21.71,8.27,27.06,11.92,55.55,15.39,83.74,1,7.73-3,20.69-2.19,23.26,1.42,4.47,15.42,33.6,21.25,51.18,2.53,7.66-.28,17.07,3.66,24,16.37,29,19.46,56.37,29.31,84.51,1.15,3.26,17.57,12.83,25.65,20.16,24.11,21.87,26.55,32.9,42.5,51.18,11.33,13,23.51,25.28,37,35.66,9.06,7,20.57,9.59,30.05,15.9,6.75,4.49,11.41,12.06,18.32,16.28,12.92,7.9,26.83,13.86,40.67,19.77,5.74,2.46,11.93,3.51,17.9,5.26a26.79,26.79,0,0,1-9.89-7.18c-1.07-1.33-.3-3.65-1.28-5-1.11-1.57-3.71-1.58-4.58-3.3-.75-1.49,1.1-3.55.36-5-.92-1.88-3.14-2.63-4.76-3.88s-3.81-1.52-4.58-3.29c-.59-1.35,1.43-2.78,1.28-4.27a8,8,0,0,0-2.2-5c-2.63-2.38-6.77-2.57-9.16-5.23a5.67,5.67,0,0,1-.73-5.82c1.18-2.28,5.16-2,6.05-4.45.73-2-.82-4.45-2.2-6s-3.87-1.79-5.68-2.91-4.95-1.55-4.95-3.68c0-1.76,3.33-1,4.95-.59,3.69.88,6.85,3.89,10.62,4.27,2.33.24,4.35-1.86,6.6-2.52s4.78-2.15,7.14-1.55c2.87.73,4.68,3.88,7.33,5.23,1.11.57,2.45.23,3.67.39,4.82.62,9.61,2.17,14.47,1.94,2.21-.11,5-.83,6-2.91a8.12,8.12,0,0,0-7.69-11.44c-3.12.08-5.59,3-8.61,3.88-2.13.6-4.51,1.13-6.6.39-3.94-1.4-6.87-5.16-10.8-6.59-2.78-1-6.51,1.36-8.8-.58-7.52-6.4-12.08-16-19.05-23.07a7.33,7.33,0,0,0-6.05-2.33c-4.45.79-8.08,4.43-12.45,5.62-1.51.42-3-.94-4.58-1-2.7,0-5.43,1.41-8.07.78a11.31,11.31,0,0,1-6.59-4.27c-1.29-1.84-.42-4.6-1.1-6.78-.62-2-1-4.65-2.75-5.62-5.13-2.82-11.5-2.31-16.67-5-1.31-.7-.3-3.31-1.28-4.46-2.51-2.94-6.21-4.51-8.8-7.36-.55-.61-.91-2.85-.18-2.53,2.74,1.22,4.47,4.27,7.15,5.63,1.55.78,3.58-.21,5.12.58,2,1,2.95,4.07,5.13,4.65,3.33.88,6.87-1,10.26-.58,3.86.52,7.31,3.18,11.18,3.49,1.32.1,3.24-.93,3.3-2.33.21-4.8-3.48-9.45-2.57-14.15.52-2.63,3.72-5,6.23-4.65,3.17.5,4,6.18,7.15,6.78,4.36.84,8.57-2.76,13-2.91,3.49-.11,6.95,3.29,10.26,2.14,1.82-.63-.73-5,.92-6s3.42,2.21,5.31,2.13c1.72-.07,2.86-2.49,4.58-2.52,1.92,0,3.4,2.2,5.32,2.33a25.75,25.75,0,0,0,8.79-1.36c2.08-.6,4.4-1.23,5.86-2.91a13.43,13.43,0,0,0,2.93-7.17,7.63,7.63,0,0,0-1.46-5.23c-2.11-2.85-6-4-7.7-7.18-.78-1.46,1.63-3.21,1.29-4.84-.7-3.3-3.64-5.79-4.22-9.11-.28-1.6,2-2.85,1.83-4.46-.24-2.36-2.88-4-2.93-6.4,0-1.13,2.95-.63,2.75-1.74-.69-3.77-4-6.56-4.95-10.28a3.63,3.63,0,0,1,1.47-3.68c1.9-1.07,4.53-1.88,6.41-.78,4.95,2.92,7.92,8.71,12.64,12a20.7,20.7,0,0,0,9.71,3.69c2.06.2,4.94-.18,5.86-2.13s-2.21-4.21-1.83-6.4c.32-1.84,3.44-2.21,3.67-4.07.18-1.46-3.73-2.26-2.75-3.3,1.3-1.37,3.76,1,5.49.39,3.29-1.19,5.6-4.75,9-5.62,1.44-.37,2.46,1.8,3.85,2.33,2.73,1,5.53,2.58,8.42,2.32,2.43-.22,4.13-2.82,6.42-3.68s5.25.36,7-1.36.19-4.7,1.1-6.78c.52-1.22,1.94-3.34,2.93-2.52,1.53,1.26,1.46,4,1.28,6-.21,2.47-2.13,4.52-2.38,7-.09.88,1.44,1.26,1.47,2.14,0,1.86-2.05,3.74-1.29,5.42,1.4,3.1,3.91,6,7,7.18,3.23,1.2,7,.46,10.25-.78s6.78-3.18,8.43-6.4c1.29-2.5-2.36-6.25-.73-8.52,1.4-2,4.83.76,7-.2,2.31-1,5.13-2.8,5.5-5.43.44-3.18-3.54-5.7-3.48-8.91.07-3.87,1.08-8.34,3.84-10.86,4.44-4.05,11.2-4,16.13-7.36.92-.64.39-2.5-.19-3.49s-2.39-1.08-3.11-2.14a38.63,38.63,0,0,1-5.5-10.46c-.42-1.41-.08-3.49,1.1-4.27,1.61-1.06,4,.79,5.68-.19s1.18-4,2.75-4.85c2.45-1.38,5.83.1,8.24-1.36a33.86,33.86,0,0,0,9.71-9.49c.74-1,.29-2.69-.18-3.88s-2.38-1.74-2.57-3.1c-.29-2.16-.26-5,1.29-6.4,2.59-2.42,7.12-1.45,9.71-3.88,1.7-1.6.32-5.16,1.83-7,1.11-1.34,4.14.41,4.94-1.16a26.19,26.19,0,0,0,2.94-14.15,6.06,6.06,0,0,0-4.77-4.84c-3.69-.6-7.39,1.26-11,2.32-1,.31-1.69,1.56-2.75,1.75-1.69.29-4.34,1.22-5.13-.39s2-3.1,2.57-4.85c.42-1.29-.24-2.87.36-4.07,1.84-3.64,5.16-6.33,6.78-10.08,1-2.37,2.8-6.07.92-7.75-3.34-3-8.46-3.2-12.83-2.91-2.83.19-4.76,3.49-7.51,4.26-3.79,1.07-8.39-1-11.72,1.17-2.28,1.5-.89,5.78-2.38,8.14-.78,1.23-2.88.69-3.85,1.75a7.49,7.49,0,0,0-1.83,4.45c-.26,3.49,3,7.94.73,10.47-2,2.24-6.24.06-8.61-1.74-2.18-1.65-1.43-6-3.67-7.56-2.91-2-7-3.47-10.25-2.14-4.51,1.86-7.58,6.55-10.45,10.67-1.69,2.43-.15,7.8-2.93,8.52-3.91,1-7.34-6.14-11.17-4.84-5,1.68-8.06,7.4-10.63,12.21-1.08,2,1.79,5.2.37,7s-4.55-.12-6.6.78c-2.26,1-3.46,4.2-5.86,4.65-2,.37-3.51-2.71-5.5-2.52s-2.82,2.77-4.58,3.49c-3.88,1.58-8.29,1.5-12.09,3.29-1.85.87-2.51,3.66-4.4,4.46s-3.94-1-5.68-.19c-2.45,1.13-3.38,6-6,5.62-6.24-.79-10.76-8.67-17-8.53-4.42.09-5.74,8.19-10.07,9.11-2.54.54-3-5.26-5.5-5.82-2.93-.64-5.71,1.94-8.61,2.72-4.21,1.12-10.59-1-10.81-4.85-.41-7.4,8.76-22.11,23.08-26.94,7.16-2.42,15.17,1.71,22.54.19a18.71,18.71,0,0,0,11.36-7.17c1.6-2.29.71-5.92-.37-8.53-1.49-3.57-6.14-5.3-7-9.11-.56-2.56,2.42-4.6,3.48-7,1.13-2.54.52-7.18,3.11-7.75,2.42-.54,4,3.53,4.77,6,.41,1.28-1.39,2.35-1.65,3.68-.48,2.41-1.57,5.15-.55,7.37.69,1.5,3,1.3,4.58,1.35,2.46.08,4.88-1.23,7.33-1,3.15.34,6.12,3.68,9.16,2.72,2.83-.9,5-4.28,5.49-7.37.6-3.86-2.56-7.52-2.56-11.44,0-7,.46-14.26,2.56-20.93,1.07-3.39,5.27-4.86,6.6-8.14,2.79-6.89,2.15-15.11,5.49-21.71a86.47,86.47,0,0,1,16.86-22.49c4.78-4.68,11.84-6.07,16.85-10.47,3.69-3.23,4.75-9.31,8.8-12,7.56-5,17.62-5,24.91-10.46,5.29-4,8.53-10.51,11.36-16.67,1.68-3.65,3.79-8.53,1.83-12-1.33-2.38-5.62-.13-7.69,1.55-6.16,5-10,12.77-16.12,17.83-7.91,6.53-17.06,11.19-25.65,16.67-5,3.18-10.58,5.36-15,9.31-4.12,3.66-6.29,9.35-10.26,13.18-8.3,8-16.6,16.29-26.38,22.1-6.65,3.94-15.46,2.44-22,6.59-3.33,2.11-1.84,9.49-5.5,10.85-4.61,1.72-9.48-4.43-14.29-3.49-2.9.57-4.26,4.53-5.49,7.37-2.24,5.16-1.49,11.78-4.76,16.28-2.47,3.4-8,2.58-11,5.43-5.37,5.09-8.22,12.7-13.55,17.83-4.34,4.18-9.33,8.21-15,9.7a16.15,16.15,0,0,1-13.19-2.33c-3.09-2.27-2.69-7.52-4.76-10.86-2.86-4.6-5.11-10.61-9.89-12.79-3-1.35-6.25,2.18-8.8,4.27-4,3.3-5.71,10.19-10.62,11.63-5.64,1.64-11.47-4.55-17.22-3.49-3.66.67-4.35,8-8.06,8.14-4,.17-8.25-3.48-9.9-7.37-1.52-3.58,2.22-7.72,1.83-11.63s-4.82-7.06-4-10.85c1.72-8.24,8.05-14.65,11-22.49,1.13-3,3.14-7.26,1.1-9.69-1.65-2-4.53,2.27-7,2.71-5.43,1-11.4,3.82-16.48,1.55-4.1-1.82-7.34-7.33-7-12,.29-3.61,6.75-3,8.43-6.21,1.93-3.63-.19-8.62,1.47-12.4a6.42,6.42,0,0,1,5.49-3.49c3.32-.09,6.37,4.19,9.53,3.1,3.86-1.34,4.64-7.76,8.43-9.31,4.78-2,10.65,1.7,15.39-.38,2.24-1,2.42-4.81,2.19-7.37-.52-5.87-5.25-11.24-4.39-17.06.47-3.22,6.08-2.65,7.69-5.43s-.49-6.9,1.1-9.69a31.12,31.12,0,0,1,10.63-10.85c5.37-3.32,13.49-1.64,17.58-6.59,3.14-3.8-.41-10.15.37-15.12.94-6,2-12.16,4.76-17.45,1-2,4.59-.91,5.87-2.71,3.58-5.1,3.69-12.7,8.06-17.06,3-3,8-3.32,12.09-3.1,3.78.19,6.84,4.26,10.62,4.26,2.18,0,3-4.62,5.13-4.26,2.91.48,3.67,6,6.6,6.2,3.43.25,7.94-1.64,9.16-5,1.95-5.45-1.53-11.64-1.1-17.45.09-1.18,1.53-2.78,2.56-2.32,3.8,1.65,6.52,5.28,9.9,7.75,4.57,3.35,8.73,7.61,13.92,9.69,2.31.93,5.84.92,7.33-1.16,4.43-6.18,5-14.69,8.79-21.32,2.88-5,6.11-10.42,11-13.18,6.16-3.49,14.75-.46,20.51-4.66,7.94-5.78,12.23-15.75,18.32-23.65,3.68-4.76,6.5-10.43,11-14.34,3.88-3.37,8.79-8.66,13.55-7,3.44,1.21-4.05,6.37-5.86,9.69-2.34,4.31-8.82,8.81-6.59,13.19,1.9,3.75,8-1.45,11.72-3.11,3.34-1.49,6.39-8.68,9.16-6.2s-2,7.62-4.4,10.47a87.82,87.82,0,0,1-17.58,15.51c-3,2.05-7.6.94-10.26,3.49-2.92,2.79-2.35,8.3-5.13,11.24-6.48,6.85-15.46,10.64-22,17.44-2.49,2.6-4.54,6.39-4.39,10.08.07,1.73,3.17-.8,4.76-1.16,3.05-.68,6.05-2.07,9.16-1.94s6,3.34,9.16,2.72c3.93-.79,6.26-6.77,10.26-6.59,2.25.09-.28,5-1.47,7-3.06,5.24-7.95,9.1-11,14.35-1.67,2.89-6,8.74-2.93,9.69,5,1.52,10.15-3,14.29-6.2,7.29-5.71,11.62-15.26,19.42-20.16,4.11-2.58-5.78,8.16-7.69,12.79-.74,1.78-1.26,4.4,0,5.82s3.75,1,5.49.38c4.78-1.65,10.39-2.85,13.56-7,6.3-8.21,7.77-19.68,13.55-28.3,1.23-1.82,6.62-3.36,6.23-1.17C410,398,403,405.51,401,414.71c-.39,1.81,2.83,4,4.39,3.1A89.33,89.33,0,0,0,428.11,400c6.94-7.52,11.07-17.5,17.41-25.59a50.69,50.69,0,0,1,11-10.66c1.6-1.1,3.91,0,5.68-.78,3.39-1.47,5.9-5.22,9.52-5.81,3.93-.65,7.83,3.15,11.73,2.32a18.36,18.36,0,0,0,10.26-7c1.9-2.48.22-6.89,2.2-9.3,4-4.82,11-6.2,14.65-11.24,1.14-1.56-.86-4.45-2.56-5.24A27.24,27.24,0,0,0,493.51,324c-3.16.38-5,4.45-8.05,5.42-2.46.79-5.52-1.82-7.7-.38-6.33,4.19-9.87,12.26-16.31,16.28-1.49.93-3.42-1.91-3.84-3.68a24.59,24.59,0,0,1,.18-11.63,46.14,46.14,0,0,1,6.32-13.67,16.39,16.39,0,0,1,6.59-6c8.49-3.84,17.27-7.36,26.38-8.91,4.45-.76,9.21.31,13.38,2.13.26.11,1.12,9.64,7.33,7.17,2.77-1.1,2.8-5.6,4.76-7.95,1.81-2.17,5.41-2.73,6.41-5.42,1.3-3.49.82-7.65-.18-11.25-.22-.8-3-1.7-4.81-2-4.78-.88-8.83,3.43-11.13,4a4.18,4.18,0,0,1-4.21-1.74c-.54-.88.62-2.18,1.46-2.72,1.62-1,15.83-5.48,19.05-6.78,8.28-3.35,16.1-8.21,24.74-10.28,3.1-.74,6.19,2.64,9.34,2.14,2.9-.47,4.63-4.29,7.51-4.85a4.64,4.64,0,0,1,4.58,2.52c1.69,3.53-.43,8.83,2.2,11.63,5.81,6.19,15,7.72,21.25,13.38,3.51,3.16,4,9,7.33,12.4,3,3.08,7,7.68,11,6.4,2.93-.94.16-6.59-.73-9.69-2-7-6.76-13-7.88-20.16-.73-4.68,3-9.24,2.57-14-.34-3.62-5.49-6.13-4.77-9.69,1.19-5.86,7.94-9,9.71-14.73,1.22-3.89.45-8.55-1.28-12.22-1-2.14-3.79-3.06-6-3.29-3.62-.38-7.18,1.57-10.81,1.55-5.89,0-11.83-3-17.59-1.75-4.71,1.05-8.49,5-12.09,8.34-2.3,2.15-2.73,6.2-5.32,7.95-5.14,3.48-11.7,4-17,7.17-3.75,2.21-6,6.8-9.9,8.72-8.32,4.12-17.26,6.84-26.19,9.11-10.18,2.59-20.53,4.75-31,5.43-1.8.12-3.53-1.53-4.58-3.1-.63-.95-.67-2.76.19-3.49,2.38-2,6.26-1.58,8.42-3.88a29.18,29.18,0,0,0,6.42-11.82c1.17-4,3.91-10.08.73-12.6-3.93-3.12-10.17-.56-14.66,1.55-3.59,1.69-6,5.55-8.06,9.11-.92,1.61,0,3.78-.36,5.62-.26,1.31-.27,3.28-1.47,3.68-4.62,1.58-10-.27-14.47,1.75-7.86,3.54-14.21,10.06-21.62,14.54a154.72,154.72,0,0,1-19.79,10.47c-8,3.34-16.1,6.58-24.55,8.14a10.26,10.26,0,0,1-8.06-2.14c-1.11-.9.58-3.1,0-4.45-.67-1.59-3.93-2-3.48-3.69,1.48-5.52,6.6-9.32,8.43-14.73.69-2.05.32-5-1.28-6.4-1.4-1.18-3.68,0-5.32.78-6.81,3.21-13.71,6.47-19.78,11.05-4.26,3.21-6.71,8.59-10.81,12a18.77,18.77,0,0,1-7.51,3.29,1.45,1.45,0,0,1-1.65-1c-.25-1.42,1-2.85.73-4.26a7.37,7.37,0,0,0-2.56-4.26c-1.22-.92-3.07-1.7-4.4-1-3.23,1.75-5.78,4.76-8.06,7.75-1.45,1.88-.94,5.39-2.93,6.59-5.34,3.22-12.19,2.72-17.59,5.82-2.07,1.19-1.91,4.73-3.66,6.39-.78.73-2.79,1-3.12,0-.54-1.72,1.31-3.42,1.47-5.23.09-1.12-1.42-2.43-.74-3.3,4-5,9.84-8,13.74-13a2.7,2.7,0,0,0-.91-3.49,8.52,8.52,0,0,0-7.15-.2A301.52,301.52,0,0,0,262.22,303c-1.38,1-1.7,3.3-1.47,5,.18,1.36,3.21,1.91,2.57,3.1-2.26,4.16-6.95,6.27-9.71,10.08-1.18,1.62-.64,4.21-1.84,5.81s-3.86,1.38-4.76,3.11c-2.67,5.15-3.71,11.09-5.49,16.67-.72,2.24-.74,4.84-2,6.78-1.51,2.29-4.32,3.31-6.05,5.43-4.71,5.8-7.63,13.33-13.19,18.22-2.8,2.46-7,2.82-10.62,2.71-1.38,0-1.59-2.74-2.93-3.1-2.78-.74-5.9,1-8.61,0-1.1-.39-1.62-2.39-1.1-3.49,3.19-6.7,7.72-12.6,11.72-18.8s8.53-11.69,12.09-18c.56-1,.8-2.69,0-3.49s-2.24-.21-3.11.39c-2.06,1.42-3.39,3.81-5.31,5.43-1.09.92-2.73,1-3.67,2.13s-.75,2.94-1.65,4.07c-5.55,7-12.14,13.06-17.58,20.16-3.75,4.89-5.43,11.55-9.9,15.7-2.08,1.94-5.73-.08-8.24,1.17-6,3-10.63,8.45-16.67,11.24-1,.46-2.4-1.4-2.2-2.52.35-1.94,2.7-2.86,3.48-4.65,1.57-3.64,1.09-8.34,3.48-11.44.9-1.16,2.58,2.62,3.85,1.94,3.93-2.11,7.21-5.6,9.89-9.31,6.91-9.56,12-20.51,18.69-30.24,5.88-8.52,13.11-15.94,19-24.42A65.22,65.22,0,0,0,217.15,301c.26-.6.25-2-.37-1.94-3.09.19-5.88,2.63-9,2.52-1.09,0-2.31-1.86-1.83-2.91,4.78-10.43,11.69-19.63,16.86-29.85.91-1.81,2.13-4.16,1.28-6-.62-1.34-2.9-.93-4.21-.39a30.68,30.68,0,0,0-9.72,6.2c-8.79,8.66-15.53,19.55-24.73,27.73-3.66,3.25-9.62,2.63-13.19,6-8,7.54-12.51,18.69-20.7,26s-17.72,12.51-27.48,16.86c-1.72.77-4-.72-5.13-2.32-.82-1.22-.14-3.15.55-4.46,2.55-4.88,6.69-8.74,9-13.76,1.69-3.72.45-8.69,2.74-12,3.37-4.91,9.43-7,13.38-11.44a140.57,140.57,0,0,0,13.55-18.61c1.22-1.9,4-4.84,2.39-6.39-1.86-1.83-5.38-.11-7.52,1.35-8.64,5.92-16.32,13.31-24.18,20.36-6.93,6.21-14.35,12-20.15,19.38-3.28,4.18-2.67,11.23-6.59,14.73s-10.57,1.11-14.66,4.27c-4.94,3.8-6.87,10.74-11,15.5s-10,7.43-13.38,12.6c-15.74,23.77-19.19,45.75-28.24,71.81Z"/><path class="cls-9" d="M179.59,380.88c-2.08,1.94-5.73-.08-8.24,1.17-6,3-10.63,8.45-16.67,11.24-1,.46-2.4-1.4-2.2-2.52.35-1.94,2.7-2.86,3.48-4.65,1.57-3.64,1.09-8.34,3.48-11.44.9-1.16,2.58,2.62,3.85,1.94,3.93-2.11,7.21-5.6,9.89-9.31,6.91-9.56,12-20.51,18.69-30.24,5.88-8.52,13.11-15.94,19-24.42A65.22,65.22,0,0,0,217.15,301c.26-.6.25-2-.37-1.94-3.09.19-5.88,2.63-9,2.52-1.09,0-2.31-1.86-1.83-2.91,4.78-10.43,11.69-19.63,16.86-29.85.91-1.81,2.13-4.16,1.28-6-.62-1.34-2.9-.93-4.21-.39a30.68,30.68,0,0,0-9.72,6.2c-8.79,8.66-15.53,19.55-24.73,27.73-3.66,3.25-9.62,2.63-13.19,6-8,7.54-12.51,18.69-20.7,26s-17.72,12.51-27.48,16.86c-1.72.77-4-.72-5.13-2.32-.82-1.22-.14-3.15.55-4.46,2.55-4.88,6.69-8.74,9-13.76,1.69-3.72.45-8.69,2.74-12,3.37-4.91,9.43-7,13.38-11.44a140.57,140.57,0,0,0,13.55-18.61c1.22-1.9,4-4.84,2.39-6.39-1.86-1.83-5.38-.11-7.52,1.35-8.64,5.92-16.32,13.31-24.18,20.36-3.64,3.26-7.43,6.41-11,9.74-.52,2-1.06,4-1.71,6A115.37,115.37,0,0,1,111,327.26a54.12,54.12,0,0,1-5.13,8.14c-4.25,5.93-10,10.82-13.19,17.44a71.25,71.25,0,0,0-6.23,22.49c-.93,7.82.66,15.76.74,23.65,0,5,.52,10.16-.37,15.12-.85,4.74-3,9.1-4.76,13.57-1.82,4.71-4.65,9-5.87,13.95-1.14,4.65-2,9.66-1.09,14.35,1.2,6,5.43,10.88,7.32,16.67,1.55,4.74,3,9.71,2.94,14.73-.09,11.05-3.3,21.91-3.3,33,0,2.84,1.59,5.57,3.29,7.76a10.41,10.41,0,0,0,5.5,3.49c4.35,1.12,9.13-.16,13.37,1.35,1.35.48,1.9,2.57,1.84,4.07a21,21,0,0,1-2.39,8.34c-1.32,2.64-4,4.33-5.31,7-1,2.06-1,4.51-1.46,6.78,0,.26-.22.67,0,.78,2.23,1.12,4.88,1.29,7,2.71,2.65,1.81,6.45,3.49,7,6.79.55,3.53-4.17,6.11-4.4,9.69-.17,2.77,1,6.16,3.3,7.56,5.39,3.34,11.91,4,17.95,5.62,1.13.3,3.05-1,3.49.19.94,2.46-1.45,5.56-.37,8,1.18,2.62,5.58,2.67,6.41,5.43.9,3-2.08,6-2,9.11a15.19,15.19,0,0,0,2.38,8.14A94.89,94.89,0,0,0,152,639.54c3.45,3.14,7.19,7.07,11.73,7.36s7.93-5.4,12.45-5.81c3.17-.29,7.72.71,8.8,3.87,1.67,4.92-4.17,10.72-2.2,15.51,1.3,3.16,6.27,2.11,9.53,2.33,4.63.31,10-3.39,13.92-.78,3.77,2.5,2.73,9,4.76,13.19,3,6.19,4.73,14.07,10.26,17.83,7.4,5,17.05,4.61,25.65,6.59,3.75.86,8.3-.51,11.36,1.94,4,3.22,4.09,10.27,8.06,13.57,3.38,2.8,8.34,4.8,12.46,3.49,8.14-2.6,13.85-10.66,21.62-14.35,5.48-2.6,11.63-3.35,17.58-4.26,5.09-.78,10.3-1.47,15.39-.78,6.53.88,12.51,6.13,19.06,5.43,8.73-.93,16.51-6.35,24.54-10.08,10.91-5.06,21.62-10.6,32.25-16.28,2.21-1.18,3.95-3.26,6.23-4.27,9.21-4.08,18.71-7.48,28.14-11a5.45,5.45,0,0,1,.83-3.29c1.11-1.34,4.14.41,4.94-1.16a26.19,26.19,0,0,0,2.94-14.15,6.06,6.06,0,0,0-4.77-4.84c-3.69-.6-7.39,1.26-11,2.32-1,.31-1.69,1.56-2.75,1.75-1.69.29-4.34,1.22-5.13-.39s2-3.1,2.57-4.85c.42-1.29-.24-2.87.36-4.07,1.84-3.64,5.16-6.33,6.78-10.08,1-2.37,2.8-6.07.92-7.75-3.34-3-8.46-3.2-12.83-2.91-2.83.19-4.76,3.49-7.51,4.26-3.79,1.07-8.39-1-11.72,1.17-2.28,1.5-.89,5.78-2.38,8.14-.78,1.23-2.88.69-3.85,1.75a7.49,7.49,0,0,0-1.83,4.45c-.26,3.49,3,7.94.73,10.47-2,2.24-6.24.06-8.61-1.74-2.18-1.65-1.43-6-3.67-7.56-2.91-2-7-3.47-10.25-2.14-4.51,1.86-7.58,6.55-10.45,10.67-1.69,2.43-.15,7.8-2.93,8.52-3.91,1-7.34-6.14-11.17-4.84-5,1.68-8.06,7.4-10.63,12.21-1.08,2,1.79,5.2.37,7s-4.55-.12-6.6.78c-2.26,1-3.46,4.2-5.86,4.65-2,.37-3.51-2.71-5.5-2.52s-2.82,2.77-4.58,3.49c-3.88,1.58-8.29,1.5-12.09,3.29-1.85.87-2.51,3.66-4.4,4.46s-3.94-1-5.68-.19c-2.45,1.13-3.38,6-6,5.62-6.24-.79-10.76-8.67-17-8.53-4.42.09-5.74,8.19-10.07,9.11-2.54.54-3-5.26-5.5-5.82-2.93-.64-5.71,1.94-8.61,2.72-4.21,1.12-10.59-1-10.81-4.85-.41-7.4,8.76-22.11,23.08-26.94,7.16-2.42,15.17,1.71,22.54.19a18.71,18.71,0,0,0,11.36-7.17c1.6-2.29.71-5.92-.37-8.53-1.49-3.57-6.14-5.3-7-9.11-.56-2.56,2.42-4.6,3.48-7,1.13-2.54.52-7.18,3.11-7.75,2.42-.54,4,3.53,4.77,6,.41,1.28-1.39,2.35-1.65,3.68-.48,2.41-1.57,5.15-.55,7.37.69,1.5,3,1.3,4.58,1.35,2.46.08,4.88-1.23,7.33-1,3.15.34,6.12,3.68,9.16,2.72,2.83-.9,5-4.28,5.49-7.37.6-3.86-2.56-7.52-2.56-11.44,0-7,.46-14.26,2.56-20.93,1.07-3.39,5.27-4.86,6.6-8.14,2.79-6.89,2.15-15.11,5.49-21.71a86.47,86.47,0,0,1,16.86-22.49c4.78-4.68,11.84-6.07,16.85-10.47,3.69-3.23,4.75-9.31,8.8-12,7.56-5,17.62-5,24.91-10.46,5.29-4,8.53-10.51,11.36-16.67,1.68-3.65,3.79-8.53,1.83-12-1.33-2.38-5.62-.13-7.69,1.55-6.16,5-10,12.77-16.12,17.83-7.91,6.53-17.06,11.19-25.65,16.67-5,3.18-10.58,5.36-15,9.31-4.12,3.66-6.29,9.35-10.26,13.18-8.3,8-16.6,16.29-26.38,22.1-6.65,3.94-15.46,2.44-22,6.59-3.33,2.11-1.84,9.49-5.5,10.85-4.61,1.72-9.48-4.43-14.29-3.49-2.9.57-4.26,4.53-5.49,7.37-2.24,5.16-1.49,11.78-4.76,16.28-2.47,3.4-8,2.58-11,5.43-5.37,5.09-8.22,12.7-13.55,17.83-4.34,4.18-9.33,8.21-15,9.7a16.15,16.15,0,0,1-13.19-2.33c-3.09-2.27-2.69-7.52-4.76-10.86-2.86-4.6-5.11-10.61-9.89-12.79-3-1.35-6.25,2.18-8.8,4.27-4,3.3-5.71,10.19-10.62,11.63-5.64,1.64-11.47-4.55-17.22-3.49-3.66.67-4.35,8-8.06,8.14-4,.17-8.25-3.48-9.9-7.37-1.52-3.58,2.22-7.72,1.83-11.63s-4.82-7.06-4-10.85c1.72-8.24,8.05-14.65,11-22.49,1.13-3,3.14-7.26,1.1-9.69-1.65-2-4.53,2.27-7,2.71-5.43,1-11.4,3.82-16.48,1.55-4.1-1.82-7.34-7.33-7-12,.29-3.61,6.75-3,8.43-6.21,1.93-3.63-.19-8.62,1.47-12.4a6.42,6.42,0,0,1,5.49-3.49c3.32-.09,6.37,4.19,9.53,3.1,3.86-1.34,4.64-7.76,8.43-9.31,4.78-2,10.65,1.7,15.39-.38,2.24-1,2.42-4.81,2.19-7.37-.52-5.87-5.25-11.24-4.39-17.06.47-3.22,6.08-2.65,7.69-5.43s-.49-6.9,1.1-9.69a31.12,31.12,0,0,1,10.63-10.85c5.37-3.32,13.49-1.64,17.58-6.59,3.14-3.8-.41-10.15.37-15.12.94-6,2-12.16,4.76-17.45,1-2,4.59-.91,5.87-2.71,3.58-5.1,3.69-12.7,8.06-17.06,3-3,8-3.32,12.09-3.1,3.78.19,6.84,4.26,10.62,4.26,2.18,0,3-4.62,5.13-4.26,2.91.48,3.67,6,6.6,6.2,3.43.25,7.94-1.64,9.16-5,1.95-5.45-1.53-11.64-1.1-17.45.09-1.18,1.53-2.78,2.56-2.32,3.8,1.65,6.52,5.28,9.9,7.75,4.57,3.35,8.73,7.61,13.92,9.69,2.31.93,5.84.92,7.33-1.16,4.43-6.18,5-14.69,8.79-21.32,2.88-5,6.11-10.42,11-13.18,6.16-3.49,14.75-.46,20.51-4.66,7.94-5.78,12.23-15.75,18.32-23.65,3.68-4.76,6.5-10.43,11-14.34,3.88-3.37,8.79-8.66,13.55-7,3.44,1.21-4.05,6.37-5.86,9.69-2.34,4.31-8.82,8.81-6.59,13.19,1.9,3.75,8-1.45,11.72-3.11,3.34-1.49,6.39-8.68,9.16-6.2s-2,7.62-4.4,10.47a87.82,87.82,0,0,1-17.58,15.51c-3,2.05-7.6.94-10.26,3.49-2.92,2.79-2.35,8.3-5.13,11.24-6.48,6.85-15.46,10.64-22,17.44-2.49,2.6-4.54,6.39-4.39,10.08.07,1.73,3.17-.8,4.76-1.16,3.05-.68,6.05-2.07,9.16-1.94s6,3.34,9.16,2.72c3.93-.79,6.26-6.77,10.26-6.59,2.25.09-.28,5-1.47,7-3.06,5.24-7.95,9.1-11,14.35-1.67,2.89-6,8.74-2.93,9.69,5,1.52,10.15-3,14.29-6.2,7.29-5.71,11.62-15.26,19.42-20.16,4.11-2.58-5.78,8.16-7.69,12.79-.74,1.78-1.26,4.4,0,5.82s3.75,1,5.49.38c4.78-1.65,10.39-2.85,13.56-7,6.3-8.21,7.77-19.68,13.55-28.3,1.23-1.82,6.62-3.36,6.23-1.17C410,398,403,405.51,401,414.71c-.39,1.81,2.83,4,4.39,3.1A89.33,89.33,0,0,0,428.11,400c6.94-7.52,11.07-17.5,17.41-25.59a50.69,50.69,0,0,1,11-10.66c1.6-1.1,3.91,0,5.68-.78,3.39-1.47,5.9-5.22,9.52-5.81,3.93-.65,7.83,3.15,11.73,2.32a18.36,18.36,0,0,0,10.26-7c1.9-2.48.22-6.89,2.2-9.3,4-4.82,11-6.2,14.65-11.24,1.14-1.56-.86-4.45-2.56-5.24A27.24,27.24,0,0,0,493.51,324c-3.16.38-5,4.45-8.05,5.42-2.46.79-5.52-1.82-7.7-.38-6.33,4.19-9.87,12.26-16.31,16.28-1.49.93-3.42-1.91-3.84-3.68a24.59,24.59,0,0,1,.18-11.63,46.14,46.14,0,0,1,6.32-13.67,16.39,16.39,0,0,1,6.59-6c8.49-3.84,17.27-7.36,26.38-8.91,4.45-.76,9.21.31,13.38,2.13.26.11,1.12,9.64,7.33,7.17,2.77-1.1,2.8-5.6,4.76-7.95,1.81-2.17,5.41-2.73,6.41-5.42,1.3-3.49.82-7.65-.18-11.25-.22-.8-3-1.7-4.81-2-4.78-.88-8.83,3.43-11.13,4a4.18,4.18,0,0,1-4.21-1.74c-.54-.88.62-2.18,1.46-2.72,1.62-1,15.83-5.48,19.05-6.78,8.28-3.35,16.1-8.21,24.74-10.28,3.1-.74,6.19,2.64,9.34,2.14,2.9-.47,4.63-4.29,7.51-4.85a4.64,4.64,0,0,1,4.58,2.52c1.69,3.53-.43,8.83,2.2,11.63,5.81,6.19,15,7.72,21.25,13.38,3.51,3.16,4,9,7.33,12.4,3,3.08,7,7.68,11,6.4,2.93-.94.16-6.59-.73-9.69-2-7-6.76-13-7.88-20.16-.73-4.68,3-9.24,2.57-14-.34-3.62-5.49-6.13-4.77-9.69,1.19-5.86,7.94-9,9.71-14.73,1.22-3.89.45-8.55-1.28-12.22-1-2.14-3.79-3.06-6-3.29-3.62-.38-7.18,1.57-10.81,1.55-5.89,0-11.83-3-17.59-1.75-4.71,1.05-8.49,5-12.09,8.34-2.3,2.15-2.73,6.2-5.32,7.95-5.14,3.48-11.7,4-17,7.17-3.75,2.21-6,6.8-9.9,8.72-8.32,4.12-17.26,6.84-26.19,9.11-10.18,2.59-20.53,4.75-31,5.43-1.8.12-3.53-1.53-4.58-3.1-.63-.95-.67-2.76.19-3.49,2.38-2,6.26-1.58,8.42-3.88a29.18,29.18,0,0,0,6.42-11.82c1.17-4,3.91-10.08.73-12.6-3.93-3.12-10.17-.56-14.66,1.55-3.59,1.69-6,5.55-8.06,9.11-.92,1.61,0,3.78-.36,5.62-.26,1.31-.27,3.28-1.47,3.68-4.62,1.58-10-.27-14.47,1.75-7.86,3.54-14.21,10.06-21.62,14.54a154.72,154.72,0,0,1-19.79,10.47c-8,3.34-16.1,6.58-24.55,8.14a10.26,10.26,0,0,1-8.06-2.14c-1.11-.9.58-3.1,0-4.45-.67-1.59-3.93-2-3.48-3.69,1.48-5.52,6.6-9.32,8.43-14.73.69-2.05.32-5-1.28-6.4-1.4-1.18-3.68,0-5.32.78-6.81,3.21-13.71,6.47-19.78,11.05-4.26,3.21-6.71,8.59-10.81,12a18.77,18.77,0,0,1-7.51,3.29,1.45,1.45,0,0,1-1.65-1c-.25-1.42,1-2.85.73-4.26a7.37,7.37,0,0,0-2.56-4.26c-1.22-.92-3.07-1.7-4.4-1-3.23,1.75-5.78,4.76-8.06,7.75-1.45,1.88-.94,5.39-2.93,6.59-5.34,3.22-12.19,2.72-17.59,5.82-2.07,1.19-1.91,4.73-3.66,6.39-.78.73-2.79,1-3.12,0-.54-1.72,1.31-3.42,1.47-5.23.09-1.12-1.42-2.43-.74-3.3,4-5,9.84-8,13.74-13a2.7,2.7,0,0,0-.91-3.49,8.52,8.52,0,0,0-7.15-.2A301.52,301.52,0,0,0,262.22,303c-1.38,1-1.7,3.3-1.47,5,.18,1.36,3.21,1.91,2.57,3.1-2.26,4.16-6.95,6.27-9.71,10.08-1.18,1.62-.64,4.21-1.84,5.81s-3.86,1.38-4.76,3.11c-2.67,5.15-3.71,11.09-5.49,16.67-.72,2.24-.74,4.84-2,6.78-1.51,2.29-4.32,3.31-6.05,5.43-4.71,5.8-7.63,13.33-13.19,18.22-2.8,2.46-7,2.82-10.62,2.71-1.38,0-1.59-2.74-2.93-3.1-2.78-.74-5.9,1-8.61,0-1.1-.39-1.62-2.39-1.1-3.49,3.19-6.7,7.72-12.6,11.72-18.8s8.53-11.69,12.09-18c.56-1,.8-2.69,0-3.49s-2.24-.21-3.11.39c-2.06,1.42-3.39,3.81-5.31,5.43-1.09.92-2.73,1-3.67,2.13s-.75,2.94-1.65,4.07c-5.55,7-12.14,13.06-17.58,20.16-3.75,4.89-5.43,11.55-9.9,15.7Z"/><path class="cls-10" d="M370.2,315.88c7.83-3.55,14.11-18.18,28.58-14,2.54.74,4.77,16.58,19.78,8.92,10.56-5.4,18.4-15.57,28.58-21.71,21.5-13,28.34-.88,8.8,22.48-8.33,9.95-16.91,19.7-24.55,30.24-1.7,2.34-3.3,5.19-3.3,8.14s2.21,5.69,3.3,8.53c2.51,6.55,4.4,6.3-3.3,12-4.83,3.59-10.63,5.6-15.39,9.31-4.1,3.19-8.37,6.61-11,11.24-4,7.07-5.14,15.6-8.43,23.07a44.52,44.52,0,0,1-3.29,5.93,11.82,11.82,0,0,0,1.85-1.89c6.3-8.21,7.77-19.68,13.55-28.3,1.23-1.82,6.62-3.36,6.23-1.17C410,398,403,405.51,401,414.71c-.39,1.81,2.83,4,4.39,3.1A89.33,89.33,0,0,0,428.11,400c6.94-7.52,11.07-17.5,17.41-25.59a50.69,50.69,0,0,1,11-10.66c1.6-1.1,3.91,0,5.68-.78,3.39-1.47,5.9-5.22,9.52-5.81,3.93-.65,7.83,3.15,11.73,2.32a18.36,18.36,0,0,0,10.26-7c1.9-2.48.22-6.89,2.2-9.3,4-4.82,11-6.2,14.65-11.24,1.14-1.56-.86-4.45-2.56-5.24A27.24,27.24,0,0,0,493.51,324c-3.16.38-5,4.45-8.05,5.42-2.46.79-5.52-1.82-7.7-.38-6.33,4.19-9.87,12.26-16.31,16.28-1.49.93-3.42-1.91-3.84-3.68a24.59,24.59,0,0,1,.18-11.63,46.14,46.14,0,0,1,6.32-13.67,16.39,16.39,0,0,1,6.59-6c8.49-3.84,17.27-7.36,26.38-8.91,4.45-.76,9.21.31,13.38,2.13.26.11,1.12,9.64,7.33,7.17,2.77-1.1,2.8-5.6,4.76-7.95,1.81-2.17,5.41-2.73,6.41-5.42,1.3-3.49.82-7.65-.18-11.25-.22-.8-3-1.7-4.81-2-4.78-.88-8.83,3.43-11.13,4a4.18,4.18,0,0,1-4.21-1.74c-.54-.88.62-2.18,1.46-2.72,1.62-1,15.83-5.48,19.05-6.78,8.28-3.35,16.1-8.21,24.74-10.28,3.1-.74,6.19,2.64,9.34,2.14,2.9-.47,4.63-4.29,7.51-4.85a4.64,4.64,0,0,1,4.58,2.52c1.69,3.53-.43,8.83,2.2,11.63,5.81,6.19,15,7.72,21.25,13.38,3.51,3.16,4,9,7.33,12.4,3,3.08,7,7.68,11,6.4,2.93-.94.16-6.59-.73-9.69-2-7-6.76-13-7.88-20.16-.73-4.68,3-9.24,2.57-14-.34-3.62-5.49-6.13-4.77-9.69,1.19-5.86,7.94-9,9.71-14.73,1.22-3.89.45-8.55-1.28-12.22-1-2.14-3.79-3.06-6-3.29-3.62-.38-7.18,1.57-10.81,1.55-5.89,0-11.83-3-17.59-1.75-4.71,1.05-8.49,5-12.09,8.34-2.3,2.15-2.73,6.2-5.32,7.95-5.14,3.48-11.7,4-17,7.17-3.75,2.21-6,6.8-9.9,8.72-8.32,4.12-17.26,6.84-26.19,9.11-10.18,2.59-20.53,4.75-31,5.43-1.8.12-3.53-1.53-4.58-3.1-.63-.95-.67-2.76.19-3.49,2.38-2,6.26-1.58,8.42-3.88a29.18,29.18,0,0,0,6.42-11.82c1.17-4,3.91-10.08.73-12.6-3.93-3.12-10.17-.56-14.66,1.55-3.59,1.69-6,5.55-8.06,9.11-.92,1.61,0,3.78-.36,5.62-.26,1.31-.27,3.28-1.47,3.68-4.62,1.58-10-.27-14.47,1.75-7.86,3.54-14.21,10.06-21.62,14.54a154.72,154.72,0,0,1-19.79,10.47c-8,3.34-16.1,6.58-24.55,8.14a10.26,10.26,0,0,1-8.06-2.14c-1.11-.9.58-3.1,0-4.45-.67-1.59-3.93-2-3.48-3.69,1.48-5.52,6.6-9.32,8.43-14.73.69-2.05.32-5-1.28-6.4-1.4-1.18-3.68,0-5.32.78-6.81,3.21-13.71,6.47-19.78,11.05-4.26,3.21-6.71,8.59-10.81,12a18.77,18.77,0,0,1-7.51,3.29,1.45,1.45,0,0,1-1.65-1c-.25-1.42,1-2.85.73-4.26a7.37,7.37,0,0,0-2.56-4.26c-1.22-.92-3.07-1.7-4.4-1-3.23,1.75-5.78,4.76-8.06,7.75-1.45,1.88-.94,5.39-2.93,6.59-5.34,3.22-12.19,2.72-17.59,5.82-2.07,1.19-1.91,4.73-3.66,6.39-.78.73-2.79,1-3.12,0-.54-1.72,1.31-3.42,1.47-5.23.09-1.12-1.42-2.43-.74-3.3,4-5,9.84-8,13.74-13a2.7,2.7,0,0,0-.91-3.49,8.52,8.52,0,0,0-7.15-.2A301.52,301.52,0,0,0,262.22,303c-1.38,1-1.7,3.3-1.47,5,.18,1.36,3.21,1.91,2.57,3.1-2.26,4.16-6.95,6.27-9.71,10.08-1.18,1.62-.64,4.21-1.84,5.81s-3.86,1.38-4.76,3.11c-2.67,5.15-3.71,11.09-5.49,16.67-.72,2.24-.74,4.84-2,6.78-1.51,2.29-4.32,3.31-6.05,5.43-4.71,5.8-7.63,13.33-13.19,18.22a8.77,8.77,0,0,1-2,1.32,16.7,16.7,0,0,0,5.56-2c3.1-2.08,5.07-5.69,8.06-7.95,1-.73,2.5-1.48,3.48-.77s1.45,2.71,1.1,4.07c-9,34.71,15.32-3.42,23.63-12,.92-.95,3.05.87,3.85-.19,6.69-8.9,10.22-23.67,16.12-31.21,10.31-13.18-9.94,45.66,13.56,23.45.19-.18,40.18-57.5,27.85-28.69-3.35,7.81,6.58,1.65,9.52.39,4.44-1.9,6.66-8.35,11.36-9.3,3-.62,4.62,5.25,7.7,5.42a43.63,43.63,0,0,0,20.15-3.87Zm-283,41.49c2-3.18,4.57-6.71,8.06-7.75,1.75-.52,1.87,4,3.67,4.26s8.07-6.16,13.92-.77c1.39,1.27,1.32,4.16.37,5.81-3.3,5.71-9.22,9.38-12.46,15.12-4.24,7.51,4.24,10.46,8.06,7,6.41-5.83,9.73-14.68,15.39-21.32,3.72-4.38,6.48-3.34,6.52-.35.06,6.44-4,13.68,0,14.2,1.54.2,3.83-.67,5.6-2.71a75.16,75.16,0,0,0,9.9-14.24c4.19-7.88,3.64-20.85,12.45-22.49,2.25-.42,4.34,1.6,6.6,1.94,7.25,1.09,8.69-13.24,13.19-20.55,3.23-5.25,9.35.87,11.36,1.16a6.16,6.16,0,0,0,4.76-1.55c9.37-8.28,4.88-8.33,6.6-15.31a37,37,0,0,1,3.48-7.95c6.06-11.78,10.46-19.22,19.76-27.34a3.55,3.55,0,0,0-.28-1.68c-.62-1.34-2.9-.93-4.21-.39a30.68,30.68,0,0,0-9.72,6.2c-8.79,8.66-15.53,19.55-24.73,27.73-3.66,3.25-9.62,2.63-13.19,6-8,7.54-12.51,18.69-20.7,26s-17.72,12.51-27.48,16.86c-1.72.77-4-.72-5.13-2.32-.82-1.22-.14-3.15.55-4.46,2.55-4.88,6.69-8.74,9-13.76,1.69-3.72.45-8.69,2.74-12,3.37-4.91,9.43-7,13.38-11.44a140.57,140.57,0,0,0,13.55-18.61c1.22-1.9,4-4.84,2.39-6.39-1.86-1.83-5.38-.11-7.52,1.35-8.64,5.92-16.32,13.31-24.18,20.36-6.93,6.21-14.35,12-20.15,19.38-3.28,4.18-2.67,11.23-6.59,14.73s-10.57,1.11-14.66,4.27c-4.94,3.8-6.87,10.74-11,15.5s-10,7.43-13.38,12.6A131.18,131.18,0,0,0,53,382.69a186,186,0,0,0-7.18,18.7c1.2-2.15,2.48-4.33,3.82-6.46,7.2-11.52,15.88-21.87,20-21.28,2.3.34.69,4.94.36,7.37-.48,3.55,1.77,6.29,4.77.78,4.35-8,7.56-16.76,12.45-24.43Z"/><path class="cls-11" d="M130.59,548.07c1.93-3.63-.19-8.62,1.47-12.4a6.42,6.42,0,0,1,5.49-3.49c3.32-.09,6.37,4.19,9.53,3.1,3.86-1.34,4.64-7.76,8.43-9.31,4.78-2,10.65,1.7,15.39-.38,2.24-1,2.42-4.81,2.19-7.37-.52-5.87-5.25-11.24-4.39-17.06.47-3.22,6.08-2.65,7.69-5.43s-.49-6.9,1.1-9.69a31.12,31.12,0,0,1,10.63-10.85c5.37-3.32,13.49-1.64,17.58-6.59,3.14-3.8-.41-10.15.37-15.12.94-6,2-12.16,4.76-17.45,1-2,4.59-.91,5.87-2.71,3.58-5.1,3.69-12.7,8.06-17.06a9.12,9.12,0,0,1,2.27-1.64c-2.3.58-4.64,1.09-6.39,2.67-2.56,2.3-1.42,10.27-6.42,10.66-1.38.11-7.7-4.25-10.44.39-2,3.41,1.71,10.67,1.1,13-.37,1.38-2.69,1.23-3.3,2.52-.82,1.73.62,10.1-6.41,13.18-3.81,1.66-12.9-5.21-15.94,4.07-1.41,4.3,3.6,13.65-2.56,16.09-1.89.74-4.3.59-5.68,2.13s0,4.57-1.47,5.81c-22.75,19-41.31,2.72-63,23.07-9.72,9.11-9.08,17.38.83,16.19,4.34-.52,8.29-1.73,10.16,2.42,1.25,2.77-.46,6.46-2.2,8.92-4.86,6.9-26.28,16.1-28.76,25.2-2.12,7.79,12.08,4.63,11.54,8.53-.29,2.12-17.4,23.65-1.46,31.79,7.72,3.94,17.48-5.13,25.64-2.33,3.52,1.21-.09,8.09,1.47,11.63,1.75,4,6.79,5.89,8.06,10.08.92,3-2.75,6.16-2.2,9.31.76,4.32,6.79,7.34,5.87,11.63-2.25,10.42-21.77,31.16-14.12,41.59,5.32,7.25,24.19-9.24,35.83-19.78,22.47-20.37,6,14.62,22.25,2.22,7.15-5.45,12.08-13.58,18.32-20.16,8.75-9.2,10.35,4.54,24.19-1.55,4.52-2,8.13-5.76,12.27-8.53,13.08-8.74,13-.81,8.47,4.24-5.72,6.42,2.32,11.1,4.91,4.2,1.54-4.12,3.42-11.33,5.49-17.68,3.88-11.9,10-20,15.17-12.57,1.44,2.05,4.1,2.74,6.08-1.25,1.26-2.52,3.19-11.16,5.08-17.82,3.28-11.53,5.73-10.39,4.49-.37-.42,3.35-1,7.26-.63,10.31.77,6.64,4.74,7.44,7.55.85,2.65-6.22,5.47-17.43,7.51-24.18,1.32-4.34,5.35-10.14,9.95-12.59,3.95-2.11,4.31.45,4.18,2.38-.08,1.34.26,2.49,1.47,2.84,7.2,2.12,31.41-31.92,35.33-38.77a56.94,56.94,0,0,1,6.42-9.69c3.13-3.51,14.91-9.49,19.23-11.63,6-3,12.56-4.83,18.32-8.34a40.86,40.86,0,0,0,10.08-8.91c2.68-3.23,4.13-7.41,6.41-10.95,2.62-4.08,6.9-9.21,8.76-5.54a5.57,5.57,0,0,0-.61-1.6c-1.33-2.38-5.62-.13-7.69,1.55-6.16,5-10,12.77-16.12,17.83-7.91,6.53-17.06,11.19-25.65,16.67-5,3.18-10.58,5.36-15,9.31-4.12,3.66-6.29,9.35-10.26,13.18-8.3,8-16.6,16.29-26.38,22.1-6.65,3.94-15.46,2.44-22,6.59-3.33,2.11-1.84,9.49-5.5,10.85-4.61,1.72-9.48-4.43-14.29-3.49-2.9.57-4.26,4.53-5.49,7.37-2.24,5.16-1.49,11.78-4.76,16.28-2.47,3.4-8,2.58-11,5.43-5.37,5.09-8.22,12.7-13.55,17.83-4.34,4.18-9.33,8.21-15,9.7a16.15,16.15,0,0,1-13.19-2.33c-3.09-2.27-2.69-7.52-4.76-10.86-2.86-4.6-5.11-10.61-9.89-12.79-3-1.35-6.25,2.18-8.8,4.27-4,3.3-5.71,10.19-10.62,11.63-5.64,1.64-11.47-4.55-17.22-3.49-3.66.67-4.35,8-8.06,8.14-4,.17-8.25-3.48-9.9-7.37-1.52-3.58,2.22-7.72,1.83-11.63s-4.82-7.06-4-10.85c1.72-8.24,8.05-14.65,11-22.49,1.13-3,3.14-7.26,1.1-9.69-1.65-2-4.53,2.27-7,2.71-5.43,1-11.4,3.82-16.48,1.55-4.1-1.82-7.34-7.33-7-12,.29-3.61,6.75-3,8.43-6.21ZM141.17,474c-3.16-2.66-8.86-3.48-12.43-1.52-1.27.7-1.94,3.09-3.1,4-2.28,1.79-9.32,3.31-14.35,7.34-2,1.63-4.27,3.34-5.38,5.88-1.41,3.23,0,3.76,1.13,3.68,7.25-.56,14.11-4.06,21.27-5.39a90.4,90.4,0,0,1,13.14-1.18c7.39-.13,6.11-7.46-.28-12.82Z"/><path class="cls-12" d="M366.92,643.06c-1.69,2.43-.15,7.8-2.93,8.52-3.91,1-7.34-6.14-11.17-4.84-5,1.68-8.06,7.4-10.63,12.21-1.08,2,1.79,5.2.37,7s-4.55-.12-6.6.78c-2.26,1-3.46,4.2-5.86,4.65-2,.37-3.51-2.71-5.5-2.52s-2.82,2.77-4.58,3.49c-3.88,1.58-8.29,1.5-12.09,3.29-1.85.87-2.51,3.66-4.4,4.46s-3.94-1-5.68-.19c-2.45,1.13-3.38,6-6,5.62-6.24-.79-10.76-8.67-17-8.53-4.42.09-5.74,8.19-10.07,9.11-2.54.54-3-5.26-5.5-5.82-2.93-.64-5.71,1.94-8.61,2.72-4.21,1.12-10.59-1-10.81-4.85-.18-3.26,1.5-7.95,4.67-12.59-.62.64-1.23,1.29-1.79,2-3,3.73-12,23.62-3.66,23.36,2.71-.09,6.89-4.73,10.44-2.72,1.5.85,1.46,3.87,3.11,4.27,2.87.69,5.2-5,8.25-.2s1.89,9.45,10.81,11.25c9.47,1.91,9.92-5.64,13.92-8.15,1.21-.76,2.87.84,4.22.39,2.63-.88,6.32-10.73,14.65-8.92,2.23.49,3.69,4.38,5.86,3.69s2.2-6.54,6.19-9.14c3.7-2.42,6.34,1.19,8.65.61,1.54-.39,1.86-1.83,3.39-2.23s2.4.31,4.13.29c3.31,0,6.42-2.82,9.71-2.32s7.54,13.58,17.4,5.62c5.56-4.49,2.57-14.64,5.13-21.52,1.8-4.85,6.91-4.33,7-.58a24.45,24.45,0,0,1-1.28,6.66c-.68,2.49-1.83,6,2.11,5.65a3.7,3.7,0,0,0,3.2-2.23c1.39-3.38,1.33-7.27,2.09-10.87.61-2.92,1.77-5.7,5.2-5.38a1.93,1.93,0,0,1,1.87,1.71c.27,1.55-.48,3.11-.73,4.65a1.13,1.13,0,0,0,1.83,1.17,12.27,12.27,0,0,0,2.75-3.11c4.71-6.79,4.14-8.72,9.91-9.1,3.29-.22,9.47-1.94,10.79-5.63,1-2.77-2.56-6.8-2.93-9.5s1.76-2.12,3.08-1.63c1,.36,2.05.6,2.6,0,2.21-2.45,3.11-9,6.14-10.08,2.28-.84,1.45,3.7,4.56,2.1,4-2.08,3.37-4.75,5.6-7.14,2.93-3.14,6.69-3,10.3-2.31-3.34-2.69-8.24-2.87-12.45-2.59-2.83.19-4.76,3.49-7.51,4.26-3.79,1.07-8.39-1-11.72,1.17-2.28,1.5-.89,5.78-2.38,8.14-.78,1.23-2.88.69-3.85,1.75a7.49,7.49,0,0,0-1.83,4.45c-.26,3.49,3,7.94.73,10.47-2,2.24-6.24.06-8.61-1.74-2.18-1.65-1.43-6-3.67-7.56-2.91-2-7-3.47-10.25-2.14-4.51,1.86-7.58,6.55-10.45,10.67Z"/><path class="cls-13" d="M768.73,167.91c-5.78-3.32-10.66-8.18-15.58-12.79s-8.38-10.49-13.55-14.54a19.23,19.23,0,0,0-9.71-3.68,3,3,0,0,0-2.75,2.32,4.91,4.91,0,0,0,1.28,4.07c5.77,6.44,12.22,12.15,18.5,18,4.84,4.53,10.62,8,14.84,13.18,2.17,2.65,2.18,6.67,3.85,9.69a12.85,12.85,0,0,0,3.85,4.27c4.18,2.9,9.23,4.33,13.19,7.56a13.6,13.6,0,0,1,4.4,6.78c.25.93-1.21,2.39-2,1.94-3.65-2-6-6.08-9.53-8.33-1.37-.88-3.75-2.1-4.76-.78-1.21,1.57.07,4.12.73,6,.6,1.7,2.48,2.71,2.94,4.46.28,1.1-1.4,2.27-.92,3.3,3.81,8.25,8.74,15.88,13.37,23.64,1.85,3.1,4.68,5.56,6,8.92a4,4,0,0,1-.73,4.07c-1.17,1.07-3.36,1.78-4.58.78-3.15-2.59-4.11-7.34-7-10.27a16.55,16.55,0,0,0-7.32-4.46c-2.08-.59-4.9-1-6.42.58-2.24,2.37-3.19,6.15-3.11,9.49.05,2.24,3.05,3.43,3.48,5.63s-1.25,4.36-1.1,6.59c.28,4.14,2.11,8.07,2.38,12.21.22,3.24-.74,6.45-.91,9.69-.44,8-1,16-.92,24,0,3.45,1.79,6.86,1.28,10.27-.57,3.89-2.56,7.9-2.75,11.83-.31,6.72.72,12,.46,18.7-.12,3.29-1.53,6-1.65,9.31-.14,4.17,1.49,7.76,1.74,11.92.25,3.92-1.5,7.72-1.83,11.63a33.54,33.54,0,0,0,.37,5.82c.43,4.52,2,9,1.46,13.56-.47,4-3,7.49-4.39,11.25-1.38,3.6-3.13,7.09-4,10.85-.7,2.89.16,6.09-.74,8.92-.75,2.38-2.6,5.05-2.56,7.56.09,6.52,3.06,11.12,2.93,17.64-.12,5.84-2.87,11.34-5.13,16.67-4.16,9.81-11.35,16.63-15.39,24.81a10.15,10.15,0,0,0-1.1,6.59c.26,1,1.93.83,2.93.78,6-.32,15.31-4.92,18-9.31,3.63-6,1.5-15.88,3.3-20.93.59-1.69,3.5-.73,4.76-1.94a33.1,33.1,0,0,0,6.59-8.92c1.19-2.35,2.17-5.11,1.84-7.75-.68-5.27-4.19-9.84-4.77-15.12-.67-6.18.14-12.48,1.1-18.61.52-3.27,1.23-6.82,3.3-9.3,1.14-1.37,3.57,0,5.13-.78a8.18,8.18,0,0,0,4-3.88c1.22-3,.54-6.57,1.47-9.69.44-1.5,1.07-3.92,2.56-3.88,1.77.06,3.32,2.24,3.67,4.07.59,3.2-1.72,6.51-1.11,9.7.39,2,2.7,2.85,3.85,4.46a5.72,5.72,0,0,1,1.28,2.71c.23,2.38-.79,4.82-.36,7.17.27,1.51,1,3.4,2.38,3.88,1.62.56,4.2.26,5-1.36,2.15-4.67,1.28-10.35,2.74-15.31.71-2.38,3.13-4,3.67-6.4.85-3.84,1.32-8,.37-11.82-1.08-4.31-4.74-7.47-6.23-11.64-3.28-9.13,3.51-9.66,4.94-18.22a20.42,20.42,0,0,0-.73-9.88c-1.62-4.71-6-8.14-7.15-13-.92-3.77.67-7.76,1.1-11.63.31-2.72,1-5.4,1.1-8.14.07-3.63-1-7.24-.73-10.86.18-2.67,1.63-5.1,2-7.75.35-2.43-.3-5,.18-7.37.12-.59,1.15-1.48,1.46-1a17.77,17.77,0,0,1,2.57,7.56c.38,4.26-.47,8.53-.73,12.8-.29,4.65-1.06,9.29-.92,13.95.34,11.06.56,9,7.33,14.93,1.43,1.25,8.31,8.64,10.44,3.68,2.49-5.78,2-12.53,2.93-18.8.37-2.39,1.61-4.81,1.1-7.17-.71-3.3-3.63-5.69-4.58-8.92-.45-1.55.91-3.26.55-4.84-.65-2.9-2.89-5.24-3.48-8.15-.65-3.22.09-6.6-.18-9.88-.15-1.78-1.29-3.46-1.1-5.24.09-.82,1.18-2,1.83-1.55,1.52,1.05,2.36,3,2.93,4.85,1.28,4.07,1.27,8.53,2.57,12.6.56,1.77,2.51,2.84,2.93,4.65,1,4.1-.28,8.64,1.1,12.6.94,2.71,4.09,3.93,5.49,6.4,1,1.84.62,4.35,1.65,6.2,1.29,2.33,4,3.57,5.13,6,1.31,2.92.51,6.59,1.83,9.5,2.12,4.64,7.57-.7,7-3.68-.86-4.23-3.89-5.43-5.49-9.41-.6-1.5-.18-4.58-.73-6.1-1.09-3-4-4.88-5.32-7.76a6.55,6.55,0,0,1-.23-5.08c.62-1.5,2.36-1.72,2.89-3.25a36.37,36.37,0,0,0,1.1-4.75,11.25,11.25,0,0,1,1.37-2.81c1.1-2,.48-5,2-6.59.8-.85,2.7-.06,3.3,1,1.16,2-.06,5.08,1.28,7,1.76,2.5,5.22,3,7.33,5.23,2.47,2.57,3.83,6.17,6.23,8.82,3.08,3.4,5.73,1.44,7.69,10.66.62,2.9-1.21,6.15-.18,8.92,1.19,3.19,4.65,4.86,6.41,7.75.64,1-.06,2.62.55,3.69,2,3.43,5.18,6,7,9.49a25.25,25.25,0,0,1,2,8.34c.2,1.67-1,3.51-.37,5,1.77,4,5.65,6.78,7.33,10.86,1.15,2.79-.14,6.26.92,9.11.58,1.57,2.06,3.25,3.66,3.29a3.78,3.78,0,0,0,3.3-3.1,32,32,0,0,0-1.1-12.8c-1-3.44-3.9-5.95-5.13-9.3-3.44-9.37-5.23-19.37-8.8-28.69-2.68-7-6.63-13.42-9.89-20.16-1.87-3.86-3.4-7.91-5.5-11.63-1.33-2.38-3.67-4.08-4.76-6.59-1.34-3.09-3.18-6.59-2.38-9.89.44-1.81,2.9,2.3,3.85,3.88,2.26,3.78,3.23,8.36,5.68,12,2.07,3.09,5.72,4.78,7.69,7.95,1.67,2.68,1.45,6.31,2.93,9.11,2.1,3.94,5.34,7.08,7.7,10.85,3.14,5,6,10.26,8.79,15.51s5.17,10.37,7.75,15.56C902.85,341.52,897,316.51,889.09,300c-1-2-26.93-52.53-27.84-53.5s-10.27-7.69-14.66-12.41c-3.86-4.14-6.28-9.57-9.9-14-3-3.66-7-6.33-9.89-10.08-2.52-3.29-5.19-10.57-6.23-10.86-5.22-1.47-26.24-12.3-30.41-15.9-3.9-3.36-5.36-9.41-9.52-12.4-3.38-2.43-8.33-.95-11.91-3ZM734.87,515.12c-9.44-7.56-9,13.47-13.2,17.32-3.8,3.52-6.33,11.49-6.89,16.43-1.25,11-1,12.52-5.28,23-1,2.51-2.77,7.95,1.16,7.95,10.24,0,11-37.19,16.19-36.83,4.23.29,12.1-5.8,9.33-12.07-1.65-3.74-5.12-6.4-.86-10,2-1.71-.2-5.56-.45-5.77Z"/><path class="cls-14" d="M740.49,741.15c-4.65-.47-4-4.33-4-8.58,0-3.89,18.26-22.64,21-29.61,1-2.56,7.33-13.1,11.07-10.05,1.29,1.06,2.52,6,6.85-1.14,2.5-4.13.21-11.69,10.84-23,2.25-2.39,9.37-2.89,7.38,7.2-1.77,8.94,10.49-.23,11.14,16.06.06,1.31-2.08,2.11-2.18,3.49-.27,3.84-11-.64-11,6.72,0,5.87,7.82,8.17.37,14.36-3.83,3.18,12,10.1,13,16.35,0,.18,1,2.53,1.1,2.89.25,1.48-.19,3.3.73,4.46.62.78,2.48,12.83,8.55-1,1.42-3.26,7.59-9.56,10.36-5,1.44,2.36,3.84.64,3.44,9.33-.22,4.83,8.53,12.49,3.89,17.76-2.19,2.49-8.63,8.17-9.34,9.53-.93,1.78-1.64,10-6.82,8.75-.2,0-2.29-5.88-4-.45-.08.22,0,.75,0,1-.38,2.14-1.17,4.22-1.28,6.4-.32,6.29-4.21,15.12-10.87,15.12-6,0-4.88,3.74-8.72,10.5-2.45,4.34-9.67,24-16.52,22.1-1.48-.42,2.07-6.43-2.12-6.43-3.74,0-6.19,5.34-7.89,8.38-2.07,3.71,8.58-1.95,5.51,7.19a30.54,30.54,0,0,1-3.72,6.33,22.25,22.25,0,0,1-4,3.68c-3.76,2.55-16.45,6.82-18.49,9.61-1.13,1.55-1.66-1.37-4.1,5.51-1.46,4.13-21,1.59-16,7.4,1.93,2.28,9.51-3.5,8.94,3.65-.39,5-20.89-4.67-18.57,6,1.56,7.14-9.69.63-13.77,9.6-1,2.13-8,6.14-12.18,5.12-1.76-.43-14.87,6.75-16.85,9.32-5.09,6.58-9.36.25-2.54-5.64,10.27-8.85.8-5.7,7.9-12.34.77-.72,20.86-14,9.65-12.86a70.89,70.89,0,0,0-9.65,4.35c-1.18.88-8.31,2.87-8.31.71,0-8.82,6.23-2.09,6.23-11.5,0-3.27,19.49-13.06,4-10.23-5.23,1-3.56-2.18-9.41,5.06-1,1.29-10.28,3.37-13.73,5.78-1.34.93-2.91,1.9-4.86,3.13-4.05,2.58-8,5.41-12.46,7.18-6.38,2.55-17.23,13.25-26.56,15.08-3.32.65-8.34,4.92-15.29,5.84-14.38,1.9-6.3-5.07-14-4.46-2.79.22,3.08,3.35-2.22,7.25-5.06,3.73-13,5.24-19,6.77-5.66,1.43-18.82,3.12-24.45,1.74-2.33-.56-8.72.25-10.35,1.89-10.57,10.66-15.44,13.72-30.85,8.86-4.31-1.37-25.46,3.19-18.45-7.43,2.4-3.65,40.77-4.92,48.07-9.73,4.16-2.73,18.81,2.14,18.81-8,0-13.54-1.29-7.73,8.54-14.55,10.11-7,2.25-10.58,11.39-13.59,10.55-3.47,7.79-1.35,16.47-9.8,4.47-4.35,6.19-6.66,11.25-11.09s7.65-1.15,15-3.11c1.2-.32,2.1-1.39,3.11-2.14,4.39-3.24,9.9-15.73,6.83-20.79-1.67-2.75,4.23-6.47-.23-10.8-5.4-5.24,7.75-16.76,9.94-20.09,4.73-7.19,16.83-16.07,14.24-24.5-.84-2.73-10.1,11.24-11.29,7.82-2.1-6-15,1.31-3-22.29,6.74-13.26,6.3-4.82,11-8,.7-.47.49-3.73,2.24-4.86,2.39-1.54,3.52-4.63,4.95-7.17.63-1.12,5-12.75,6.29-12.8,3.1-.09,3.69,6.9,1,10.67-3.66,5.19-8.61,17.33-6.81,23.61.89,3.15-2.07,6.22,1.49,8.42.59.36,3.47,5.93,6.19,1.06,1.48-2.65-2.07-8.09,7.07-8.09,4.31,0,7.31-10.18,13.54-14.33,8.13-5.41,2,11.21,6.81,4.3.37-.54,5.41-4.25,6.32.5.36,1.92,2,2.1,1.84,6.77-.08,2.8,6.48-.69,8.43-4.36,1.64-3.08,14.48-16.18,14.48-4.19,0,5.22-3.79,6.53.5,12.91.34.51-2.06,5.5,4.82,1.84.05,0,8.24-10.47,8.6-1.69,0,1-1.62,4.69,3.66,1.69,5.53-3.14,2.2-8.67,9.31-14.13,4.43-3.4,4-3.38,7.6-7.3,8.92-9.88-1.6-7.49-3.72-.23-.28,1-.64.43-2,.29Zm-69.07,25.49c-3.3-4.37-6.59,5-6.59,9.24,0,5.64.71,10.26-2.48,14.8-5,7.17,6.06,22-3.17,25.44-2.61,1-4.07,12-8.37,15.46-1.54,1.26-8.58,11.22-11.81,13.5-2.9,2,2.6,3.29-1.38,6.47-2.11,1.69-21.11,17.64-9.19,17.05,7.66-.37,14.12-7.24,21.05-11.35,2.79-1.66,3.73-4.51,10.29-7.3,2-.84,8.85-6.58,9.07.63.08,2.65,8.2,6.75,8.43-3.48.12-5.7,10.44.77,12.69-8.59.76-3.17,14.45-1.19,10.49-9.92-2.1-4.61,9.13-2.7,1.34-7.28-3.8-2.24-7.09,3-10.34-6.56-1.19-3.51-5.21-3.91-6.34,1.58-1.35,6.59.47,13.63-9.32,15.07-5.24.77-3-12.28-.19-15.76,2.42-3-6.73-10.84-1.61-19.32,2.57-4.27-4.63-6.34-1-17.34,2.32-7.12-1.05-11.71-1.53-12.34ZM734,797.86c-.7,8.17,1.37,15.79,9.57,20.44,4.65,2.64,15.61-1.61,14.81-4.95-.32-1.34-4.73.86-9.73-.48-3.82-1-5.87-5-5.45-10.87.74-10.47,3.43-15,5.16-17.17,2-2.57,8.12-6.65,6.22-1.32-.91,2.53-16,40,21.54,10.49,11.28-8.88,22.45-21.93,17.27-36.39-7.65-21.36-56,1-59.39,40.25Zm30.35-35.66c-6.73,6-12.66,14.78-5.64,14.34,1.25-.07,16.74-17.1,19-5.46,1,5-6.87,13.36-11.76,15.4-.94.39-9,4.42-5.26,6.1,7.29,3.27,27.82-15.84,29.26-28.27.7-6-4.19-8.23-9-8.6-6.33-.48-11.76,2.2-16.57,6.49ZM663.69,686.39c-3.59-5.44-9-.81-8.46-11.35.36-6.36,2.5-2.7,1.47-16.6-1.34-18.11,18.22-3.45,24.49-29.72,1.13-4.75,3.63,1.52,5.95-14.34.74-5,13.3-14.88,15-23.82.59-3.1,11.1-8.84.24,14-1.26,2.63-7.2,18.23-5.1,21.07,1.67,2.25,1.6,10.14-3.84,13.08-7.42,4-10.72,17.47-13.56,25.59-4.65,13.25-2.63,20.72-14,31.89-.59.58-13.19,26.62-11.39,7.52.56-5.91,13.15-11.34,9.19-17.31Z"/><path class="cls-15" d="M427.87,48.84c4-1.07,48.23-11.42,49-11,10.55,5.3,17.49,3,22.7,1,11.57,4.32,35.89,4.81,41.82,6,5.71,1.16,36.45,8.34,45.79,12.8-4.23-.64-19.64-5-24.85.65-4.64,5.07-10.4,3-11,3.29-6.32,2.64-1.05,6.81,3.88,7.23,4.33.37,9.65,0,11.14,1.13,17.47,12.83,36.63,7.58,40,11.26,7,7.64,24.24,6.43,25,9.46,2.68,10.94-12.56,1-15.36,6.72-2.6,5.28-7.29,1.89-14.62,0-18.24-4.71-14.07,7.16-2.93,7.69,8,.38,16.67,10.24,12,10-4.93-.2-3.36,5.68-8.79,5.43-31.31-1.42,6.11,9.27,8.16,12.92,8.9,15.89-16.1,1-16.52,1-13.75-1-3.49,10.1-3.19,10.34,2.57,2,22.34,7.49,22.91,10.24,2.64,12.68-18.15-.91-20.89-.78-13.28.66-4,11.19,1,13.54,5.3,2.47,16.31,13.89,16.39,13.92,6.14,2.15,4.19-2.06,4.19-4.58,0-13,28.94,2.88,31.54,5.56,17,17.43-26.33-4.3-21.22,7.58,7.61,17.69-15,17.07-16.21,8.6-1.5-10.65-14.1-18.26-23.66-18.26-8.21,0-9.15-3.32-9.58-6.64-1.45-11.35-16.2-7.9-15.11.12.46,3.32,2.5,7.22,4.35,10.25,2.79,4.55,3,7.12,1.29,11-2.74,6.19-8.78-4.47-11.6-7.44-8-8.42-7.2-14.63-6.65-19.24,1-8-1.87-12.53-13.39-10.56-4,.68-6.35-3-7.7-4.27-5.54-5.29-13.84-9.38-16.18.07-.92,3.71,2.12,29.2-4.61,30.66-13.31,2.88-4.76-16.25-6.84-18.71-4.88-5.76-.41-16.31-3.14-19.25-7.68-8.24-7.85,14.57-14.42,16.5-13.63,4-2.79-8.86-2.77-9.13,1.17-19-16.88-2.82-17-2.82-10.18.43-16,20.81-24.09,13.31-7.39-6.82,7.61-9.4,4.85-15.41-3.62-7.93-16.29,4.42-23,1.61-2.45-1,4-17.49-16.83-1.12-12.4,9.74-12.14-2.52-10.68-3.85,4.92-4.44-2.64-4-8.61-1.74-12.29,4.6-24.87,18.46-32.74,25.31-5.19,4.53-9.61,4.46-8-.21,1.51-4.38,5-9,1.91-10.93-5.76-3.63-21.14,5.74-25.43.89s-1.71-8,2.78-9.93c2.79-1.19,22.41-6.35,26.61-7.22,15.13-3.14,37.74-5.21,38.19-11.68.81-11.61-42.37,7.89-49.19,5.85-9.23-2.75-22.09,12.95-29.89,5.69-8.16-7.59,6.49-12.57,7.11-13.47,8.47-12.6,47.61-6.84,56.09-18.43,9.19-12.56-9.76-6.61-13.74-9.55C344,91.27,380.83,91,382,89.86c12.62-11.69-9.82-4.59-12.94-4.62-8.44-.08-49.62,17.82-49.62,7.75,0-10.23,24.93-7.57,36.36-14.31,6.68-3.93,19.73-2.33,27.76-2.33,33.19,0,11.31-6.81,10.5-8.14-6.49-10.56,7.85-5.22,10.75-8.1,3.9-3.88,26.88-1.82,32.61-.81,2.61.46,9.28,1.19,8.83-2.36-.19-1.42-3.82,0-1.52-2.93,2.19-2.72-7.2-6.72-16.88-5.17ZM301,149c-17.54-8.19-17.38,12.92-28.57,12.11-8.23-.6-15.43,10.53-20.35,16.77-6.53,8.3-3.66,9.16,2.76,5.9,9.54-4.86,16.9-14.85,29.27-12.6,10.42,1.9,0-12,15.05-11.29,7.91.39,11.33-6.45,1.84-10.89Zm-61.76,40.19c-6,4.41-2.58-1.86-6.25,5.3-2,3.86-6.91-.87-8.23,6-.43,2.24-9,7.28-10.81,10.24-1.28,2.06-16.94,16.66-3.77,11.46,2.18-.86,5.56-8.67,13.18-11.83,2.41-1,10.75-7.67,10.75-10.29,0-7.94,2.21-2,7.28-7,1.6-1.57-1.53-4.38-2.15-3.92Z"/><path class="cls-16" d="M889.09,300c-1-2-26.93-52.53-27.84-53.5s-10.27-7.69-14.66-12.41c-3.86-4.14-6.28-9.57-9.9-14-3-3.66-7-6.33-9.89-10.08-2.52-3.29-5.19-10.57-6.23-10.86a59.07,59.07,0,0,1-7.13-2.95c-8.3-3.89-20.24-10.33-23.28-13-3.9-3.36-5.36-9.41-9.52-12.4-3.38-2.43-8.33-.95-11.91-3-5.78-3.32-10.66-8.18-15.58-12.79s-8.38-10.49-13.55-14.54a19.23,19.23,0,0,0-9.71-3.68,3,3,0,0,0-2.75,2.32,4.91,4.91,0,0,0,1.28,4.07c5.77,6.44,12.22,12.15,18.5,18,4.84,4.53,10.62,8,14.84,13.18,2.17,2.65,2.18,6.67,3.85,9.69a12.85,12.85,0,0,0,3.85,4.27c4.18,2.9,9.23,4.33,13.19,7.56a13.6,13.6,0,0,1,4.4,6.78c.25.93-1.21,2.39-2,1.94-3.65-2-6-6.08-9.53-8.33-1.37-.88-3.75-2.1-4.76-.78-1.21,1.57.07,4.12.73,6,.6,1.7,2.48,2.71,2.94,4.46.28,1.1-1.4,2.27-.92,3.3,3.81,8.25,8.74,15.88,13.37,23.64,1.85,3.1,4.68,5.56,6,8.92a4,4,0,0,1-.73,4.07c-1.17,1.07-3.36,1.78-4.58.78-3.15-2.59-4.11-7.34-7-10.27a16.55,16.55,0,0,0-7.32-4.46,9.35,9.35,0,0,0-4.88-.33c3.66,7.9,9.12,14.84,14.6,21.47,7.85,9.49,19.58,15.51,25.65,26.36,4.68,8.38,9.38,18.59,9.89,28.31a26.88,26.88,0,0,1-2.93,13.18c-2,4.06-7.67,6.09-9.18,10.14,1,1,2.56,2.05,4.77,4,1.43,1.25,8.31,8.64,10.44,3.68,2.49-5.78,2-12.53,2.93-18.8.37-2.39,1.61-4.81,1.1-7.17-.71-3.3-3.63-5.69-4.58-8.92-.45-1.55.91-3.26.55-4.84-.65-2.9-2.89-5.24-3.48-8.15-.65-3.22.09-6.6-.18-9.88-.15-1.78-1.29-3.46-1.1-5.24.09-.82,1.18-2,1.83-1.55,1.52,1.05,2.36,3,2.93,4.85,1.28,4.07,1.27,8.53,2.57,12.6.56,1.77,2.51,2.84,2.93,4.65,1,4.1-.28,8.64,1.1,12.6.94,2.71,4.09,3.93,5.49,6.4,1,1.84.62,4.35,1.65,6.2,1.29,2.33,4,3.57,5.13,6,1.31,2.92.51,6.59,1.83,9.5,2.12,4.64,7.57-.7,7-3.68-.86-4.23-3.89-5.43-5.49-9.41-.6-1.5-.18-4.58-.73-6.1-1.09-3-4-4.88-5.32-7.76a6.55,6.55,0,0,1-.23-5.08c.62-1.5,2.36-1.72,2.89-3.25a36.37,36.37,0,0,0,1.1-4.75,11.25,11.25,0,0,1,1.37-2.81c1.1-2,.48-5,2-6.59.8-.85,2.7-.06,3.3,1,1.16,2-.06,5.08,1.28,7,1.76,2.5,5.22,3,7.33,5.23,2.47,2.57,3.83,6.17,6.23,8.82,3.08,3.4,5.73,1.44,7.69,10.66.62,2.9-1.21,6.15-.18,8.92,1.19,3.19,4.65,4.86,6.41,7.75.64,1-.06,2.62.55,3.69,2,3.43,5.18,6,7,9.49a25.25,25.25,0,0,1,2,8.34c.2,1.67-1,3.51-.37,5,1.77,4,5.65,6.78,7.33,10.86,1.15,2.79-.14,6.26.92,9.11.58,1.57,2.06,3.25,3.66,3.29a3.78,3.78,0,0,0,3.3-3.1,32,32,0,0,0-1.1-12.8c-1-3.44-3.9-5.95-5.13-9.3-3.44-9.37-5.23-19.37-8.8-28.69-2.68-7-6.63-13.42-9.89-20.16-1.87-3.86-3.4-7.91-5.5-11.63-1.33-2.38-3.67-4.08-4.76-6.59-1.34-3.09-3.18-6.59-2.38-9.89.44-1.81,2.9,2.3,3.85,3.88,2.26,3.78,3.23,8.36,5.68,12,2.07,3.09,5.72,4.78,7.69,7.95,1.67,2.68,1.45,6.31,2.93,9.11,2.1,3.94,5.34,7.08,7.7,10.85,3.14,5,6,10.26,8.79,15.51s5.17,10.37,7.75,15.56C902.85,341.52,897,316.51,889.09,300Z"/><path class="cls-17" d="M175.52,768.63c-29.4,1.25-48.37,24.83-39.2-50.38.89-7.34,4.91-25.58-8.06-16.28-9,6.47-20.09,26.06-36.64,20.94-5.35-1.66-7.88-9.62-8.06-15.51-.34-11.1,3.84-21.85,6.59-32.57,4.1-15.93,10.38-31.22,13.93-47.3,3.39-15.4-5.93-17.41-13.19-9.3C83,627,77.48,638.36,68.17,645.37c-10.41,7.83-16.12-15-14.66-24,1.65-10.14,7.34-19.17,12.46-27.91,2.43-4.15,3-7.64-2.29-5.62-4.71,1.77-11.16,4.79-16.76,6.39-2.37.68-5.22-.59-3.67-4.65,5.76-15,13-30.29,13.93-46.52.38-6.51-8.45-10-10.26-16.29-1.3-4.47,2.21-9.34,1.46-14-.54-3.32-5.13-5.16-5.13-8.53,0-9.23,3.77-18,5.13-27.14,1-6.41,2.29-12.91,1.83-19.38-1-13.76-16.51-2.15-7-48.21-2.63,8.55-5.15,17.36-8.39,26.69-4.73,13.61-15.18,37.17-15.39,40.32S25,495.44,25.3,505.22c.22,7.4-5.16,19.2-4.4,21.71,8.27,27.06,11.92,55.55,15.39,83.74,1,7.73-3,20.69-2.19,23.26,1.42,4.47,15.42,33.6,21.25,51.18,2.53,7.66-.28,17.07,3.66,24,16.37,29,19.46,56.37,29.31,84.51,1.15,3.26,17.57,12.83,25.65,20.16,24.11,21.87,26.55,32.9,42.5,51.18,11.33,13,23.51,25.28,37,35.66,9.06,7,20.57,9.59,30.05,15.9,6.75,4.49,11.41,12.06,18.32,16.28,12.92,7.9,26.83,13.86,40.67,19.77,5.74,2.46,11.93,3.51,17.9,5.26a26.79,26.79,0,0,1-9.89-7.18c-1.07-1.33-.3-3.65-1.28-5-1.11-1.57-3.71-1.58-4.58-3.3-.75-1.49,1.1-3.55.36-5-.92-1.88-3.14-2.63-4.76-3.88s-3.81-1.52-4.58-3.29c-.59-1.35,1.43-2.78,1.28-4.27a8,8,0,0,0-2.2-5c-2.63-2.38-6.77-2.57-9.16-5.23a5.67,5.67,0,0,1-.73-5.82c1.18-2.28,5.16-2,6.05-4.45.73-2-.82-4.45-2.2-6s-3.87-1.79-5.68-2.91-4.95-1.55-4.95-3.68c0-1.76,3.33-1,4.95-.59,3.69.88,6.85,3.89,10.62,4.27,2.33.24,4.35-1.86,6.6-2.52s4.78-2.15,7.14-1.55c2.87.73,4.68,3.88,7.33,5.23,1.11.57,2.45.23,3.67.39,4.82.62,9.61,2.17,14.47,1.94,2.21-.11,5-.83,6-2.91a8.12,8.12,0,0,0-7.69-11.44c-3.12.08-5.59,3-8.61,3.88-2.13.6-4.51,1.13-6.6.39-3.94-1.4-6.87-5.16-10.8-6.59-2.78-1-6.51,1.36-8.8-.58-7.52-6.4-12.08-16-19.05-23.07a7.33,7.33,0,0,0-6.05-2.33c-4.45.79-8.08,4.43-12.45,5.62-1.51.42-3-.94-4.58-1-2.7,0-5.43,1.41-8.07.78a11.31,11.31,0,0,1-6.59-4.27c-1.29-1.84-.42-4.6-1.1-6.78-.62-2-1-4.65-2.75-5.62-5.13-2.82-11.5-2.31-16.67-5-1.31-.7-.3-3.31-1.28-4.46-2.51-2.94-6.21-4.51-8.8-7.36-.55-.61-.91-2.85-.18-2.53,2.74,1.22,4.47,4.27,7.15,5.63,1.55.78,3.58-.21,5.12.58,2,1,2.95,4.07,5.13,4.65,3.33.88,6.87-1,10.26-.58,3.86.52,7.31,3.18,11.18,3.49,1.32.1,3.24-.93,3.3-2.33.21-4.8-3.48-9.45-2.57-14.15.52-2.63,3.72-5,6.23-4.65l.36.08c-4.95-8.68-8.24-19-15.15-25.88-4.82-4.83-13.82-1.86-19.05-6.2-7.92-6.57,4-19.87-25.29-18.63Z"/><path class="cls-18" d="M251.32,857.25c-4.45.79-8.08,4.43-12.45,5.62-1.51.42-3-.94-4.58-1-2.7,0-5.43,1.41-8.07.78a11.31,11.31,0,0,1-6.59-4.27c-1.29-1.84-.42-4.6-1.1-6.78-.62-2-1-4.65-2.75-5.62-5.13-2.82-11.5-2.31-16.67-5-1.31-.7-.3-3.31-1.28-4.46-2.51-2.94-6.21-4.51-8.8-7.36-.55-.61-.91-2.85-.18-2.53,2.74,1.22,4.47,4.27,7.15,5.63,1.55.78,3.58-.21,5.12.58,2,1,2.95,4.07,5.13,4.65,3.33.88,6.87-1,10.26-.58,3.86.52,7.31,3.18,11.18,3.49,1.32.1,3.24-.93,3.3-2.33.21-4.8-3.48-9.45-2.57-14.15.52-2.63,3.72-5,6.23-4.65,3.17.5,4,6.18,7.15,6.78,4.36.84,8.57-2.76,13-2.91,3.49-.11,6.95,3.29,10.26,2.14,1.82-.63-.73-5,.92-6s3.42,2.21,5.31,2.13c1.72-.07,2.86-2.49,4.58-2.52,1.92,0,3.4,2.2,5.32,2.33a25.75,25.75,0,0,0,8.79-1.36c2.08-.6,4.4-1.23,5.86-2.91a13.43,13.43,0,0,0,2.93-7.17,7.63,7.63,0,0,0-1.46-5.23c-2.11-2.85-6-4-7.7-7.18-.78-1.46,1.63-3.21,1.29-4.84-.7-3.3-3.64-5.79-4.22-9.11-.28-1.6,2-2.85,1.83-4.46-.24-2.36-2.88-4-2.93-6.4,0-1.13,2.95-.63,2.75-1.74-.69-3.77-4-6.56-4.95-10.28a3.63,3.63,0,0,1,1.47-3.68l.19-.1a5.36,5.36,0,0,0-3.87,3.38c-.65,2.31,2.18,7.51-.37,9.69-1.54,1.31-7.28-.43-6.41,5.23.34,2.24,2,4.36,1.65,6.59-.26,1.49-2.64,1.57-3.3,2.91-.89,1.81.25,4.55-1.1,6-2.53,2.72-6.91,2.8-9.53,5.43-1.12,1.12-1.18,3.28-.73,4.84,1,3.57,3.6,6.44,4.95,9.89,1.12,2.87-2,3.52-4,3.3-2.95-.34-10.86-4.21-13.19-2.14-4.55,4-5.4,11.06-12.64,4.27-3.38-3.17-5.44,1.06-8.43-.39-8.81-4.28-21.28-11.54-23.66-8.72-1.33,1.57,6.3,15.79-4.74,11-6.15-2.64-11.7-6.63-17.59-9.88-29.18-16.12-10.94,2.78-4,14.15a2.85,2.85,0,0,1-.73,3.29c-1.53,1.19-4.13.16-5.49,1.56-.93.94-.74,2.95,0,4.07,4.42,6.74,10.34,12.25,15,18.8a16.68,16.68,0,0,1,2.56,5.81c.16.68-.07,1.92-.73,1.94-3.84.13-7.86-4.15-10.08-4.26-1.31-.07-4.62,4.93-7,4.46-2.51-.51-4.05-3.43-6.41-4.46-1.88-.82-4-.58-6-1l-.12,0c-2.3-.43-4.82-.3-6.84-1.53-3.9-2.39-7.23-5.75-10.44-9.11-3-3.13-4.94-7.3-8.06-10.28A55.56,55.56,0,0,0,126.3,826c13.33,14.49,17.47,24.45,30.17,39,11.33,13,23.51,25.28,37,35.66,9.06,7,20.57,9.59,30.05,15.9,6.75,4.49,11.41,12.06,18.32,16.28,12.92,7.9,26.83,13.86,40.67,19.77,5.73,2.46,11.92,3.51,17.88,5.25a26.69,26.69,0,0,1-9.87-7.17c-1.07-1.33-.3-3.65-1.28-5-1.11-1.57-3.71-1.58-4.58-3.3-.75-1.49,1.1-3.55.36-5-.92-1.88-3.14-2.63-4.76-3.88s-3.81-1.52-4.58-3.29c-.59-1.35,1.43-2.78,1.28-4.27a8,8,0,0,0-2.2-5c-2.63-2.38-6.77-2.57-9.16-5.23a5.67,5.67,0,0,1-.73-5.82c1.18-2.28,5.16-2,6.05-4.45.73-2-.82-4.45-2.2-6s-3.87-1.79-5.68-2.91-4.95-1.55-4.95-3.68c0-1.76,3.33-1,4.95-.59,3.69.88,6.85,3.89,10.62,4.27,2.33.24,4.35-1.86,6.6-2.52s4.78-2.15,7.14-1.55c2.87.73,4.68,3.88,7.33,5.23,1.11.57,2.45.23,3.67.39,4.82.62,9.61,2.17,14.47,1.94,2.21-.11,5-.83,6-2.91a8.12,8.12,0,0,0-7.69-11.44c-3.12.08-5.59,3-8.61,3.88-2.13.6-4.51,1.13-6.6.39-3.94-1.4-6.87-5.16-10.8-6.59-2.78-1-6.51,1.36-8.8-.58-7.52-6.4-12.08-16-19.05-23.07a7.33,7.33,0,0,0-6.05-2.33Z"/><path class="cls-19" d="M251.32,857.25c-4.45.79-8.08,4.43-12.45,5.62-1.51.42-3-.94-4.58-1-2.7,0-5.43,1.41-8.07.78a11.31,11.31,0,0,1-6.59-4.27c-1.29-1.84-.42-4.6-1.1-6.78-.62-2-1-4.65-2.75-5.62-5.13-2.82-11.5-2.31-16.67-5-1.31-.7-.3-3.31-1.28-4.46-2.51-2.94-6.21-4.51-8.8-7.36-.55-.61-.91-2.85-.18-2.53,2.74,1.22,4.47,4.27,7.15,5.63,1.55.78,3.58-.21,5.12.58,2,1,2.95,4.07,5.13,4.65,3.33.88,6.87-1,10.26-.58,3.86.52,7.31,3.18,11.18,3.49,1.32.1,3.24-.93,3.3-2.33.21-4.8-3.48-9.45-2.57-14.15.52-2.63,3.72-5,6.23-4.65l.36.08c-.79-1.38-1.53-2.81-2.26-4.25-1.55.43-3,1.5-4.71.66-8.81-4.28-21.28-11.54-23.66-8.72-1.33,1.57,6.3,15.79-4.74,11-6.15-2.64-11.7-6.63-17.59-9.88-29.18-16.12-10.94,2.78-4,14.15a2.85,2.85,0,0,1-.73,3.29c-1.53,1.19-4.13.16-5.49,1.56-.93.94-.74,2.95,0,4.07,4.42,6.74,10.34,12.25,15,18.8a16.68,16.68,0,0,1,2.56,5.81c.16.68-.07,1.92-.73,1.94-3.84.13-7.86-4.15-10.08-4.26-1.31-.07-4.62,4.93-7,4.46-2.51-.51-4.05-3.43-6.41-4.46-1.88-.82-4-.58-6-1l-.12,0c-2.3-.43-4.82-.3-6.84-1.53-3.9-2.39-7.23-5.75-10.44-9.11-3-3.13-4.94-7.3-8.06-10.28A55.56,55.56,0,0,0,126.3,826c13.33,14.49,17.47,24.45,30.17,39,11.33,13,23.51,25.28,37,35.66,9.06,7,20.57,9.59,30.05,15.9,6.75,4.49,11.41,12.06,18.32,16.28,12.92,7.9,26.83,13.86,40.67,19.77,5.73,2.46,11.92,3.51,17.88,5.25a26.69,26.69,0,0,1-9.87-7.17c-1.07-1.33-.3-3.65-1.28-5-1.11-1.57-3.71-1.58-4.58-3.3-.75-1.49,1.1-3.55.36-5-.92-1.88-3.14-2.63-4.76-3.88s-3.81-1.52-4.58-3.29c-.59-1.35,1.43-2.78,1.28-4.27a8,8,0,0,0-2.2-5c-2.63-2.38-6.77-2.57-9.16-5.23a5.67,5.67,0,0,1-.73-5.82c1.18-2.28,5.16-2,6.05-4.45.73-2-.82-4.45-2.2-6s-3.87-1.79-5.68-2.91-4.95-1.55-4.95-3.68c0-1.76,3.33-1,4.95-.59,3.69.88,6.85,3.89,10.62,4.27,2.33.24,4.35-1.86,6.6-2.52s4.78-2.15,7.14-1.55c2.87.73,4.68,3.88,7.33,5.23,1.11.57,2.45.23,3.67.39,4.82.62,9.61,2.17,14.47,1.94,2.21-.11,5-.83,6-2.91a8.12,8.12,0,0,0-7.69-11.44c-3.12.08-5.59,3-8.61,3.88-2.13.6-4.51,1.13-6.6.39-3.94-1.4-6.87-5.16-10.8-6.59-2.78-1-6.51,1.36-8.8-.58-7.52-6.4-12.08-16-19.05-23.07a7.33,7.33,0,0,0-6.05-2.33Z"/><path class="cls-20" d="M234.15,200.06c0-7.94,2.21-2,7.28-7,1.6-1.57-1.53-4.38-2.15-3.92-6,4.41-2.58-1.86-6.25,5.3-2,3.86-6.91-.87-8.23,6-.43,2.24-9,7.28-10.81,10.24-1.28,2.06-16.94,16.66-3.77,11.46,2.18-.86,5.56-8.67,13.18-11.83,2.41-1,10.75-7.67,10.75-10.29Zm20.73-16.31c9.54-4.86,16.9-14.85,29.27-12.6,10.42,1.9,0-12,15.05-11.29,7.91.39,11.33-6.45,1.84-10.89-17.54-8.19-17.38,12.92-28.57,12.11-8.23-.6-15.43,10.53-20.35,16.77-6.53,8.3-3.66,9.16,2.76,5.9Zm63.35-24.68c4.29,4.85,19.67-4.52,25.43-.89,3.07,1.94-.4,6.55-1.91,10.93-1.62,4.67,2.8,4.74,8,.21,7.87-6.85,20.45-20.71,32.74-25.31,6-2.23,13.53-2.7,8.61,1.74-1.46,1.33-1.72,13.59,10.68,3.85,20.83-16.37,14.38.1,16.83,1.12,6.67,2.81,19.34-9.54,23-1.61,2.76,6-12.24,8.59-4.85,15.41,8.12,7.5,13.91-12.88,24.09-13.31.1,0,18.15-16.19,17,2.82,0,.27-10.86,13.15,2.77,9.13,6.57-1.93,6.74-24.74,14.42-16.5,2.73,2.94-1.74,13.49,3.14,19.25,2.08,2.46-6.47,21.59,6.84,18.71,6.73-1.46,3.69-27,4.61-30.66,2.34-9.45,10.64-5.36,16.18-.07,1.35,1.29,3.73,5,7.7,4.27,11.52-2,14.35,2.54,13.39,10.56-.55,4.61-1.36,10.82,6.65,19.24,2.82,3,8.86,13.63,11.6,7.44,1.72-3.91,1.5-6.48-1.29-11-1.85-3-3.89-6.93-4.35-10.25-1.09-8,13.66-11.47,15.11-.12.43,3.32,1.37,6.64,9.58,6.64,9.56,0,22.16,7.61,23.66,18.26,1.18,8.47,23.82,9.09,16.21-8.6-1.76-4.09,2.22-4.2,7.51-3.29a118.19,118.19,0,0,0-7-10.57q-1.62-2.17-3.39-4.25c-4.29-.47-7.41.69-7.41,5,0,2.52,2,6.73-4.19,4.58-.08,0-11.09-11.45-16.39-13.92-5-2.35-14.32-12.88-1-13.54,1.67-.08,10,4.92,15.71,6-3.82-2.44-7.9-4.5-11.5-7.28-4.94-3.81-9.3-8.39-13.93-12.6a3,3,0,0,1-.55-.58c-3.77-6.24-6.18-13.62-11.17-18.81-5.17-5.36-11.86-9-18.51-12-6.13-2.8-13.17-2.74-19.41-5.24-9.51-3.8-18-10.31-27.67-13.57A159.23,159.23,0,0,0,471,83c-5.39-.56-10.72,1.76-16.13,1.94a49.52,49.52,0,0,1-12.45-1c-3-.66-5.39-3.69-8.43-3.68-13.55,0-27.05,2-40.49,3.88A46.67,46.67,0,0,0,385,86.66a22.81,22.81,0,0,1-3,3.2c-1.19,1.1-38.07,1.41-25.83,10.47,4,2.94,22.93-3,13.74,9.55-8.48,11.59-47.62,5.83-56.09,18.43-.62.9-15.27,5.88-7.11,13.47,7.8,7.26,20.66-8.44,29.89-5.69,6.82,2,50-17.46,49.19-5.85-.45,6.47-23.06,8.54-38.19,11.68-4.2.87-23.82,6-26.61,7.22-4.49,1.9-7.18,4.94-2.78,9.93Z"/><path class="cls-21" d="M197.28,603.51c-3-1.35-6.25,2.18-8.8,4.27-4,3.3-5.71,10.19-10.62,11.63-5.64,1.64-11.47-4.55-17.22-3.49-3.66.67-4.35,8-8.06,8.14-4,.17-8.25-3.48-9.9-7.37-1.52-3.58,2.22-7.72,1.83-11.63s-4.82-7.06-4-10.85c1.72-8.24,8.05-14.65,11-22.49,1.13-3,3.14-7.26,1.1-9.69-1.65-2-4.53,2.27-7,2.71-5.43,1-11.4,3.82-16.48,1.55-4.1-1.82-7.34-7.33-7-12,.29-3.61,6.75-3,8.43-6.21,1.93-3.63-.19-8.62,1.47-12.4a6.42,6.42,0,0,1,5.49-3.49c3.32-.09,6.37,4.19,9.53,3.1,3.86-1.34,4.64-7.76,8.43-9.31,4.78-2,10.65,1.7,15.39-.38,2.24-1,2.42-4.81,2.19-7.37-.52-5.87-5.25-11.24-4.39-17.06.47-3.22,6.08-2.65,7.69-5.43s-.49-6.9,1.1-9.69a31.12,31.12,0,0,1,10.63-10.85c5.37-3.32,13.49-1.64,17.58-6.59,3.14-3.8-.41-10.15.37-15.12.94-6,2-12.16,4.76-17.45,1-2,4.59-.91,5.87-2.71,3.58-5.1,3.69-12.7,8.06-17.06a9.12,9.12,0,0,1,2.27-1.64c-2.3.58-4.64,1.09-6.39,2.67-2.56,2.3-1.42,10.27-6.42,10.66-1.38.11-7.7-4.25-10.44.39-2,3.41,1.71,10.67,1.1,13-.37,1.38-2.69,1.23-3.3,2.52-.82,1.73.62,10.1-6.41,13.18-3.81,1.66-12.9-5.21-15.94,4.07-1.41,4.3,3.6,13.65-2.56,16.09-1.89.74-4.3.59-5.68,2.13s0,4.57-1.47,5.81c-22.75,19-41.31,2.72-63,23.07-9.72,9.11-9.08,17.38.83,16.19,4.34-.52,8.29-1.73,10.16,2.42,1.25,2.77-.46,6.46-2.2,8.92-1.94,2.75-6.5,5.87-11.45,9.2l-.21.4c-1.32,2.64-4,4.33-5.31,7-1,2.06-1,4.51-1.46,6.78,0,.26-.22.67,0,.78,2.23,1.12,4.88,1.29,7,2.71,2.65,1.81,6.45,3.49,7,6.79.55,3.53-4.17,6.11-4.4,9.69-.17,2.77,1,6.16,3.3,7.56,5.39,3.34,11.91,4,17.95,5.62,1.13.3,3.05-1,3.49.19.94,2.46-1.45,5.56-.37,8,1.18,2.62,5.58,2.67,6.41,5.43.9,3-2.08,6-2,9.11a15.19,15.19,0,0,0,2.38,8.14A94.89,94.89,0,0,0,152,639.54c3.45,3.14,7.19,7.07,11.73,7.36s7.93-5.4,12.45-5.81c3.17-.29,7.72.71,8.8,3.87,1.67,4.92-4.17,10.72-2.2,15.51a3,3,0,0,0,1,1.29c5-5,9.08-11.16,14-16.32,8.75-9.2,10.35,4.54,24.19-1.55,4.52-2,8.13-5.76,12.27-8.53,13.08-8.74,13-.81,8.47,4.24-5.72,6.42,2.32,11.1,4.91,4.2,1.54-4.12,3.42-11.33,5.49-17.68,3.88-11.9,10-20,15.17-12.57,1.44,2.05,4.1,2.74,6.08-1.25,1.26-2.52,3.19-11.16,5.08-17.82,3.28-11.53,5.73-10.39,4.49-.37-.42,3.35-1,7.26-.63,10.31.77,6.64,4.74,7.44,7.55.85,2.65-6.22,5.47-17.43,7.51-24.18,1.32-4.34,5.35-10.14,9.95-12.59,3.95-2.11,4.31.45,4.18,2.38-.08,1.34.26,2.49,1.47,2.84,7.2,2.12,31.41-31.92,35.33-38.77a56.94,56.94,0,0,1,6.42-9.69c3.13-3.51,14.91-9.49,19.23-11.63,6-3,12.56-4.83,18.32-8.34a40.86,40.86,0,0,0,10.08-8.91c2.68-3.23,4.13-7.41,6.41-10.95,2.62-4.08,6.9-9.21,8.76-5.54a5.57,5.57,0,0,0-.61-1.6c-1.33-2.38-5.62-.13-7.69,1.55-6.16,5-10,12.77-16.12,17.83-7.91,6.53-17.06,11.19-25.65,16.67-5,3.18-10.58,5.36-15,9.31-4.12,3.66-6.29,9.35-10.26,13.18-8.3,8-16.6,16.29-26.38,22.1-6.65,3.94-15.46,2.44-22,6.59-3.33,2.11-1.84,9.49-5.5,10.85-4.61,1.72-9.48-4.43-14.29-3.49-2.9.57-4.26,4.53-5.49,7.37-2.24,5.16-1.49,11.78-4.76,16.28-2.47,3.4-8,2.58-11,5.43-5.37,5.09-8.22,12.7-13.55,17.83-4.34,4.18-9.33,8.21-15,9.7a16.15,16.15,0,0,1-13.19-2.33c-3.09-2.27-2.69-7.52-4.76-10.86-2.86-4.6-5.11-10.61-9.89-12.79Zm-69-115.5a90.4,90.4,0,0,1,13.14-1.18c7.39-.13,6.11-7.46-.28-12.82-3.16-2.66-8.86-3.48-12.43-1.52-1.27.7-1.94,3.09-3.1,4-2.28,1.79-9.32,3.31-14.35,7.34-2,1.63-4.27,3.34-5.38,5.88-1.41,3.23,0,3.76,1.13,3.68,7.25-.56,14.11-4.06,21.27-5.39Z"/><path class="cls-22" d="M302.07,62.92c11.05-2,38.32-16.56,54.32-21.32,16.84-5,24-4.92,41.79-5.52,5.48-.18,7.85-2.84,8.29-6.28,2.36-18.31-38.53-41.89-61-22.6-18.29-9.91-41.62-11.86-55.6,9.45-10.8,16.48-18.61,51.73,12.16,46.27Z"/><path class="cls-23" d="M300.82,26.89C287.12,35.8,283,58.3,297,63.47a33.92,33.92,0,0,0,5.11-.55c11.05-2,38.32-16.56,54.32-21.32,15.49-4.61,22.81-4.9,37.71-5.38,15.39-10.71-18.73-25.79-30.41-24.42-12.13,1.41-14.8,12.85-14.08,19.63-13.17-7.73-33.3-14.63-48.79-4.54Z"/><path class="cls-24" d="M164.78,751.15c-14.17-18.21-37.6-60.9-30-109.87,6.72-43.55,36.78-42.5,48.07-37-1.26-34.67,9.47-71.57,33.56-94.37,31.21-29.55,58.44,3.13,48.18,28.64-39,97-65,158.73-22.15,268C273.9,886.81,337.1,955,404.18,991.27c-67.89,26.09-154.54-7.6-214.6-84-19.92-25.34-33.65-65.73-12.86-78.68-12.67-4.29-30-22.87-33.25-43.77-2.19-13.92,3.67-30.26,21.31-33.71Z"/><path class="cls-25" d="M248,580.25c1.59-37.71-20.53-52.71-42.51-20.84-17.07,24.75-17,62-9.05,81.43-68.58-22.92-50.72,81.39-16.4,123.08-49.77,11.55-18.95,63.48,15.91,66.62C153.43,885.1,253.09,987.3,353.69,1000a134.25,134.25,0,0,0,50.49-8.71C337.1,955,273.9,886.81,242.41,806.55,206,713.73,219.27,655.19,248,580.25Z"/><path class="cls-26" d="M74.88,671.68c10.36-26.45-2.46-61,23.16-170.47,4.67-19.94,13-39.2,18.76-58.35,1.24-4.15,3.55-11.32-8.07-9.87-13.72,1.72-36,27.06-42.47,39-12.49,23.22-8.59,38.87,1.28,56.33-34.76,12.14-61.2,40-59,81.91,2.91,55,57.63,83.58,66.31,61.41Z"/><path class="cls-27" d="M48.2,619.85c-37.87,19.53-40-22.21-30.63-51.62-6.47,11.88-9.86,25.92-9,42,2.91,55,57.63,83.58,66.31,61.41,10.36-26.45-2.46-61,23.16-170.47,4.67-19.94,13-39.2,18.76-58.35,1.24-4.15,3.55-11.32-8.07-9.87-7.51.94-17.59,9-26.24,18,11.9-10.19,19.59-13.25,20.3-10.75,1.23,4.35-8.9,23.89-14,49.92-3.62,18.41,2.06,42.34-17,40.33,17,33.24,9.92,72.12-23.58,89.38Z"/><path class="cls-28" d="M219.63,353.63c4.59-22.84,23.31-43.88,42.08-56.42-12.84-7.49-37.85-33.51-4.85-78.73,31.88-43.68,97.12-71.11,113.49-24.63,10.32-12,22.39-20.8,37.28-17.78,6.31,1.28,11.54,6.94,14.23,13.77,7-25.72,40.93-66.54,87.55-60.54,61,7.84,72.31,67.77,9.37,91.55-42.59,16.09-81.4,14-130,36.91-51.33,24.18-74.8,40.11-105.58,88.82-5.93,9.38-10.17,19.93-16.53,29-25.06,35.73-55.24,18.7-47.07-21.94Z"/><path class="cls-29" d="M283.65,317.37c-.46,18.16-22.09,53.57-36.71,63.65-11.43,7.88-22.91,7.7-28.28-8.14,3.35,25.77,27.43,32.07,48,2.69,6.36-9.07,10.6-19.61,16.53-29,30.78-48.7,54.25-64.64,105.58-88.82,48.57-22.88,87.38-20.82,130-36.91,62.94-23.78,51.63-83.71-9.37-91.55-1.55-.2-3.08-.35-4.6-.45,52.87,11.45,52.36,50.41,25.85,73.48-19.7,17.16-52.2,28.83-82.77,24.55-11.29-1.58-20.53-7.34-27.41-21.73-7.15,35.48-46.33,37.44-51.13-3C370.59,266.47,310.84,309,268,298.1c11.87,4,15.85,10.92,15.63,19.27Z"/><path class="cls-30" d="M901.17,334.53c35.2-72.23-47.79-145.45-94.56-88.24-13.71-35.58-79.47-47.41-103.81-12.87-9,12.82-12.6,30.31-8.13,47.93-19.94-13.12-40,.61-43.24,31.94-65.95-16.86-162.11,20.76-198.52,111.42-31.58,78.65,4.07,136.42,60.17,130.94,56.42-5.52,67.72-76.9,91.95-120,14.53-25.85,36.21-59.87,64.52-39.26,10.67,7.77,32.63,25.46,55.19,7.74,25.34-19.92,43.54-58.24,81.35-84.61,39.42-27.5,82.55-33.58,95.08,15Z"/><path class="cls-31" d="M647,343.78c-44.57,21-58.37,74.92-83.63,115.4-46.39,74.31-121.83,86.09-118.42-9.62-15.62,65.61,18.14,111,68.14,106.09,56.42-5.52,67.72-76.9,91.95-120,14.53-25.85,36.21-59.87,64.52-39.26,10.67,7.77,32.63,25.46,55.19,7.74,25.34-19.92,43.54-58.24,81.35-84.61,39.42-27.5,82.55-33.58,95.08,15,19.9-40.82,2-82-25.7-99.69C885,247,895,264.6,878.78,275.49c-16.41,11-55.27-5.75-71.32-18.36-1.05,56.49-51.75,67.61-92.54,42.66,10.2,7.09,18.5,14.94,23.79,23.29,19.63,31-10.86,53.74-34.33,46.21-7.17-2.3-13.24-8.19-17.51-18.69C680,333.74,662.7,336.37,647,343.78Z"/><path class="cls-32" d="M958.27,358.87c-3.37-4-8.52-8.24-13.54-7.42-4.32.71-7.75,6.34-8.05,11-.94,14.44,23,56.86,17,105.61-1.47,12.07-5.18,20.78-2.4,22.87,2.35,1.76,9.95-1.16,21.33-11.4,20.8-18.71,38.61-50,18.62-71.82-6.68-7.29-15.29-13.73-25.24-16.94,2.09-11.4.77-21.68-7.76-31.86Z"/><path class="cls-33" d="M985.42,429.61c-2-17.14-17.77-30.22-32.71-32.58,3.14-15-7.43-33.7-14.86-25.92,4.63,19.11,20.91,55.75,15.87,96.91-1.47,12.07-5.18,20.78-2.4,22.87,1.53,1.15,5.31.3,10.93-3.29,16-14.65,25.49-38.42,23.17-58Z"/><path class="cls-34" d="M666.11,958.6C528.24,1067.19,406.73,856.43,508,815.67c-26.91-94,35.52-207,101.76-190.72,15.43,3.79,30.5,18.4,32.7,47.26,16-61.47,101.34-112.54,111.47-47.31,45.61-87.41,154.82-81.66,123.37,57.8C863.92,741.9,844.9,775.16,818.52,807c-47.62,57.55-147.68,45.6-67.53-53,5-6.17,16.62-21.67,27.43-38.31,22.42-34.46,27.13-78-22.53-57.29-13.26,5.55-32.54,22.87-42.52,28.16-25.26,13.39-38.45,11.94-62.53,27.56-66.45,43.08-45.22,75.82-40.84,114.8,2.92,25.93-4.16,35.13-13.29,41.4-24.49,16.81-42.12,41.52-22.79,73.31,16.36,26.91,62,32.8,92.19,15Z"/><path class="cls-35" d="M573.92,943.62c-19.33-31.79-1.7-56.5,22.79-73.31,9.13-6.27,16.21-15.47,13.29-41.4-4.38-39-25.61-71.72,40.84-114.8,24.08-15.62,37.27-14.17,62.53-27.56,10-5.29,29.26-22.61,42.52-28.16,49.66-20.76,45,22.83,22.53,57.29C767.61,732.32,756,747.82,751,754c-58.49,72-21,97.81,22,84.14a68.06,68.06,0,0,0,31.67-20.81c45.18-51.16,76-152.28,25.31-192.39-20.35-16.11-51.49-13.1-82.88,28.44,12.68-72.92-91.87-15-108.86,54.3-2.11-85.06-70.29-51.27-85,17.3-8.66,40.44-1.79,79.69,11.69,113-24.7-3.56-43.58,7.92-50.44,27.56-23.7,67.84,73.79,141.12,151.58,93.07-30.15,17.82-75.83,11.93-92.19-15Z"/></g></g></svg>