<svg xmlns="http://www.w3.org/2000/svg" xmlns:xlink="http://www.w3.org/1999/xlink" viewBox="0 0 24 24"><defs><style>.cls-1{isolation:isolate;}.cls-10,.cls-11,.cls-12,.cls-13,.cls-14,.cls-15,.cls-16,.cls-17,.cls-18,.cls-2,.cls-3,.cls-4,.cls-5,.cls-6,.cls-7,.cls-8,.cls-9{fill-rule:evenodd;}.cls-2{fill:url(#radial-gradient);}.cls-3,.cls-4{mix-blend-mode:screen;}.cls-3{fill:url(#radial-gradient-2);}.cls-4{fill:url(#radial-gradient-3);}.cls-5{fill:url(#radial-gradient-4);}.cls-10,.cls-11,.cls-12,.cls-13,.cls-17,.cls-18,.cls-6,.cls-7,.cls-8,.cls-9{mix-blend-mode:multiply;}.cls-6{fill:url(#radial-gradient-5);}.cls-7{fill:url(#radial-gradient-6);}.cls-8{fill:url(#radial-gradient-7);}.cls-9{fill:url(#radial-gradient-8);}.cls-10{fill:url(#radial-gradient-9);}.cls-11{fill:url(#radial-gradient-10);}.cls-12{fill:url(#radial-gradient-11);}.cls-13{fill:url(#radial-gradient-12);}.cls-14{fill:url(#radial-gradient-13);}.cls-15{opacity:0.65;fill:url(#radial-gradient-14);}.cls-16{fill:url(#radial-gradient-15);}.cls-17{fill:url(#radial-gradient-16);}.cls-18{fill:url(#radial-gradient-17);}</style><radialGradient id="radial-gradient" cx="9.55" cy="6.46" r="9.42" gradientTransform="translate(-13.69 -8.82) scale(2.16 2.21)" gradientUnits="userSpaceOnUse"><stop offset="0" stop-color="#71f5ff"/><stop offset="0.17" stop-color="#6ae9ff"/><stop offset="0.47" stop-color="#56c9ff"/><stop offset="0.5" stop-color="#54c5ff"/><stop offset="0.92" stop-color="#1483ff"/></radialGradient><radialGradient id="radial-gradient-2" cx="12.06" cy="9.75" r="5.93" gradientTransform="translate(-13.69 -8.82) scale(2.16 2.21)" gradientUnits="userSpaceOnUse"><stop offset="0.04"/><stop offset="0.84"/><stop offset="0.85" stop-color="#0d1516"/><stop offset="0.9" stop-color="#3e6268"/><stop offset="0.93" stop-color="#659fa9"/><stop offset="0.96" stop-color="#81cbd7"/><stop offset="0.99" stop-color="#93e6f4"/><stop offset="1" stop-color="#99f0ff"/></radialGradient><radialGradient id="radial-gradient-3" cx="7.88" cy="4.98" r="6.5" gradientTransform="translate(-13.69 -8.82) scale(2.16 2.21)" gradientUnits="userSpaceOnUse"><stop offset="0" stop-color="#86ffff"/><stop offset="1"/></radialGradient><radialGradient id="radial-gradient-4" cx="9.37" cy="8.44" r="8.45" gradientTransform="translate(-13.69 -8.82) scale(2.16 2.21)" gradientUnits="userSpaceOnUse"><stop offset="0" stop-color="#f2f6ff"/><stop offset="1" stop-color="#d6f3ff"/></radialGradient><radialGradient id="radial-gradient-5" cx="11.22" cy="8.48" r="7.06" gradientTransform="translate(-13.69 -8.82) scale(2.16 2.21)" gradientUnits="userSpaceOnUse"><stop offset="0.62" stop-color="#fff"/><stop offset="0.65" stop-color="#f5faff"/><stop offset="0.75" stop-color="#d0e8ff"/><stop offset="0.85" stop-color="#b4daff"/><stop offset="0.94" stop-color="#a4d2ff"/><stop offset="1" stop-color="#9ecfff"/></radialGradient><radialGradient id="radial-gradient-6" cx="7.56" cy="5.42" r="8.67" gradientTransform="translate(-13.69 -8.82) scale(2.16 2.21)" gradientUnits="userSpaceOnUse"><stop offset="0.7" stop-color="#fff"/><stop offset="1" stop-color="#aac2e6"/></radialGradient><radialGradient id="radial-gradient-7" cx="8.51" cy="9.62" r="1.28" gradientTransform="translate(-13.69 -8.82) scale(2.16 2.21)" gradientUnits="userSpaceOnUse"><stop offset="0" stop-color="#fff"/><stop offset="1" stop-color="#aac2e6"/></radialGradient><radialGradient id="radial-gradient-8" cx="9.93" cy="9.02" r="2.83" xlink:href="#radial-gradient-7"/><radialGradient id="radial-gradient-9" cx="9.67" cy="9.91" r="7.78" gradientTransform="translate(-13.69 -8.82) scale(2.16 2.21)" gradientUnits="userSpaceOnUse"><stop offset="0" stop-color="#fff"/><stop offset="1" stop-color="#cfe2ff"/></radialGradient><radialGradient id="radial-gradient-10" cx="11.93" cy="12.33" r="5.01" gradientTransform="translate(-13.69 -8.82) scale(2.16 2.21)" gradientUnits="userSpaceOnUse"><stop offset="0" stop-color="#aac2e6"/><stop offset="1" stop-color="#fff"/></radialGradient><radialGradient id="radial-gradient-11" cx="12.52" cy="10.14" r="5.24" xlink:href="#radial-gradient-7"/><radialGradient id="radial-gradient-12" cx="11.41" cy="6.68" r="9.27" xlink:href="#radial-gradient-7"/><radialGradient id="radial-gradient-13" cx="11.7" cy="11.61" r="4.02" xlink:href="#radial-gradient-4"/><radialGradient id="radial-gradient-14" cx="12.98" cy="12.4" r="3.63" xlink:href="#radial-gradient-4"/><radialGradient id="radial-gradient-15" cx="7.1" cy="5.91" r="8.43" xlink:href="#radial-gradient-4"/><radialGradient id="radial-gradient-16" cx="8.81" cy="5.3" r="3.63" xlink:href="#radial-gradient-7"/><radialGradient id="radial-gradient-17" cx="10.88" cy="5.27" r="2.36" xlink:href="#radial-gradient-7"/></defs><g class="cls-1"><g id="Capa_1" data-name="Capa 1"><path class="cls-2" d="M11.66.06A11.77,11.77,0,0,1,23.32,12a11.78,11.78,0,0,1-11.66,11.9A11.78,11.78,0,0,1,0,12,11.77,11.77,0,0,1,11.66.06Z"/><path class="cls-3" d="M11.66.06A11.77,11.77,0,0,1,23.32,12a11.78,11.78,0,0,1-11.66,11.9A11.78,11.78,0,0,1,0,12,11.77,11.77,0,0,1,11.66.06Z"/><path class="cls-4" d="M3,7.74c-.22-.15-.22-.38-.65-.39s-.71.41-.87.87A7.32,7.32,0,0,0,1.62,13a8,8,0,0,0,.89,1.46c.46.63,1.39,1.5,2.25,1.2.37-.13.65-.44,1-.6a3.14,3.14,0,0,1,.79-.19c.38-.06.76-.06,1.14-.09,1.07-.1.77-.36,1.5-.64.24-.1.52-.08.77-.16a2.2,2.2,0,0,0,.56-.26c.61-.4-.28-.42-.53-.4a1.63,1.63,0,0,0-.37.13,5,5,0,0,1-.71.32,1.64,1.64,0,0,1-.66.07c-.3,0-.59-.18-.89-.24s-.27,0-.44-.06a1.15,1.15,0,0,1-.45-.16c-.7-.53,0-1.37,1-1.29A1.56,1.56,0,0,0,8.21,12a.12.12,0,0,0,0-.14.64.64,0,0,0-.1-.13c-.2-.21-.4-.44-.29-.77a.41.41,0,0,1,.24-.24c.2-.08.44,0,.66,0a.53.53,0,0,0,.31-.15c.13-.14.14-.36.26-.51.45-.61,1.64-.41,2.34-.56a1.88,1.88,0,0,0,.87-.33c.22-.17.31-1,.56-1.19A3.58,3.58,0,0,1,14,7.48c.72-.33,1.25-.27,1.66-1.08.14-.27.12-.61.26-.88s.57-.41.66-.62c.59-1.43-1.55-4-3.18-3.76-.94.13-.6.34-.09.61,1.13.59,1.79,1.13,1.7,2.53,0,.65-.74.53-.9.61a.19.19,0,0,0-.08.18,4.22,4.22,0,0,1,0,.87,1.6,1.6,0,0,1-.42.75A1.49,1.49,0,0,1,13,7a2.1,2.1,0,0,1-.75.06,2.43,2.43,0,0,1-.89-.17,1.34,1.34,0,0,1-.58-1.68,2.93,2.93,0,0,1,.33-.53c.11-.2-.11-.36.34-.65s.77-.64-.44-.28c-.48.15-1,.22-.82.74a1.39,1.39,0,0,1,.12.38c.15,1.51-.84,1.2-2,1.43-.23,0-.46.06-.68.13s-.36.24-.56.3c-.42.13-1,0-1.43.15a.29.29,0,0,0-.2.23c0,.13.36.39,0,.72a1.79,1.79,0,0,1-1.06.24A2.29,2.29,0,0,1,3,7.74Zm1.38,4.93c3-.11,1.78,2.06.31,1.51A2.19,2.19,0,0,1,4,13.82a.65.65,0,0,1,.34-1.15Z"/><path class="cls-5" d="M.38,15a5.91,5.91,0,0,0-.18.95c0,.1.1.19.16.27a2.3,2.3,0,0,0,.42.46c.24.17.64.09.89.16S1.86,17,2,17s.31.05.47.11.47.2.22.32c-.08,0-.18,0-.26,0a.31.31,0,0,0-.18.09c-.09.11-.14.26-.24.36s-.3,0-.37-.07a2.28,2.28,0,0,1-.4-.56,1.75,1.75,0,0,0-.1.44,3.44,3.44,0,0,0,0,.56.14.14,0,0,0,.06.11,8.33,8.33,0,0,0,1.47.82,5.48,5.48,0,0,0,.67.17c.61.13.5,0,1-.24a6.13,6.13,0,0,1,.92-.29c.66-.15,1.34-.2,2-.37.48-.13.94-.36,1.41-.53a7.56,7.56,0,0,1,1-.37.77.77,0,0,1,.45,0,.55.55,0,0,1,.27.23.48.48,0,0,1,.06.29.49.49,0,0,1-.12.25c-.13.12-.31.17-.45.29a2.28,2.28,0,0,0-.33.36c-.07.11-.07.26-.16.36a.74.74,0,0,1-.31.21c-.3.13-.63.21-.94.34a1.24,1.24,0,0,0-.3.16,8.68,8.68,0,0,1-.79.56,2.17,2.17,0,0,1-.72.17c-.45.05-.92,0-1.38.08a1.92,1.92,0,0,1-1,0,2.47,2.47,0,0,0,0,1.22c.06.23.31.37.51.48a1.76,1.76,0,0,0,.64.19c.4.07.81.07,1.21.15a2.58,2.58,0,0,1,.53.19c.19.09.37.21.55.31a5.77,5.77,0,0,0,.56.27,1.72,1.72,0,0,0,.51.11,3.78,3.78,0,0,0,.75,0c.25,0,.51-.05.76-.09l.33-.08c.39-.09.79-.14,1.18-.24a6.78,6.78,0,0,0,.87-.28q.66-.24,1.32-.51c.64-.25,1.27-.51,1.9-.78a5.65,5.65,0,0,0,.6-.31c.63-.37,1.26-.74,1.87-1.15s.91-.63,1.35-1,.78-.65,1.16-1,.63-.61.93-.93c.1-.1.18-.23.29-.32s.05,0,.05,0c.08.34-1.13,1.78-1.42,2s-.46.36-.68.55l-.91.79c-.22.19-.45.38-.69.55-.42.28-.85.54-1.29.84s-.65.48-.95.68a3.22,3.22,0,0,1-.71.32c-.38.15-.74.32-1.12.46-.21.07-.44.1-.66.17s-.62.2-1,.27c.7.07,1.1.28,1.52.09.17-.08.31-.23.48-.3a6,6,0,0,1,.85-.25,9.71,9.71,0,0,0,2.17-.58,7.4,7.4,0,0,0,.57-.55c.16-.13.35-.2.51-.32a9.85,9.85,0,0,0,1.63-1.31,22.74,22.74,0,0,0,1.35-2A7.71,7.71,0,0,0,22.69,17a9.12,9.12,0,0,0,.21-1,5.08,5.08,0,0,1,.28-.86,5.28,5.28,0,0,0,.8-2.48,3.28,3.28,0,0,0,0-1,6.81,6.81,0,0,0-.33-.73c-.09-.27-.14-.56-.22-.83s-.13-.37-.2-.54S23,9.11,23,8.93c.06.36.14.7.19,1.06a11.22,11.22,0,0,1,.09,2.09,7.64,7.64,0,0,1-2.36,5.19,13,13,0,0,1-1.06,1,2.52,2.52,0,0,1-.58.32c-.28.13-.57.23-.85.36a9,9,0,0,0-.84.38,5.58,5.58,0,0,0-.48.37c-.17.13-.33.28-.51.4a4.54,4.54,0,0,1-.68.38c-.46.22-.93.42-1.41.61a5.8,5.8,0,0,1-1.32.43c-.05,0-.13,0-.16,0a.09.09,0,0,1,.06-.11,9.36,9.36,0,0,0,1.08-.65c.31-.22.57-.51.88-.73s.55-.28.79-.46a2.78,2.78,0,0,0,.48-.49c.26-.34.46-.72.72-1a4.33,4.33,0,0,1,.55-.58,3.48,3.48,0,0,1,.64-.38c.29-.14.63-.16.91-.32a1.44,1.44,0,0,0,.46-.49c.19-.31.27-.68.45-1,.28-.47.61-.91.93-1.36s.51-.69.79-1a1.37,1.37,0,0,1,.29-.24.18.18,0,0,1,.14,0c.1,0,.1.15.31.13s.43-.49.51-.76a6.55,6.55,0,0,0,.16-1.34c0-.06,0-.13-.06-.15s-.06,0-.11,0-.05-.06-.06-.1c-.07-.42-.09-.84-.15-1.26a4.62,4.62,0,0,0-.08-.65,1.66,1.66,0,0,0-.14-.37.16.16,0,0,0-.09-.09s0,0-.06,0,0,.05-.07.05-.12,0-.13,0a1.06,1.06,0,0,1-.06-.19C22,7.55,22,7.17,21.9,6.78c0-.06,0-.12,0-.18s0,0,0,0a.07.07,0,0,1,.05,0c0,.1.09.2.15.3l.13.27c0,.08.06,0,.07,0a1.4,1.4,0,0,0-.06-.41A6.18,6.18,0,0,0,22,6a10.4,10.4,0,0,0-.38-1,16.89,16.89,0,0,1-1.51-1.53,11.59,11.59,0,0,0-1.63-2.17c-.18-.12-.46.05-1.14-.3A10.32,10.32,0,0,1,16.15.27,19.85,19.85,0,0,0,11,.08c0,.17.29.22.47.23s.45-.06.68-.07c0,0,.1,0,.11,0s-.06,0-.09.07a1.79,1.79,0,0,0-.38.3c-.11.13.15.11.21.12L13,.8c.22,0,.45,0,.67,0a2.52,2.52,0,0,1,.72.17,4,4,0,0,1,.44.27,5.63,5.63,0,0,0,.79.36,3.89,3.89,0,0,0,.49,0,2.44,2.44,0,0,1,.24.1,2.24,2.24,0,0,1,.37.1,1.2,1.2,0,0,1,.37.34,2.25,2.25,0,0,1,.22.56c.08.23.11.48.2.7a1.14,1.14,0,0,0,.23.31,3.3,3.3,0,0,0,.51.48c.18.12.23-.11.26-.14s.05,0,.07,0a.26.26,0,0,1,.12.09,2.68,2.68,0,0,1,.12.3.51.51,0,0,0,.2.32,3.61,3.61,0,0,1,.3.25,1.32,1.32,0,0,1,.18.22,2.06,2.06,0,0,1,.12.35c0,.12,0,.25,0,.37a.35.35,0,0,0,.06.14,3.15,3.15,0,0,1,.22.29c.06.11.08.25.13.36s.2.24.24.39A2,2,0,0,1,20,8.27a3.19,3.19,0,0,1-.38.46,5.23,5.23,0,0,0-.48.56,3.07,3.07,0,0,0-.2.45c-.14.3-.24.63-.4.92a4,4,0,0,1-.47.61,6.34,6.34,0,0,1-.63.64c-.28.24-.59.43-.87.66s-.51.47-.78.68a7.53,7.53,0,0,1-.92.64,7.4,7.4,0,0,1-.8.39c-.19.08-.4.14-.59.23a4,4,0,0,0-.45.25l-.76.43c-.25.13-.5.28-.77.39a2,2,0,0,1-.49.12.26.26,0,0,1-.19,0,.09.09,0,0,1,0-.11.52.52,0,0,1,.21-.18c.29-.17.6-.31.9-.46s.67-.31,1-.49a5,5,0,0,0,.69-.44,7.88,7.88,0,0,0,.83-.7c.36-.37.68-.79,1-1.18l.52-.52c.18-.17.38-.32.55-.5a8.67,8.67,0,0,0,.64-.72c.18-.22.34-.46.5-.7A3,3,0,0,0,18.07,9a12.33,12.33,0,0,0,.24-1.48,6.21,6.21,0,0,0,.07-.73c0-.23-.08-.46-.08-.69a1.35,1.35,0,0,1,.09-.33,1.13,1.13,0,0,0,.08-.24,5.07,5.07,0,0,0-.06-.7.42.42,0,0,0-.64-.25.75.75,0,0,0-.24.38c-.05.14-.05.3-.09.45-.08.31-.19.31-.49.41s-.49.1-.72.19a.39.39,0,0,0-.2.13A.64.64,0,0,0,16,6.4a1.82,1.82,0,0,1,0,.33c-.07.29-.41.52-.62.72s-.16.21-.27.27a2.4,2.4,0,0,1-.52.16c-.21,0-.43.06-.64.12a1.76,1.76,0,0,0-.4.16.74.74,0,0,0-.23.2.24.24,0,0,0,0,.14.2.2,0,0,0,0,.08s.07,0,.09.05,0,.24-.09.33-.15,0-.2.09-.12.21-.19.3a1.9,1.9,0,0,1-1.15.67c-.22,0-.44,0-.66,0l-.82,0c-.42,0-.7,0-.93.41-.06.1-.09.22-.16.32a.39.39,0,0,1-.17.11.76.76,0,0,1-.26.06,1.59,1.59,0,0,0-.38,0,.35.35,0,0,0-.14.13.38.38,0,0,0-.07.21c0,.07.11.11.13.18s0,.12,0,.18a.23.23,0,0,0,.1.15.28.28,0,0,0,.18,0,3.85,3.85,0,0,1,.48,0,.18.18,0,0,1,0,.34,5.05,5.05,0,0,1-.68.07c-.05,0-.11,0-.16,0s-.26.12-.4.14-.33-.07-.49,0a2.62,2.62,0,0,0-.45.21,2.17,2.17,0,0,0-.35.07c-.34.16-.33.54,0,.61s.55,0,.83,0a4.27,4.27,0,0,0,1.26.15,4.72,4.72,0,0,0,.84-.12c.12,0,.2-.16.32-.2s.31,0,.45-.07.16-.21.28-.27a1.31,1.31,0,0,1,.4-.1l.62-.15c.15,0,.45-.07.42.19a.67.67,0,0,1-.1.31,1.71,1.71,0,0,1-.35.36c-.16.12-.36.16-.52.27s-.18.19-.3.25c-.29.13-.62.21-.93.32s-.41.13-.61.21a1,1,0,0,0-.17.12c-.14.1-.26.21-.4.3A1.85,1.85,0,0,1,8.2,15c-.3.1-.61.16-.91.23s-.38.05-.57.09L6,15.52l-.53.16a2.62,2.62,0,0,1-.39.15,1.75,1.75,0,0,1-.33.05l-.9.06-.67,0a2.36,2.36,0,0,1-.46,0c-.29-.05-.57-.13-.85-.2l-.54-.15c-.11,0-.23,0-.34-.08a1,1,0,0,1-.3-.14C.59,15.27.5,15.12.38,15Zm3.17-2.13a.66.66,0,0,0-.15.3c-.06.5.72.83,1.21,1,.24.06.38,0,.76-.16.06,0,.15,0,.18-.09s.06-.27.12-.4.15-.18.2-.28a.22.22,0,0,0,0-.16.41.41,0,0,0-.2-.21c-.32-.13-1.83-.26-2.12,0Z"/><path class="cls-6" d="M.38,15a5.91,5.91,0,0,0-.18.95c0,.1.1.19.16.27a2.3,2.3,0,0,0,.42.46c.24.17.64.09.89.16S1.86,17,2,17s.31.05.47.11.47.2.22.32c-.08,0-.18,0-.26,0a.31.31,0,0,0-.18.09c-.09.11-.14.26-.24.36s-.3,0-.37-.07a2.28,2.28,0,0,1-.4-.56,1.75,1.75,0,0,0-.1.44,3.44,3.44,0,0,0,0,.56.14.14,0,0,0,.06.11,8.33,8.33,0,0,0,1.47.82,5.48,5.48,0,0,0,.67.17c.61.13.5,0,1-.24a6.13,6.13,0,0,1,.92-.29c.66-.15,1.34-.2,2-.37.48-.13.94-.36,1.41-.53a7.56,7.56,0,0,1,1-.37.77.77,0,0,1,.45,0,.55.55,0,0,1,.27.23.48.48,0,0,1,.06.29.49.49,0,0,1-.12.25c-.13.12-.31.17-.45.29a2.28,2.28,0,0,0-.33.36c-.07.11-.07.26-.16.36a.74.74,0,0,1-.31.21c-.3.13-.63.21-.94.34a1.24,1.24,0,0,0-.3.16,8.68,8.68,0,0,1-.79.56,2.17,2.17,0,0,1-.72.17c-.45.05-.92,0-1.38.08a1.92,1.92,0,0,1-1,0,2.47,2.47,0,0,0,0,1.22c.06.23.31.37.51.48a1.76,1.76,0,0,0,.64.19c.4.07.81.07,1.21.15a2.58,2.58,0,0,1,.53.19c.19.09.37.21.55.31a5.77,5.77,0,0,0,.56.27,1.72,1.72,0,0,0,.51.11,3.78,3.78,0,0,0,.75,0c.25,0,.51-.05.76-.09l.33-.08c.39-.09.79-.14,1.18-.24a6.78,6.78,0,0,0,.87-.28q.66-.24,1.32-.51c.64-.25,1.27-.51,1.9-.78a5.65,5.65,0,0,0,.6-.31c.63-.37,1.26-.74,1.87-1.15s.91-.63,1.35-1,.78-.65,1.16-1,.63-.61.93-.93c.1-.1.18-.23.29-.32s.05,0,.05,0c.08.34-1.13,1.78-1.42,2s-.46.36-.68.55l-.91.79c-.22.19-.45.38-.69.55-.42.28-.85.54-1.29.84s-.65.48-.95.68a3.22,3.22,0,0,1-.71.32c-.38.15-.74.32-1.12.46-.21.07-.44.1-.66.17s-.62.2-1,.27c.7.07,1.1.28,1.52.09.17-.08.31-.23.48-.3a6,6,0,0,1,.85-.25,9.71,9.71,0,0,0,2.17-.58,7.4,7.4,0,0,0,.57-.55c.16-.13.35-.2.51-.32a9.85,9.85,0,0,0,1.63-1.31,22.74,22.74,0,0,0,1.35-2A7.71,7.71,0,0,0,22.69,17a9.12,9.12,0,0,0,.21-1,5.08,5.08,0,0,1,.28-.86,5.28,5.28,0,0,0,.8-2.48,3.28,3.28,0,0,0,0-1,6.81,6.81,0,0,0-.33-.73c-.09-.27-.14-.56-.22-.83s-.13-.37-.2-.54S23,9.11,23,8.93c.06.36.14.7.19,1.06a11.22,11.22,0,0,1,.09,2.09,7.64,7.64,0,0,1-2.36,5.19,13,13,0,0,1-1.06,1,2.52,2.52,0,0,1-.58.32c-.28.13-.57.23-.85.36a9,9,0,0,0-.84.38,5.58,5.58,0,0,0-.48.37c-.17.13-.33.28-.51.4a4.54,4.54,0,0,1-.68.38c-.46.22-.93.42-1.41.61a5.8,5.8,0,0,1-1.32.43c-.05,0-.13,0-.16,0a.09.09,0,0,1,.06-.11,9.36,9.36,0,0,0,1.08-.65c.31-.22.57-.51.88-.73s.55-.28.79-.46a2.78,2.78,0,0,0,.48-.49c.26-.34.46-.72.72-1a4.33,4.33,0,0,1,.55-.58,3.48,3.48,0,0,1,.64-.38c.29-.14.63-.16.91-.32a1.44,1.44,0,0,0,.46-.49c.19-.31.27-.68.45-1,.28-.47.61-.91.93-1.36s.51-.69.79-1a1.37,1.37,0,0,1,.29-.24.18.18,0,0,1,.14,0c.1,0,.1.15.31.13s.43-.49.51-.76a6.55,6.55,0,0,0,.16-1.34c0-.06,0-.13-.06-.15s-.06,0-.11,0-.05-.06-.06-.1c-.07-.42-.09-.84-.15-1.26a4.62,4.62,0,0,0-.08-.65,1.66,1.66,0,0,0-.14-.37.16.16,0,0,0-.09-.09s0,0-.06,0,0,.05-.07.05-.12,0-.13,0a1.06,1.06,0,0,1-.06-.19C22,7.55,22,7.17,21.9,6.78c0-.06,0-.12,0-.18s0,0,0,0a.07.07,0,0,1,.05,0c0,.1.09.2.15.3l.13.27c0,.08.06,0,.07,0a1.4,1.4,0,0,0-.06-.41A6.18,6.18,0,0,0,22,6a10.4,10.4,0,0,0-.38-1,16.89,16.89,0,0,1-1.51-1.53,11.59,11.59,0,0,0-1.63-2.17c-.18-.12-.46.05-1.14-.3A10.32,10.32,0,0,1,16.15.27,19.85,19.85,0,0,0,11,.08c0,.17.29.22.47.23s.45-.06.68-.07c0,0,.1,0,.11,0s-.06,0-.09.07a1.79,1.79,0,0,0-.38.3c-.11.13.15.11.21.12L13,.8c.22,0,.45,0,.67,0a2.52,2.52,0,0,1,.72.17,4,4,0,0,1,.44.27,5.63,5.63,0,0,0,.79.36,3.89,3.89,0,0,0,.49,0,2.44,2.44,0,0,1,.24.1,2.24,2.24,0,0,1,.37.1,1.2,1.2,0,0,1,.37.34,2.25,2.25,0,0,1,.22.56c.08.23.11.48.2.7a1.14,1.14,0,0,0,.23.31,3.3,3.3,0,0,0,.51.48c.18.12.23-.11.26-.14s.05,0,.07,0a.26.26,0,0,1,.12.09,2.68,2.68,0,0,1,.12.3.51.51,0,0,0,.2.32,3.61,3.61,0,0,1,.3.25,1.32,1.32,0,0,1,.18.22,2.06,2.06,0,0,1,.12.35c0,.12,0,.25,0,.37a.35.35,0,0,0,.06.14,3.15,3.15,0,0,1,.22.29c.06.11.08.25.13.36s.2.24.24.39A2,2,0,0,1,20,8.27a3.19,3.19,0,0,1-.38.46,5.23,5.23,0,0,0-.48.56,3.07,3.07,0,0,0-.2.45c-.14.3-.24.63-.4.92a4,4,0,0,1-.47.61,6.34,6.34,0,0,1-.63.64c-.28.24-.59.43-.87.66s-.51.47-.78.68a7.53,7.53,0,0,1-.92.64,7.4,7.4,0,0,1-.8.39c-.19.08-.4.14-.59.23a4,4,0,0,0-.45.25l-.76.43c-.25.13-.5.28-.77.39a2,2,0,0,1-.49.12.26.26,0,0,1-.19,0,.09.09,0,0,1,0-.11.52.52,0,0,1,.21-.18c.29-.17.6-.31.9-.46s.67-.31,1-.49a5,5,0,0,0,.69-.44,7.88,7.88,0,0,0,.83-.7c.36-.37.68-.79,1-1.18l.52-.52c.18-.17.38-.32.55-.5a8.67,8.67,0,0,0,.64-.72c.18-.22.34-.46.5-.7A3,3,0,0,0,18.07,9a12.33,12.33,0,0,0,.24-1.48,6.21,6.21,0,0,0,.07-.73c0-.23-.08-.46-.08-.69a1.35,1.35,0,0,1,.09-.33,1.13,1.13,0,0,0,.08-.24,5.07,5.07,0,0,0-.06-.7.42.42,0,0,0-.64-.25.75.75,0,0,0-.24.38c-.05.14-.05.3-.09.45-.08.31-.19.31-.49.41s-.49.1-.72.19a.39.39,0,0,0-.2.13A.64.64,0,0,0,16,6.4a1.82,1.82,0,0,1,0,.33c-.07.29-.41.52-.62.72s-.16.21-.27.27a2.4,2.4,0,0,1-.52.16c-.21,0-.43.06-.64.12a1.76,1.76,0,0,0-.4.16.74.74,0,0,0-.23.2.24.24,0,0,0,0,.14.2.2,0,0,0,0,.08s.07,0,.09.05,0,.24-.09.33-.15,0-.2.09-.12.21-.19.3a1.9,1.9,0,0,1-1.15.67c-.22,0-.44,0-.66,0l-.82,0c-.42,0-.7,0-.93.41-.06.1-.09.22-.16.32a.39.39,0,0,1-.17.11.76.76,0,0,1-.26.06,1.59,1.59,0,0,0-.38,0,.35.35,0,0,0-.14.13.38.38,0,0,0-.07.21c0,.07.11.11.13.18s0,.12,0,.18a.23.23,0,0,0,.1.15.28.28,0,0,0,.18,0,3.85,3.85,0,0,1,.48,0,.18.18,0,0,1,0,.34,5.05,5.05,0,0,1-.68.07c-.05,0-.11,0-.16,0s-.26.12-.4.14-.33-.07-.49,0a2.62,2.62,0,0,0-.45.21,2.17,2.17,0,0,0-.35.07c-.34.16-.33.54,0,.61s.55,0,.83,0a4.27,4.27,0,0,0,1.26.15,4.72,4.72,0,0,0,.84-.12c.12,0,.2-.16.32-.2s.31,0,.45-.07.16-.21.28-.27a1.31,1.31,0,0,1,.4-.1l.62-.15c.15,0,.45-.07.42.19a.67.67,0,0,1-.1.31,1.71,1.71,0,0,1-.35.36c-.16.12-.36.16-.52.27s-.18.19-.3.25c-.29.13-.62.21-.93.32s-.41.13-.61.21a1,1,0,0,0-.17.12c-.14.1-.26.21-.4.3A1.85,1.85,0,0,1,8.2,15c-.3.1-.61.16-.91.23s-.38.05-.57.09L6,15.52l-.53.16a2.62,2.62,0,0,1-.39.15,1.75,1.75,0,0,1-.33.05l-.9.06-.67,0a2.36,2.36,0,0,1-.46,0c-.29-.05-.57-.13-.85-.2l-.54-.15c-.11,0-.23,0-.34-.08a1,1,0,0,1-.3-.14C.59,15.27.5,15.12.38,15Zm3.17-2.13a.66.66,0,0,0-.15.3c-.06.5.72.83,1.21,1,.24.06.38,0,.76-.16.06,0,.15,0,.18-.09s.06-.27.12-.4.15-.18.2-.28a.22.22,0,0,0,0-.16.41.41,0,0,0-.2-.21c-.32-.13-1.83-.26-2.12,0Z"/><path class="cls-7" d="M3.67,17.28a10.16,10.16,0,0,1,2.47-.45,15,15,0,0,0,1.68-.06,10.74,10.74,0,0,0,2.24-1c.3-.14.67-.3,1-.43s.58-.3.87-.44.67-.31,1-.49a5,5,0,0,0,.69-.44,7.88,7.88,0,0,0,.83-.7c.36-.37.68-.79,1-1.18l.52-.52c.18-.17.38-.32.55-.5a8.67,8.67,0,0,0,.64-.72c.18-.22.34-.46.5-.7A3,3,0,0,0,18.07,9a12.33,12.33,0,0,0,.24-1.48,6.21,6.21,0,0,0,.07-.73c0-.23-.08-.46-.08-.69a1.35,1.35,0,0,1,.09-.33,1.13,1.13,0,0,0,.08-.24,5.07,5.07,0,0,0-.06-.7.42.42,0,0,0-.32-.31l.09.11a.49.49,0,0,1,0,.21.68.68,0,0,1,0,.28,1.13,1.13,0,0,1-.19.31c-.1.13-.26.22-.33.37a.62.62,0,0,0,0,.38c0,.14.14.25.18.39a1.22,1.22,0,0,1,.09.46,2.64,2.64,0,0,1-.17.61,4,4,0,0,0-.26.45c-.1.28-.1.59-.21.86a4.4,4.4,0,0,1-.54.94,5.82,5.82,0,0,1-.89.9c-.47.39-1.05.65-1.49,1.08s-.48.8-.79,1.14a3.29,3.29,0,0,1-.81.62c-.18.11-.42.1-.61.2-.45.26-.85.6-1.29.87a12.8,12.8,0,0,1-1.13.66,10,10,0,0,1-1.17.49,10.25,10.25,0,0,1-1.23.23c-.46.09-.92.14-1.37.26s-.73.25-1.1.35a1.71,1.71,0,0,1-.51.1c-.22,0-.44-.07-.66-.09a1.22,1.22,0,0,0-.33,0,2.62,2.62,0,0,0-.39.15.54.54,0,0,1-.22.05,2.63,2.63,0,0,1-.61-.12c-.14,0-.64-.38-.68-.38s-.25.09-.38.09a.83.83,0,0,1-.22,0,.64.64,0,0,1-.18-.06,1.37,1.37,0,0,1-.37-.49,1.16,1.16,0,0,1,0-.47,2.34,2.34,0,0,0-.09.54c0,.1.1.19.16.27a2.3,2.3,0,0,0,.42.46.67.67,0,0,0,.21.09c.22,0,.49,0,.68.07S1.86,17,2,17s.31.05.47.11.47.2.22.32c-.08,0-.18,0-.26,0a.31.31,0,0,0-.18.09l0,.06a.47.47,0,0,1,.28-.08c.15,0,.37.07.5.06.31,0,.44-.19.7-.29Z"/><path class="cls-8" d="M4.5,13.79a1.24,1.24,0,0,1-1.09-.49c.08.42.75.7,1.2.82.24.06.38,0,.76-.16.06,0,.15,0,.18-.09s.06-.27.12-.4.15-.18.2-.28a.22.22,0,0,0,0-.16.41.41,0,0,0-.2-.21h0l0,.06a.23.23,0,0,1-.09.23c-.13.08-.42.09-.53.23s0,.32-.13.37a1.07,1.07,0,0,1-.43.09Z"/><path class="cls-9" d="M9,12.94c0,.07.06.14,0,.21s0,.06-.09.07a2.64,2.64,0,0,1-1,.08c-.15,0-.3-.12-.45-.15a.37.37,0,0,0-.18,0l-.55.08c.22,0,.44,0,.66,0a4.27,4.27,0,0,0,1.26.15,4.72,4.72,0,0,0,.84-.12c.12,0,.2-.16.32-.2s.31,0,.45-.07.16-.21.28-.27a1.31,1.31,0,0,1,.4-.1l.62-.15a1,1,0,0,1,.3,0,3.39,3.39,0,0,0-1.27,0c-.2,0-.35,0-.4.2a.2.2,0,0,1-.08.14.34.34,0,0,1-.2,0c-.2,0-.39-.09-.59-.11s-.31,0-.33.16Z"/><path class="cls-10" d="M9.12,19.58c-.3.13-.63.21-.94.34a1.24,1.24,0,0,0-.3.16,8.68,8.68,0,0,1-.79.56,2.17,2.17,0,0,1-.72.17c-.45.05-.92,0-1.38.08a1.92,1.92,0,0,1-1,0,2.47,2.47,0,0,0,0,1.22c.06.23.31.37.51.48a1.76,1.76,0,0,0,.64.19c.4.07.81.07,1.21.15a2.58,2.58,0,0,1,.53.19c.19.09.37.21.55.31a5.77,5.77,0,0,0,.56.27,1.72,1.72,0,0,0,.51.11,3.78,3.78,0,0,0,.75,0c.23,0,.45,0,.68-.08H10l.33-.08c.39-.09.79-.14,1.18-.24a6.78,6.78,0,0,0,.87-.28q.66-.24,1.32-.51c.64-.25,1.27-.51,1.9-.78a5.65,5.65,0,0,0,.6-.31c.63-.37,1.26-.74,1.87-1.15s.91-.63,1.35-1,.78-.65,1.16-1,.63-.61.93-.93c.1-.1.18-.23.29-.32s.05,0,.05,0c.08.34-1.13,1.78-1.42,2s-.46.36-.68.55l-.91.79c-.22.19-.45.38-.69.55-.42.28-.85.54-1.29.84s-.65.48-.95.68a3.22,3.22,0,0,1-.71.32c-.38.15-.74.32-1.12.46-.21.07-.44.1-.66.17s-.62.2-1,.27c.7.07,1.1.28,1.52.09.17-.08.31-.23.48-.3a6,6,0,0,1,.85-.25,9.71,9.71,0,0,0,2.17-.58,7.4,7.4,0,0,0,.57-.55c.16-.13.35-.2.51-.32a9.85,9.85,0,0,0,1.63-1.31,22.74,22.74,0,0,0,1.35-2A7.71,7.71,0,0,0,22.69,17a9.12,9.12,0,0,0,.21-1,5.08,5.08,0,0,1,.28-.86,5.28,5.28,0,0,0,.8-2.48,3.28,3.28,0,0,0,0-1,6.81,6.81,0,0,0-.33-.73c-.09-.27-.14-.56-.22-.83s-.13-.37-.2-.54S23,9.11,23,8.93c.06.36.14.7.19,1.06a11.22,11.22,0,0,1,.09,2.09,7.64,7.64,0,0,1-2.36,5.19,13,13,0,0,1-1.06,1,2.52,2.52,0,0,1-.58.32c-.28.13-.57.23-.85.36a9,9,0,0,0-.84.38,5.58,5.58,0,0,0-.48.37c-.17.13-.33.28-.51.4a4.54,4.54,0,0,1-.68.38c-.46.22-.93.42-1.41.61a5.8,5.8,0,0,1-1.32.43c-.05,0-.13,0-.16,0a.09.09,0,0,1,.06-.11,9.36,9.36,0,0,0,1.08-.65c.31-.22.57-.51.88-.73s.55-.28.79-.46a2.78,2.78,0,0,0,.48-.49c.26-.34.46-.72.72-1a4.33,4.33,0,0,1,.55-.58,3.48,3.48,0,0,1,.64-.38c.29-.14.63-.16.91-.32a1.44,1.44,0,0,0,.46-.49c.19-.31.27-.68.45-1,.28-.47.61-.91.93-1.36s.51-.69.79-1a1.37,1.37,0,0,1,.29-.24.18.18,0,0,1,.14,0c.1,0,.1.15.31.13s.43-.49.51-.76a6.55,6.55,0,0,0,.16-1.34c0-.06,0-.13-.06-.15s-.06,0-.11,0-.05-.06-.06-.1c-.07-.42-.09-.84-.15-1.26a4.62,4.62,0,0,0-.08-.65,1.66,1.66,0,0,0-.14-.37.16.16,0,0,0-.09-.09s0,0-.06,0,0,.05-.07.05-.12,0-.13,0a1.06,1.06,0,0,1-.06-.19C22,7.55,22,7.17,21.9,6.78c0-.06,0-.12,0-.18s0,0,0,0a.07.07,0,0,1,.05,0c0,.1.09.2.15.3l.13.27c0,.08.06,0,.07,0a1.23,1.23,0,0,0,0-.2,1.55,1.55,0,0,0,0-.21A6.18,6.18,0,0,0,22,6a10.4,10.4,0,0,0-.38-1l-.41-.39a4.66,4.66,0,0,1,.44,1.13,3.54,3.54,0,0,1,.07.5,6.78,6.78,0,0,1-.19,2.34,12.27,12.27,0,0,1-.71,1.28,7.9,7.9,0,0,1-.46,1.26,23.68,23.68,0,0,1-3.18,3.06,17.58,17.58,0,0,1-4.47,2.49c-.92.24-1.89.18-2.81.38-.64.14-1.22.48-1.86.65-1,.26-1.69.33-2.72.65a1.9,1.9,0,0,1-1.08.05c-.32,0-.66-.06-.79.11s0,.23-.06.28a.49.49,0,0,1-.41,0c-.31-.11-.57-.33-.88-.45a.38.38,0,0,0-.25,0c-.1,0-.17.1-.25.1a.19.19,0,0,1-.16-.06,1.4,1.4,0,0,1-.24-.82l0,.18a3.44,3.44,0,0,0,0,.56.14.14,0,0,0,.06.11,10,10,0,0,0,1.15.68,2.22,2.22,0,0,0,.32.14,5.48,5.48,0,0,0,.67.17c.61.13.5,0,1-.24a6.13,6.13,0,0,1,.92-.29c.66-.15,1.34-.2,2-.37.48-.13.94-.36,1.41-.53a7.56,7.56,0,0,1,1-.37.77.77,0,0,1,.45,0,.55.55,0,0,1,.27.23.48.48,0,0,1,.06.29.49.49,0,0,1-.12.25c-.13.12-.31.17-.45.29a2.28,2.28,0,0,0-.33.36c-.07.11-.07.26-.16.36a.74.74,0,0,1-.31.21Z"/><path class="cls-11" d="M6.74,18.25c-.54.15-1.17,0-1.74.15a2,2,0,0,1-.81,0c-.32,0-.66-.06-.79.11s0,.23-.06.28a.49.49,0,0,1-.41,0c-.31-.11-.57-.33-.88-.45a.38.38,0,0,0-.25,0c-.1,0-.17.1-.25.1a.19.19,0,0,1-.16-.06,1.4,1.4,0,0,1-.24-.82l0,.18a3.44,3.44,0,0,0,0,.56.14.14,0,0,0,.06.11,10,10,0,0,0,1.15.68,2.22,2.22,0,0,0,.32.14,5.48,5.48,0,0,0,.67.17c.61.13.5,0,1-.24a6.13,6.13,0,0,1,.92-.29c.66-.15,1.34-.2,2-.37.48-.13.94-.36,1.41-.53a7.56,7.56,0,0,1,1-.37.77.77,0,0,1,.45,0,.55.55,0,0,1,.27.23.48.48,0,0,1,.06.29.49.49,0,0,1-.12.25l-.15.1a1,1,0,0,0,.23-.12c.33-.24.32-.54,1.05-.89s-.55-.28-.66-.27a4.68,4.68,0,0,0-1.44.07c-.75.21-1.75.75-2.66,1Z"/><path class="cls-12" d="M15.43,16.17c-.87.3-2,.59-2.91.84-.09,0-.51.11-.55.2a1.51,1.51,0,0,0,.65,0,21.4,21.4,0,0,0,2.69-.58A10.57,10.57,0,0,0,18,15.84a3.35,3.35,0,0,0,.94-.73,11.28,11.28,0,0,0,.5-1,4.47,4.47,0,0,1,.66-.78c.41-.41.87-.76,1.27-1.17a2.33,2.33,0,0,0,.54-.64,4.28,4.28,0,0,0,.35-1.27,12.15,12.15,0,0,0,0-1.48,1.35,1.35,0,0,1,.06-.58h0s-.12,0-.13,0a1.06,1.06,0,0,1-.06-.19C22,7.55,22,7.17,21.9,6.78c0-.06,0-.12,0-.18s0,0,0,0a.07.07,0,0,1,.05,0c0,.1.09.2.15.3l.13.27c0,.08.06,0,.07,0a1.23,1.23,0,0,0,0-.2,1.55,1.55,0,0,0,0-.21A6.18,6.18,0,0,0,22,6a10.4,10.4,0,0,0-.38-1l0,0a3.37,3.37,0,0,1,.29,1.16c0,.05,0,.09,0,.13s0,0-.06,0a4.29,4.29,0,0,0,0,.49,13,13,0,0,1,.08,1.4,7.24,7.24,0,0,1-.18,1.8A5.11,5.11,0,0,1,21,11.18a10,10,0,0,1-1,1.55c-.31.35-.8.49-1.14.81-1.33,1.29-1.17,1.84-3.44,2.63Z"/><path class="cls-13" d="M7,22.27a4.08,4.08,0,0,0-.74.23A1.82,1.82,0,0,1,5,22.36,1.18,1.18,0,0,1,4.07,21v0l-.09,0a2.47,2.47,0,0,0,0,1.22c.06.23.31.37.51.48a1.76,1.76,0,0,0,.64.19c.4.07.81.07,1.21.15a2.58,2.58,0,0,1,.53.19c.19.09.37.21.55.31a5.77,5.77,0,0,0,.56.27,1.72,1.72,0,0,0,.51.11,3.78,3.78,0,0,0,.75,0c.23,0,.45,0,.68-.08H10l.33-.08c.39-.09.79-.14,1.18-.24a6.78,6.78,0,0,0,.87-.28q.66-.24,1.32-.51c.64-.25,1.27-.51,1.9-.78a5.65,5.65,0,0,0,.6-.31c.63-.37,1.26-.74,1.87-1.15s.91-.63,1.35-1,.78-.65,1.16-1,.63-.61.93-.93c.1-.1.18-.23.29-.32s.05,0,.05,0c.08.34-1.13,1.78-1.42,2l-.09.07A6,6,0,0,0,22.17,17l.22-.41a11.3,11.3,0,0,0,.48-1.07A2.6,2.6,0,0,0,23,15s0,0-.09.11-.15.27-.18.32a10.58,10.58,0,0,1-.89,1.36c-.18.23-.38.43-.57.63s-.62.62-1,.91-.57.4-.85.61-.76.55-1.12.84-.46.46-.72.64a7.17,7.17,0,0,1-.86.47l-1.15.58c-.24.12-.48.27-.73.37-.47.19-1,.3-1.44.48-.25.09-.47.26-.72.35-.51.18-1.11.18-1.63.33a6.6,6.6,0,0,1-1.92.54c-.16,0-.35,0-.58,0s-.38-.12-.4-.25.18-.46.56-.58.93-.21,1.39-.33c.95-.25,2.36-.52,3.24-.81.41-.14.8-.33,1.2-.51l-.11.05a5.8,5.8,0,0,1-1.32.43c-.05,0-.13,0-.16,0a.09.09,0,0,1,.06-.11,9.36,9.36,0,0,0,1.08-.65c.31-.22.57-.51.88-.73s.55-.28.79-.46a2.74,2.74,0,0,0,.45-.45,2.29,2.29,0,0,1-1,.49,5.74,5.74,0,0,0-.74.22c-.27.19-.78,1.14-1.77,1.49A17.1,17.1,0,0,1,9,22.11c-.66.08-1.33.06-2,.16Z"/><path class="cls-14" d="M7.88,20.08a8.68,8.68,0,0,1-.79.56,2.17,2.17,0,0,1-.72.17c-.45.05-.92,0-1.38.08A4.23,4.23,0,0,1,4.2,21a2,2,0,0,0,.71,0c.87,0,2.23.07,2.6,0a1.8,1.8,0,0,0,.74-.31c.34-.23-.33-.23.11-.42.59-.25,2.16-.17,2.54-.82a.29.29,0,0,0,0-.27c0-.08-.22,0-.26-.09s.05-.16.12-.21a9.49,9.49,0,0,1,1.88-1,5.84,5.84,0,0,1,1.05-.33c1.07-.24-1-.18-1.67,0a2.49,2.49,0,0,0-1.19.73,1.39,1.39,0,0,1-.35.29c-.29.13-.7.14-.92.45-.07.11-.07.26-.16.36a.74.74,0,0,1-.31.21c-.3.13-.63.21-.94.34a1.24,1.24,0,0,0-.3.16Z"/><path class="cls-15" d="M13.89,21.51a10.63,10.63,0,0,1-1.1.32c-.41.11-.84.2-1.26.3s-.61.13-.9.23c0,0-.09.11-.05.12a1.3,1.3,0,0,0,.52.09,10.31,10.31,0,0,0,1.11.05.92.92,0,0,0,.36-.1c.27-.15.5-.38.78-.52a3.26,3.26,0,0,1,.75-.23,7.45,7.45,0,0,0,.94-.19,6.14,6.14,0,0,0,1.9-1.47.08.08,0,0,0,0-.11s-.09,0-.13,0c-.34.19-.67.41-1,.6s-.6.31-.91.46-.64.3-1,.41Z"/><path class="cls-16" d="M6.44,1.06a3,3,0,0,0,.3-.19A4.32,4.32,0,0,1,9.63.67c.27.08.56,0,.82.12s.43.24.65.32a6.55,6.55,0,0,1,.67.19c.14.08.16.31.31.38s.54.06.78.16a2.63,2.63,0,0,1,1.55,1.69,1.38,1.38,0,0,1-.08.7c-.1.27-.54.14-.67.2s-.08.14-.09.22c0,.34,0,.68-.05,1-.11.58-.73.8-1.24.93-.68.19-1.47-.09-1.34-1,0-.25.26-.42.35-.66s0-.42.09-.58c.25-.37.93-.55,1-.68a1,1,0,0,0,.09-.53,1,1,0,0,0-.12-.48.16.16,0,0,0-.2,0c-.22.16-.29.55-.76.75s-1.3.19-1.7.7a.26.26,0,0,0-.05.21c.05.16.22.28.25.44a.41.41,0,0,1-.1.32,1.51,1.51,0,0,1-.48.43A13.88,13.88,0,0,1,7.91,6c-.23.08-.45.18-.68.27A15.32,15.32,0,0,1,5,6.73c-.15.15-.1.42-.23.58-.44.57-.9.78-1.51.37-.23-.16-.36-.44-.61-.57s-.37,0-.56,0-.68-.17-1,.09-.27.49-.36.55.05-.48.15-.68-.29-.62.85-1.6a3.54,3.54,0,0,0,.7-1A2,2,0,0,1,2.78,4a4.54,4.54,0,0,1,.48-.39c.27-.22.63-.68,1-1,.14-.12.32-.19.46-.31.31-.29.55-.58.8-.82s.61-.26,1-.4Z"/><path class="cls-17" d="M8.83,3.86c-1,.93-.39,1,.12,1.06.23,0,.53.15.18.3s-.64.16-.94.28-.3.22-.46.3c-1.1.51-2.56.2-3.39.32a.38.38,0,0,0-.21.7c.22.21.44.21.45.37,0,.33-.44.63-.72.71a1.23,1.23,0,0,0,.91-.59c.13-.16.08-.43.23-.58a15.32,15.32,0,0,0,2.23-.48c.23-.09.45-.19.68-.27a13.88,13.88,0,0,0,1.42-.47,1.51,1.51,0,0,0,.48-.43.41.41,0,0,0,.1-.32c0-.16-.2-.28-.25-.44a.26.26,0,0,1,.05-.21c.4-.51,1.25-.51,1.7-.7s.54-.59.76-.75a.16.16,0,0,1,.2,0,1,1,0,0,1,.12.48,1,1,0,0,1-.09.53c-.08.12-.65.28-.94.59.79-.58,1.36-.34,1.37-1a1.73,1.73,0,0,0-.18-.91.29.29,0,0,0-.43,0c-.3.31-.44.69-.88.82a7.26,7.26,0,0,1-.9.2c-.6.11-1.11,0-1.61.49Z"/><path class="cls-18" d="M11.75,1.4c0,.13,0,.44.19.48.38.09.73-.1,1.16.19.59.39,1.18.88,1.08,1.68,0,.29-.3.22-.58.13s-.4-.09-.44.09a6.71,6.71,0,0,0,.05,1.34c0,1-.74,1.26-1.42,1.34a1.38,1.38,0,0,0,.49-.06c.51-.13,1.13-.35,1.24-.93.07-.33,0-.67.05-1,0-.08,0-.18.09-.22s.57.07.67-.2a1.38,1.38,0,0,0,.08-.7,2.63,2.63,0,0,0-1.55-1.69c-.24-.1-.54,0-.78-.16s-.17-.3-.31-.38a.78.78,0,0,0-.27-.09l.18.08a.3.3,0,0,1,.07.11Z"/></g></g></svg>